<svg id="Layer_10" data-name="Layer 10" xmlns="http://www.w3.org/2000/svg" viewBox="0 0 288 147.6"><defs><style>.cls-1,.cls-2,.cls-3,.cls-4{fill:#343434;}.cls-1{opacity:0.25;}.cls-2{opacity:0.55;}.cls-3{opacity:0.8;}</style></defs><title>SCAN_logo</title><path class="cls-1" d="M17.2773,92.7955a24.744,24.744,0,0,1-10.5932-9.08,24.4628,24.4628,0,0,1-3.751-13.4889V66.8058a1.5747,1.5747,0,0,1,1.5792-1.5792H19.6454a1.5735,1.5735,0,0,1,1.5792,1.5792v2.5a9.94,9.94,0,0,0,3.4218,7.6976q3.42,3.0948,9.2111,3.0927,5.1316,0,7.83-2.6315a8.9753,8.9753,0,0,0,2.698-6.7109,8.1578,8.1578,0,0,0-1.7113-5.1988,18.2255,18.2255,0,0,0-4.8026-4.078q-3.0937-1.9062-9.5409-5.1988a111.4162,111.4162,0,0,1-12.8956-7.3691,31.5115,31.5115,0,0,1-8.5536-8.8156A23.1543,23.1543,0,0,1,3.3286,27.0658,24.4556,24.4556,0,0,1,6.9468,13.7083,23.6127,23.6127,0,0,1,17.1452,4.8927,34.8824,34.8824,0,0,1,32.1469,1.8,35.1251,35.1251,0,0,1,47.8062,5.1554a25.6373,25.6373,0,0,1,10.6589,9.4082A25.61,25.61,0,0,1,62.281,28.5122v2.633a1.5735,1.5735,0,0,1-1.5792,1.5792H45.5687A1.5747,1.5747,0,0,1,43.99,31.1452V28.7764A10.5,10.5,0,0,0,40.7,20.88q-3.29-3.1571-8.9484-3.1584a10.6966,10.6966,0,0,0-7.4348,2.4345,8.6637,8.6637,0,0,0-2.6972,6.778,8.8894,8.8894,0,0,0,1.5792,5.263,16.4315,16.4315,0,0,0,4.869,4.2764q3.2876,2.0412,10.0006,5.33l2.7629,1.5792a121.1388,121.1388,0,0,1,11.91,7.302,26.7684,26.7684,0,0,1,7.1714,7.83,21.5617,21.5617,0,0,1,2.895,11.4485q0,11.9746-8.0931,19.0147T33.1993,96.02A36.9653,36.9653,0,0,1,17.2773,92.7955Z"/><path class="cls-2" d="M87.65,92.4657A25.3743,25.3743,0,0,1,77.0571,82.3336a30.291,30.291,0,0,1-3.75-15.2651V30.487a29.6565,29.6565,0,0,1,3.75-15.0667A25.4976,25.4976,0,0,1,87.65,5.3525,33.7726,33.7726,0,0,1,103.441,1.8a34.3364,34.3364,0,0,1,15.7913,3.4868A25.4761,25.4761,0,0,1,129.8248,15.09a28.3279,28.3279,0,0,1,3.751,14.7383v.6583a1.7471,1.7471,0,0,1-.4612,1.1836,1.43,1.43,0,0,1-1.118.5269L116.6,32.8558q-1.5784,0-1.5792-1.4479V29.6974a12.02,12.02,0,0,0-3.1577-8.6857,12.425,12.425,0,0,0-16.8436,0,12.02,12.02,0,0,0-3.1584,8.6857V68.2536A11.7808,11.7808,0,0,0,95.02,76.8721a11.2481,11.2481,0,0,0,8.4215,3.2241,11.2516,11.2516,0,0,0,8.4221-3.2241,11.78,11.78,0,0,0,3.1577-8.6185V66.543q0-1.4478,1.5792-1.4478l15.3966.6582a1.5723,1.5723,0,0,1,1.5792,1.5792v.3941a29.0235,29.0235,0,0,1-3.751,14.87,25.1982,25.1982,0,0,1-10.5925,9.935A34.3013,34.3013,0,0,1,103.441,96.02,33.773,33.773,0,0,1,87.65,92.4657Z"/><path class="cls-3" d="M191.5008,93.6508l-3.0263-12.8964a.6244.6244,0,0,0-.6575-.5268H163.2094a.622.622,0,0,0-.6583.5268l-3.027,12.8964a1.65,1.65,0,0,1-1.7106,1.315H141.8916q-1.7114,0-1.3165-1.71L164.2617,4.1688a1.733,1.733,0,0,1,1.8419-1.3165h19.0811a1.7349,1.7349,0,0,1,1.8427,1.3165l23.6859,89.0865.132.5269q0,1.1844-1.4478,1.1836h-16.054A1.7314,1.7314,0,0,1,191.5008,93.6508Zm-25.2651-27.963a.8709.8709,0,0,0,.5262.197h17.37a.881.881,0,0,0,.5269-.197.4851.4851,0,0,0,.1313-.5926l-9.08-38.1607c-.0885-.35-.22-.5269-.3948-.5269s-.3084.177-.3948.5269l-8.817,38.1607A.4808.4808,0,0,0,166.2357,65.6878Z"/><path class="cls-4" d="M267.1384,3.3135a1.5225,1.5225,0,0,1,1.1194-.4612h15.2637a1.5733,1.5733,0,0,1,1.5792,1.5792V93.3866a1.5708,1.5708,0,0,1-1.5792,1.5792H267.4682a1.8605,1.8605,0,0,1-1.8426-1.1836L240.4918,40.2249c-.177-.2642-.3512-.3955-.5269-.3955s-.2627.177-.2627.5269l.1314,53.03a1.571,1.571,0,0,1-1.5792,1.5792H222.9906a1.57,1.57,0,0,1-1.5792-1.5792V4.4315a1.5723,1.5723,0,0,1,1.5792-1.5792h15.922a1.8645,1.8645,0,0,1,1.8419,1.1851L265.889,57.5947q.2613.394.5262.3941c.1749,0,.2634-.1742.2634-.5255V4.4315A1.5184,1.5184,0,0,1,267.1384,3.3135Z"/><path class="cls-2" d="M5.0779,122.0926a3.8117,3.8117,0,0,1-1.5841-1.5055,4.4319,4.4319,0,0,1-.5608-2.2534v-5.5313a4.3817,4.3817,0,0,1,.5608-2.2438,3.836,3.836,0,0,1,1.5841-1.4959,5.0587,5.0587,0,0,1,2.362-.5314,5.1515,5.1515,0,0,1,2.3523.5218,3.8127,3.8127,0,0,1,1.5943,1.4563,4.0356,4.0356,0,0,1,.5608,2.1161v.433a.2346.2346,0,0,1-.2358.2364H9.4084a.2356.2356,0,0,1-.2364-.2364v-.4132a1.7182,1.7182,0,0,0-.4726-1.24,1.6668,1.6668,0,0,0-1.26-.4918,1.6653,1.6653,0,0,0-1.27.5116,1.8746,1.8746,0,0,0-.4817,1.3387v5.6291a1.83,1.83,0,0,0,.5021,1.3387,1.7521,1.7521,0,0,0,1.3087.5116,1.6835,1.6835,0,0,0,1.23-.4528,1.6563,1.6563,0,0,0,.4624-1.24V117.33a.0871.0871,0,0,0-.0983-.0984H7.558a.2354.2354,0,0,1-.2357-.2363v-1.791a.2354.2354,0,0,1,.2357-.2363h4.1535a.2346.2346,0,0,1,.2358.2363v3.13a4.0967,4.0967,0,0,1-1.23,3.1291A4.578,4.578,0,0,1,7.44,122.6246,5.0516,5.0516,0,0,1,5.0779,122.0926Z"/><path class="cls-2" d="M20.6925,122.27l-1.9878-5.4323c-.0271-.0526-.0593-.0791-.0983-.0791h-1.24a.0871.0871,0,0,0-.0983.0983v5.3736a.2356.2356,0,0,1-.2363.2363H14.7282a.2354.2354,0,0,1-.2363-.2363V108.9254a.2352.2352,0,0,1,.2363-.2363h4.8031a4.0724,4.0724,0,0,1,2.0668.5212,3.5556,3.5556,0,0,1,1.3975,1.4665,4.6271,4.6271,0,0,1,.4919,2.1652,4.1943,4.1943,0,0,1-.5512,2.185,3.3855,3.3855,0,0,1-1.5553,1.3778.0931.0931,0,0,0-.0587.1373l2.2438,5.6495a.2187.2187,0,0,1,.02.0983q0,.1773-.2166.177H20.9678A.2591.2591,0,0,1,20.6925,122.27Zm-3.4248-11.1009v3.3654a.0867.0867,0,0,0,.0983.0984h1.7124a1.5445,1.5445,0,0,0,1.181-.4822,1.8051,1.8051,0,0,0,.4523-1.289,1.8344,1.8344,0,0,0-.4523-1.3087,1.5446,1.5446,0,0,0-1.181-.4823H17.366A.0869.0869,0,0,0,17.2677,111.1692Z"/><path class="cls-2" d="M34.2594,111.0019a.2286.2286,0,0,1-.1673.0689H28.8175a.087.087,0,0,0-.0984.0984v3.07a.087.087,0,0,0,.0984.0984h3.2868a.2356.2356,0,0,1,.2364.2363v1.9092a.2356.2356,0,0,1-.2364.2363H28.8175a.0869.0869,0,0,0-.0984.0983v3.1687a.0867.0867,0,0,0,.0984.0984h5.2746a.2356.2356,0,0,1,.2363.2363v1.9092a.2356.2356,0,0,1-.2363.2363H26.18a.2356.2356,0,0,1-.2363-.2363V108.9254a.2354.2354,0,0,1,.2363-.2363h7.9125a.2354.2354,0,0,1,.2363.2363v1.9091A.2261.2261,0,0,1,34.2594,111.0019Z"/><path class="cls-2" d="M44.0493,122.27l-.4528-1.9289a.0927.0927,0,0,0-.0984-.0786h-3.68a.0923.0923,0,0,0-.0984.0786l-.4528,1.9289a.247.247,0,0,1-.2561.1968H36.6293q-.2561,0-.1967-.2561l3.5424-13.325a.2592.2592,0,0,1,.2758-.1967h2.8539a.26.26,0,0,1,.2758.1967l3.5424,13.325.02.0791c0,.1182-.0718.177-.2165.177H44.3247A.2593.2593,0,0,1,44.0493,122.27ZM40.27,118.0872a.1316.1316,0,0,0,.0791.03h2.5983a.1319.1319,0,0,0,.0786-.03.0726.0726,0,0,0,.02-.0882l-1.358-5.7082c-.0135-.052-.0333-.0786-.0593-.0786s-.0458.0266-.0594.0786l-1.3184,5.7082A.0711.0711,0,0,0,40.27,118.0872Z"/><path class="cls-2" d="M56.7428,108.758a.2284.2284,0,0,1,.069.1674v1.9289a.2354.2354,0,0,1-.2363.2357H53.5837a.0872.0872,0,0,0-.0983.0984v11.0422a.2356.2356,0,0,1-.2363.2363H50.9464a.2251.2251,0,0,1-.1673-.069.2274.2274,0,0,1-.069-.1673V111.1884a.0872.0872,0,0,0-.0983-.0984H47.7184a.2352.2352,0,0,1-.2363-.2357v-1.9289a.2352.2352,0,0,1,.2363-.2363h8.8571A.2289.2289,0,0,1,56.7428,108.758Z"/><path class="cls-2" d="M67.456,111.0019a.23.23,0,0,1-.1674.0689H62.014a.0867.0867,0,0,0-.0983.0984v3.07a.0867.0867,0,0,0,.0983.0984h3.2869a.2356.2356,0,0,1,.2363.2363v1.9092a.2356.2356,0,0,1-.2363.2363H62.014a.0867.0867,0,0,0-.0983.0983v3.1687a.0865.0865,0,0,0,.0983.0984h5.2746a.2354.2354,0,0,1,.2363.2363v1.9092a.2354.2354,0,0,1-.2363.2363H59.3762a.2354.2354,0,0,1-.2363-.2363V108.9254a.2352.2352,0,0,1,.2363-.2363h7.9124a.2352.2352,0,0,1,.2363.2363v1.9091A.2283.2283,0,0,1,67.456,111.0019Z"/><path class="cls-2" d="M76.122,122.27l-1.9883-5.4323c-.026-.0526-.0588-.0791-.0984-.0791h-1.24a.0869.0869,0,0,0-.0984.0983v5.3736a.2356.2356,0,0,1-.2363.2363H70.1583a.2354.2354,0,0,1-.2363-.2363V108.9254a.2352.2352,0,0,1,.2363-.2363H74.96a4.0714,4.0714,0,0,1,2.0669.5212,3.5456,3.5456,0,0,1,1.3975,1.4665,4.621,4.621,0,0,1,.4919,2.1652,4.1885,4.1885,0,0,1-.5507,2.185,3.384,3.384,0,0,1-1.5547,1.3778.093.093,0,0,0-.0593.1373l2.2438,5.6495a.2191.2191,0,0,1,.0192.0983q0,.1773-.2159.177H76.3973A.2584.2584,0,0,1,76.122,122.27Zm-3.4248-11.1009v3.3654a.0865.0865,0,0,0,.0984.0984H74.508a1.5465,1.5465,0,0,0,1.181-.4822,1.808,1.808,0,0,0,.4528-1.289,1.8373,1.8373,0,0,0-.4528-1.3087,1.5465,1.5465,0,0,0-1.181-.4823H72.7956A.0867.0867,0,0,0,72.6972,111.1692Z"/><path class="cls-2" d="M87.4,122.1424a3.7017,3.7017,0,0,1-1.5841-1.3585,3.6551,3.6551,0,0,1-.5608-2.0172v-.5121a.2346.2346,0,0,1,.2358-.2358h2.2636a.2278.2278,0,0,1,.1673.0684.23.23,0,0,1,.069.1674v.3742a1.4868,1.4868,0,0,0,.5116,1.1516,1.9791,1.9791,0,0,0,1.3777.4624,1.6076,1.6076,0,0,0,1.1708-.394,1.34,1.34,0,0,0,.4037-1.0035,1.22,1.22,0,0,0-.2555-.7773,2.7337,2.7337,0,0,0-.7186-.6106q-.4621-.2849-1.4269-.7773a16.6412,16.6412,0,0,1-1.9289-1.1024,4.6991,4.6991,0,0,1-1.2794-1.3184,3.464,3.464,0,0,1-.5314-1.9487,3.652,3.652,0,0,1,.5416-1.9979,3.5285,3.5285,0,0,1,1.5253-1.3189,5.6944,5.6944,0,0,1,4.586.04,3.7469,3.7469,0,0,1,2.1652,3.4937v.3935a.2291.2291,0,0,1-.069.1673.2267.2267,0,0,1-.1673.069H91.632a.2356.2356,0,0,1-.2363-.2363v-.3539a1.57,1.57,0,0,0-.4919-1.181,1.8535,1.8535,0,0,0-1.3387-.4726,1.5989,1.5989,0,0,0-1.112.3641,1.2955,1.2955,0,0,0-.4031,1.0136,1.3283,1.3283,0,0,0,.2358.7875,2.4528,2.4528,0,0,0,.7287.6394q.491.3053,1.4959.7972l.4127.2363a18.1223,18.1223,0,0,1,1.7819,1.0922,4.0035,4.0035,0,0,1,1.0725,1.1714,3.2263,3.2263,0,0,1,.4324,1.7124A3.5779,3.5779,0,0,1,93,121.5714a4.7311,4.7311,0,0,1-3.2184,1.0532A5.5325,5.5325,0,0,1,87.4,122.1424Z"/><path class="cls-2" d="M104.9231,111.0019a.2287.2287,0,0,1-.1674.0689H99.4811a.0869.0869,0,0,0-.0983.0984v3.07a.0869.0869,0,0,0,.0983.0984h3.2869a.2356.2356,0,0,1,.2363.2363v1.9092a.2356.2356,0,0,1-.2363.2363H99.4811a.0869.0869,0,0,0-.0983.0983v3.1687a.0867.0867,0,0,0,.0983.0984h5.2746a.2354.2354,0,0,1,.2363.2363v1.9092a.2354.2354,0,0,1-.2363.2363H96.8433a.2354.2354,0,0,1-.2363-.2363V108.9254a.2352.2352,0,0,1,.2363-.2363h7.9124a.2352.2352,0,0,1,.2363.2363v1.9091A.2264.2264,0,0,1,104.9231,111.0019Z"/><path class="cls-2" d="M114.7136,122.27l-.4529-1.9289a.0926.0926,0,0,0-.0983-.0786h-3.681a.0929.0929,0,0,0-.0983.0786l-.4523,1.9289a.2479.2479,0,0,1-.2561.1968h-2.3818q-.256,0-.1967-.2561l3.543-13.325a.2583.2583,0,0,1,.2753-.1967h2.8538a.2594.2594,0,0,1,.2759.1967l3.543,13.325.02.0791q0,.1773-.217.177h-2.401A.2591.2591,0,0,1,114.7136,122.27Zm-3.7793-4.1829a.1319.1319,0,0,0,.0786.03h2.5982a.1344.1344,0,0,0,.0792-.03.0717.0717,0,0,0,.0192-.0882l-1.3579-5.7082c-.0136-.052-.0328-.0786-.0588-.0786s-.0464.0266-.0594.0786l-1.3189,5.7082A.0711.0711,0,0,0,110.9343,118.0872Z"/><path class="cls-2" d="M127.4065,108.758a.2284.2284,0,0,1,.069.1674v1.9289a.2354.2354,0,0,1-.2364.2357h-2.9917a.0872.0872,0,0,0-.0984.0984v11.0422a.2356.2356,0,0,1-.2363.2363H121.61a.2248.2248,0,0,1-.1673-.069.2274.2274,0,0,1-.069-.1673V111.1884a.0872.0872,0,0,0-.0984-.0984H118.382a.2354.2354,0,0,1-.2363-.2357v-1.9289a.2354.2354,0,0,1,.2363-.2363h8.8571A.2293.2293,0,0,1,127.4065,108.758Z"/><path class="cls-2" d="M138.8,108.758a.2264.2264,0,0,1,.0689.1674v1.9289a.2352.2352,0,0,1-.2363.2357h-2.9917a.0872.0872,0,0,0-.0984.0984v11.0422a.2356.2356,0,0,1-.2357.2363h-2.3027a.2356.2356,0,0,1-.2363-.2363V111.1884a.0872.0872,0,0,0-.0983-.0984h-2.8934a.2352.2352,0,0,1-.2363-.2357v-1.9289a.2352.2352,0,0,1,.2363-.2363h8.8565A.2283.2283,0,0,1,138.8,108.758Z"/><path class="cls-2" d="M141.2663,122.3979a.2274.2274,0,0,1-.069-.1673V108.9254a.2354.2354,0,0,1,.2363-.2363h2.3032a.2354.2354,0,0,1,.2363.2363v11.0613a.0867.0867,0,0,0,.0984.0984h5.2746a.2356.2356,0,0,1,.2363.2363v1.9092a.2356.2356,0,0,1-.2363.2363h-7.9125A.2267.2267,0,0,1,141.2663,122.3979Z"/><path class="cls-2" d="M160.18,111.0019a.2286.2286,0,0,1-.1673.0689h-5.2752a.087.087,0,0,0-.0984.0984v3.07a.087.087,0,0,0,.0984.0984h3.2869a.2282.2282,0,0,1,.1673.069.2259.2259,0,0,1,.069.1673v1.9092a.2356.2356,0,0,1-.2363.2363h-3.2869a.0869.0869,0,0,0-.0984.0983v3.1687a.0867.0867,0,0,0,.0984.0984h5.2752a.2356.2356,0,0,1,.2363.2363v1.9092a.2356.2356,0,0,1-.2363.2363H152.1a.2251.2251,0,0,1-.1673-.069.2274.2274,0,0,1-.069-.1673V108.9254a.2354.2354,0,0,1,.2363-.2363h7.9125a.2354.2354,0,0,1,.2363.2363v1.9091A.2284.2284,0,0,1,160.18,111.0019Z"/><path class="cls-4" d="M168.8694,122.0926a3.79,3.79,0,0,1-1.5847-1.5151,4.5352,4.5352,0,0,1-.5608-2.2834v-5.4719a4.44,4.44,0,0,1,.5608-2.2534,3.8147,3.8147,0,0,1,1.5847-1.5061,5.0556,5.0556,0,0,1,2.362-.5314,5.1358,5.1358,0,0,1,2.3619.5218,3.8087,3.8087,0,0,1,1.5841,1.4665,4.233,4.233,0,0,1,.5608,2.2043v.0983A.2624.2624,0,0,1,175.67,113a.2147.2147,0,0,1-.1673.0785l-2.3026.0984c-.1578,0-.2364-.0718-.2364-.2165v-.2561a1.799,1.799,0,0,0-.4726-1.2992,1.8588,1.8588,0,0,0-2.5191,0,1.7965,1.7965,0,0,0-.4726,1.2992v5.767a1.7612,1.7612,0,0,0,.4726,1.2895,1.8861,1.8861,0,0,0,2.5191,0,1.7637,1.7637,0,0,0,.4726-1.2895v-.2556q0-.2162.2364-.2165l2.3026.0984a.2346.2346,0,0,1,.2357.2363v.0588a4.3374,4.3374,0,0,1-.5608,2.224,3.7679,3.7679,0,0,1-1.5841,1.4863,5.1346,5.1346,0,0,1-2.3619.5218A5.0484,5.0484,0,0,1,168.8694,122.0926Z"/><path class="cls-4" d="M180.236,122.0926a3.9389,3.9389,0,0,1-1.6044-1.5547,4.6564,4.6564,0,0,1-.57-2.3421V112.96a4.6154,4.6154,0,0,1,.57-2.3224,3.9442,3.9442,0,0,1,1.6044-1.5553,5.01,5.01,0,0,1,2.3914-.5512,5.0706,5.0706,0,0,1,2.4016.5512,3.9189,3.9189,0,0,1,1.6134,1.5553,4.61,4.61,0,0,1,.571,2.3224v5.2356a4.65,4.65,0,0,1-.571,2.3421,3.9138,3.9138,0,0,1-1.6134,1.5547,5.0564,5.0564,0,0,1-2.4016.5512A4.996,4.996,0,0,1,180.236,122.0926Zm3.71-2.3716a2.0114,2.0114,0,0,0,.4924-1.4071v-5.4323a2.0418,2.0418,0,0,0-.4924-1.4275,1.696,1.696,0,0,0-1.3189-.541,1.6715,1.6715,0,0,0-1.2991.541,2.0416,2.0416,0,0,0-.4919,1.4275v5.4323a2.0111,2.0111,0,0,0,.4919,1.4071,1.67,1.67,0,0,0,1.2991.5416A1.6944,1.6944,0,0,0,183.9463,119.721Z"/><path class="cls-4" d="M195.9682,122.27l-1.9877-5.4323c-.0266-.0526-.0588-.0791-.0984-.0791h-1.24a.0871.0871,0,0,0-.0984.0983v5.3736a.2356.2356,0,0,1-.2363.2363h-2.3026a.2252.2252,0,0,1-.1674-.069.2277.2277,0,0,1-.0689-.1673V108.9254a.2352.2352,0,0,1,.2363-.2363h4.8025a4.0714,4.0714,0,0,1,2.0669.5212,3.5493,3.5493,0,0,1,1.3975,1.4665,4.621,4.621,0,0,1,.4918,2.1652,4.1941,4.1941,0,0,1-.5506,2.185,3.3882,3.3882,0,0,1-1.5552,1.3778.0933.0933,0,0,0-.0594.1373l2.2444,5.6495a.2276.2276,0,0,1,.0192.0983c0,.1182-.0724.177-.216.177h-2.4015A.26.26,0,0,1,195.9682,122.27Zm-3.4248-11.1009v3.3654a.0867.0867,0,0,0,.0984.0984h1.7129a1.5443,1.5443,0,0,0,1.18-.4822,1.8054,1.8054,0,0,0,.4528-1.289,1.8346,1.8346,0,0,0-.4528-1.3087,1.5444,1.5444,0,0,0-1.18-.4823h-1.7129A.087.087,0,0,0,192.5434,111.1692Z"/><path class="cls-4" d="M203.2294,122.0926a3.9383,3.9383,0,0,1-1.6044-1.5547,4.6565,4.6565,0,0,1-.5705-2.3421V112.96a4.6155,4.6155,0,0,1,.5705-2.3224,3.9435,3.9435,0,0,1,1.6044-1.5553,5.01,5.01,0,0,1,2.3914-.5512,5.07,5.07,0,0,1,2.4015.5512,3.9186,3.9186,0,0,1,1.6135,1.5553,4.6105,4.6105,0,0,1,.571,2.3224v5.2356a4.6515,4.6515,0,0,1-.571,2.3421,3.9135,3.9135,0,0,1-1.6135,1.5547,5.056,5.056,0,0,1-2.4015.5512A4.996,4.996,0,0,1,203.2294,122.0926Zm3.71-2.3716a2.0114,2.0114,0,0,0,.4924-1.4071v-5.4323a2.0418,2.0418,0,0,0-.4924-1.4275,1.6961,1.6961,0,0,0-1.3189-.541,1.6717,1.6717,0,0,0-1.2992.541,2.0415,2.0415,0,0,0-.4918,1.4275v5.4323a2.011,2.011,0,0,0,.4918,1.4071,1.67,1.67,0,0,0,1.2992.5416A1.6945,1.6945,0,0,0,206.94,119.721Z"/><path class="cls-4" d="M219.6015,108.758a.2283.2283,0,0,1,.1674-.0689h2.2828a.2289.2289,0,0,1,.1673.0689.2261.2261,0,0,1,.069.1674v13.3052a.2356.2356,0,0,1-.2363.2363h-2.401a.2772.2772,0,0,1-.2753-.177l-3.76-8.0108c-.0266-.04-.0531-.0594-.0791-.0594s-.04.0266-.04.0786l.02,7.9323a.23.23,0,0,1-.0689.1673.227.227,0,0,1-.1674.069h-2.2834a.2251.2251,0,0,1-.1673-.069.2274.2274,0,0,1-.069-.1673V108.9254a.2354.2354,0,0,1,.2363-.2363H215.38a.2782.2782,0,0,1,.2753.1769l3.76,8.0108c.0266.04.0526.0594.0786.0594s.04-.0266.04-.0792v-7.9316A.2264.2264,0,0,1,219.6015,108.758Z"/><path class="cls-4" d="M232.2063,122.27l-.4529-1.9289a.0926.0926,0,0,0-.0983-.0786h-3.6809a.093.093,0,0,0-.0984.0786l-.4523,1.9289a.2478.2478,0,0,1-.2561.1968h-2.3817q-.2562,0-.1968-.2561l3.543-13.325a.2583.2583,0,0,1,.2753-.1967h2.8538a.2593.2593,0,0,1,.2759.1967l3.543,13.325.02.0791q0,.1773-.2171.177h-2.401A.2591.2591,0,0,1,232.2063,122.27Zm-3.7793-4.1829a.1319.1319,0,0,0,.0786.03h2.5983a.1344.1344,0,0,0,.0791-.03.0717.0717,0,0,0,.0192-.0882l-1.3579-5.7082c-.0136-.052-.0328-.0786-.0588-.0786s-.0464.0266-.0594.0786l-1.3189,5.7082A.0711.0711,0,0,0,228.427,118.0872Z"/><path class="cls-4" d="M239.04,122.27l-3.4248-13.3255v-.0786c0-.1181.0718-.1769.2165-.1769h2.4993a.236.236,0,0,1,.2561.2165l1.9883,9.1522c.0125.0526.0322.0786.0588.0786s.0458-.026.0588-.0786l1.9685-9.1522a.2355.2355,0,0,1,.2555-.2165h2.4214q.2755,0,.2165.2555L242.0906,122.27a.2592.2592,0,0,1-.2753.1968h-2.4994A.2593.2593,0,0,1,239.04,122.27Z"/><path class="cls-4" d="M247.952,122.3979a.2254.2254,0,0,1-.0689-.1673V108.9254a.2352.2352,0,0,1,.2363-.2363h2.3031a.2354.2354,0,0,1,.2364.2363v13.3052a.23.23,0,0,1-.069.1673.227.227,0,0,1-.1674.069h-2.3031A.2261.2261,0,0,1,247.952,122.3979Z"/><path class="cls-4" d="M259.6081,122.27l-1.9877-5.4323c-.0271-.0526-.0594-.0791-.0984-.0791h-1.24a.0871.0871,0,0,0-.0984.0983v5.3736a.2356.2356,0,0,1-.2363.2363h-2.3032a.2356.2356,0,0,1-.2363-.2363V108.9254a.2354.2354,0,0,1,.2363-.2363h4.8031a4.0727,4.0727,0,0,1,2.0669.5212,3.5568,3.5568,0,0,1,1.3975,1.4665,4.6283,4.6283,0,0,1,.4918,2.1652,4.1943,4.1943,0,0,1-.5512,2.185,3.3852,3.3852,0,0,1-1.5552,1.3778.0931.0931,0,0,0-.0588.1373l2.2438,5.6495a.2187.2187,0,0,1,.02.0983q0,.1773-.2165.177h-2.4016A.2592.2592,0,0,1,259.6081,122.27Zm-3.4248-11.1009v3.3654a.0867.0867,0,0,0,.0984.0984h1.7124a1.5447,1.5447,0,0,0,1.181-.4822,1.8051,1.8051,0,0,0,.4522-1.289,1.8343,1.8343,0,0,0-.4522-1.3087,1.5448,1.5448,0,0,0-1.181-.4823h-1.7124A.087.087,0,0,0,256.1833,111.1692Z"/><path class="cls-4" d="M266.9066,122.0734a3.9025,3.9025,0,0,1-1.5846-1.5451,4.5888,4.5888,0,0,1-.5614-2.293v-9.31a.2354.2354,0,0,1,.2363-.2363H267.3a.2354.2354,0,0,1,.2363.2363v9.4473a1.9218,1.9218,0,0,0,.4726,1.3585,1.8064,1.8064,0,0,0,2.5192,0,1.924,1.924,0,0,0,.4726-1.3585v-9.4473a.2344.2344,0,0,1,.2357-.2363h2.3026a.2354.2354,0,0,1,.2364.2363v9.31a4.5823,4.5823,0,0,1-.5609,2.293,3.9108,3.9108,0,0,1-1.584,1.5451,5.3364,5.3364,0,0,1-4.724,0Z"/><path class="cls-4" d="M278.2789,122.1424a3.7,3.7,0,0,1-1.5846-1.3585,3.6592,3.6592,0,0,1-.5608-2.0172v-.5121a.2344.2344,0,0,1,.2357-.2358h2.2636a.2344.2344,0,0,1,.2363.2358v.3742a1.4877,1.4877,0,0,0,.5122,1.1516,1.9767,1.9767,0,0,0,1.3772.4624,1.6084,1.6084,0,0,0,1.1714-.394,1.34,1.34,0,0,0,.4036-1.0035,1.2228,1.2228,0,0,0-.2555-.7773,2.7253,2.7253,0,0,0-.7191-.6106q-.4622-.2849-1.4269-.7773a16.6947,16.6947,0,0,1-1.929-1.1024,4.7068,4.7068,0,0,1-1.2788-1.3184,3.4593,3.4593,0,0,1-.5314-1.9487,3.656,3.656,0,0,1,.5411-1.9979,3.531,3.531,0,0,1,1.5252-1.3189,5.6944,5.6944,0,0,1,4.586.04,3.7442,3.7442,0,0,1,2.1653,3.4937v.3935a.2356.2356,0,0,1-.2363.2363H282.511a.2356.2356,0,0,1-.2363-.2363v-.3539a1.57,1.57,0,0,0-.4924-1.181,1.852,1.852,0,0,0-1.3381-.4726,1.6012,1.6012,0,0,0-1.1126.3641,1.2955,1.2955,0,0,0-.4031,1.0136,1.3331,1.3331,0,0,0,.2357.7875,2.4546,2.4546,0,0,0,.7288.6394q.491.3053,1.4958.7972l.4133.2363a18.1171,18.1171,0,0,1,1.7814,1.0922,3.9964,3.9964,0,0,1,1.0724,1.1714,3.2265,3.2265,0,0,1,.4331,1.7124,3.5787,3.5787,0,0,1-1.21,2.8442,4.7294,4.7294,0,0,1-3.2185,1.0532A5.5279,5.5279,0,0,1,278.2789,122.1424Z"/><path class="cls-4" d="M10.5278,145.4263l-.4529-1.9289a.0926.0926,0,0,0-.0983-.0786H6.2957a.093.093,0,0,0-.0984.0786l-.4523,1.9289a.2477.2477,0,0,1-.2561.1967H3.1072q-.2562,0-.1968-.256l3.543-13.325a.2584.2584,0,0,1,.2753-.1968H9.5825a.2594.2594,0,0,1,.2759.1968l3.543,13.325.02.0791c0,.1182-.0724.1769-.2171.1769h-2.401A.2591.2591,0,0,1,10.5278,145.4263Zm-3.7793-4.1829a.1319.1319,0,0,0,.0786.03H9.4254a.1344.1344,0,0,0,.0791-.03.0717.0717,0,0,0,.0192-.0882L8.1658,135.447c-.0136-.052-.0328-.0786-.0588-.0786s-.0463.0266-.0594.0786l-1.3189,5.7082A.0711.0711,0,0,0,6.7485,141.2434Z"/><path class="cls-4" d="M17.3141,145.2985a3.6992,3.6992,0,0,1-1.5847-1.3585,3.6594,3.6594,0,0,1-.5608-2.0171v-.5122a.2346.2346,0,0,1,.2358-.2357H17.668a.2346.2346,0,0,1,.2363.2357v.3743a1.4874,1.4874,0,0,0,.5122,1.1516,1.9765,1.9765,0,0,0,1.3771.4624,1.6084,1.6084,0,0,0,1.1714-.394,1.3406,1.3406,0,0,0,.4037-1.0035,1.2229,1.2229,0,0,0-.2556-.7773,2.7234,2.7234,0,0,0-.7191-.6106q-.4622-.2848-1.4269-.7773a16.6923,16.6923,0,0,1-1.9289-1.1024,4.7054,4.7054,0,0,1-1.2788-1.3184,3.4593,3.4593,0,0,1-.5314-1.9487,3.6565,3.6565,0,0,1,.541-1.9979,3.5307,3.5307,0,0,1,1.5253-1.3189,5.695,5.695,0,0,1,4.586.04,3.7443,3.7443,0,0,1,2.1652,3.4938v.3935a.2354.2354,0,0,1-.2363.2363h-2.263a.2354.2354,0,0,1-.2363-.2363v-.3539a1.57,1.57,0,0,0-.4924-1.181,1.8524,1.8524,0,0,0-1.3382-.4726,1.6018,1.6018,0,0,0-1.1126.364,1.2955,1.2955,0,0,0-.4031,1.0137,1.3325,1.3325,0,0,0,.2358.7875,2.4555,2.4555,0,0,0,.7287.6394q.491.3053,1.4959.7971l.4133.2363A18.1187,18.1187,0,0,1,22.6186,139a3.9964,3.9964,0,0,1,1.0725,1.1713,3.227,3.227,0,0,1,.433,1.7124,3.5786,3.5786,0,0,1-1.21,2.8443,4.729,4.729,0,0,1-3.2184,1.0532A5.5264,5.5264,0,0,1,17.3141,145.2985Z"/><path class="cls-4" d="M28.4721,145.2985a3.7059,3.7059,0,0,1-1.5846-1.3585,3.6537,3.6537,0,0,1-.5608-2.0171v-.5122a.2344.2344,0,0,1,.2363-.2357h2.2636a.2284.2284,0,0,1,.1673.0684.2319.2319,0,0,1,.069.1673v.3743a1.4864,1.4864,0,0,0,.5111,1.1516,1.9793,1.9793,0,0,0,1.3782.4624,1.6079,1.6079,0,0,0,1.1709-.394,1.3428,1.3428,0,0,0,.4036-1.0035,1.2169,1.2169,0,0,0-.2561-.7773,2.7348,2.7348,0,0,0-.718-.6106q-.4629-.2848-1.4269-.7773a16.6412,16.6412,0,0,1-1.9289-1.1024,4.7076,4.7076,0,0,1-1.28-1.3184,3.468,3.468,0,0,1-.5314-1.9487,3.656,3.656,0,0,1,.5416-1.9979,3.53,3.53,0,0,1,1.5252-1.3189,5.695,5.695,0,0,1,4.586.04,3.7468,3.7468,0,0,1,2.1653,3.4938v.3935a.2356.2356,0,0,1-.2363.2363H32.7037a.2354.2354,0,0,1-.2363-.2363v-.3539a1.57,1.57,0,0,0-.4919-1.181,1.8527,1.8527,0,0,0-1.3387-.4726,1.5989,1.5989,0,0,0-1.1115.364,1.2959,1.2959,0,0,0-.4036,1.0137,1.3294,1.3294,0,0,0,.2363.7875,2.4528,2.4528,0,0,0,.7282.6394q.4917.3053,1.4958.7971l.4133.2363A18.0619,18.0619,0,0,1,33.7767,139a4.0143,4.0143,0,0,1,1.073,1.1713,3.2268,3.2268,0,0,1,.4325,1.7124,3.577,3.577,0,0,1-1.21,2.8443,4.73,4.73,0,0,1-3.2179,1.0532A5.5291,5.5291,0,0,1,28.4721,145.2985Z"/><path class="cls-4" d="M45.9953,134.158a.2284.2284,0,0,1-.1674.069H40.5528a.087.087,0,0,0-.0984.0984v3.07a.087.087,0,0,0,.0984.0984H43.84a.2286.2286,0,0,1,.1673.0689.2261.2261,0,0,1,.069.1674V139.64a.2354.2354,0,0,1-.2363.2363H40.5528a.087.087,0,0,0-.0984.0984v3.1687a.0867.0867,0,0,0,.0984.0984h5.2751a.2356.2356,0,0,1,.2364.2363v1.9091a.2354.2354,0,0,1-.2364.2363H37.9155a.2354.2354,0,0,1-.2363-.2363V132.0815a.2356.2356,0,0,1,.2363-.2363h7.9124a.2356.2356,0,0,1,.2364.2363v1.9092A.2282.2282,0,0,1,45.9953,134.158Z"/><path class="cls-4" d="M50.3235,145.2985a3.7053,3.7053,0,0,1-1.5846-1.3585,3.6537,3.6537,0,0,1-.5609-2.0171v-.5122a.2346.2346,0,0,1,.2364-.2357H50.678a.2287.2287,0,0,1,.1673.0684.2323.2323,0,0,1,.069.1673v.3743a1.4866,1.4866,0,0,0,.511,1.1516,1.98,1.98,0,0,0,1.3783.4624,1.6076,1.6076,0,0,0,1.1708-.394,1.3425,1.3425,0,0,0,.4037-1.0035,1.2169,1.2169,0,0,0-.2561-.7773,2.7348,2.7348,0,0,0-.718-.6106q-.4631-.2848-1.4269-.7773a16.6412,16.6412,0,0,1-1.9289-1.1024,4.7076,4.7076,0,0,1-1.28-1.3184,3.4681,3.4681,0,0,1-.5315-1.9487,3.6569,3.6569,0,0,1,.5416-1.9979,3.5312,3.5312,0,0,1,1.5253-1.3189,5.695,5.695,0,0,1,4.586.04,3.7468,3.7468,0,0,1,2.1653,3.4938v.3935a.2356.2356,0,0,1-.2364.2363H54.555a.2356.2356,0,0,1-.2363-.2363v-.3539a1.57,1.57,0,0,0-.4918-1.181,1.8527,1.8527,0,0,0-1.3387-.4726,1.5989,1.5989,0,0,0-1.1115.364,1.2959,1.2959,0,0,0-.4036,1.0137,1.3294,1.3294,0,0,0,.2363.7875,2.4511,2.4511,0,0,0,.7281.6394q.4918.3053,1.4959.7971l.4133.2363A18.0619,18.0619,0,0,1,55.6281,139a4.0143,4.0143,0,0,1,1.073,1.1713,3.2268,3.2268,0,0,1,.4324,1.7124,3.5769,3.5769,0,0,1-1.21,2.8443,4.73,4.73,0,0,1-3.2179,1.0532A5.5291,5.5291,0,0,1,50.3235,145.2985Z"/><path class="cls-4" d="M61.4815,145.2985a3.7,3.7,0,0,1-1.5846-1.3585,3.6586,3.6586,0,0,1-.5608-2.0171v-.5122a.2346.2346,0,0,1,.2357-.2357h2.2636a.2346.2346,0,0,1,.2364.2357v.3743a1.4876,1.4876,0,0,0,.5121,1.1516,1.9767,1.9767,0,0,0,1.3772.4624,1.6084,1.6084,0,0,0,1.1714-.394,1.3405,1.3405,0,0,0,.4036-1.0035,1.2228,1.2228,0,0,0-.2555-.7773,2.7234,2.7234,0,0,0-.7191-.6106q-.4621-.2848-1.4269-.7773a16.6838,16.6838,0,0,1-1.9289-1.1024,4.704,4.704,0,0,1-1.2788-1.3184,3.4585,3.4585,0,0,1-.5314-1.9487,3.6557,3.6557,0,0,1,.541-1.9979,3.5307,3.5307,0,0,1,1.5253-1.3189,5.695,5.695,0,0,1,4.586.04,3.7443,3.7443,0,0,1,2.1652,3.4938v.3935a.2356.2356,0,0,1-.2363.2363h-2.263a.2356.2356,0,0,1-.2364-.2363v-.3539a1.57,1.57,0,0,0-.4924-1.181,1.852,1.852,0,0,0-1.3381-.4726,1.6018,1.6018,0,0,0-1.1126.364,1.2955,1.2955,0,0,0-.4031,1.0137,1.3325,1.3325,0,0,0,.2358.7875,2.4542,2.4542,0,0,0,.7287.6394q.491.3053,1.4959.7971l.4132.2363A18.11,18.11,0,0,1,66.7861,139a3.9947,3.9947,0,0,1,1.0724,1.1713,3.2261,3.2261,0,0,1,.4331,1.7124,3.5789,3.5789,0,0,1-1.21,2.8443,4.7291,4.7291,0,0,1-3.2185,1.0532A5.5264,5.5264,0,0,1,61.4815,145.2985Z"/><path class="cls-4" d="M78.562,131.8452h2.2834a.2356.2356,0,0,1,.2364.2363v13.3052a.23.23,0,0,1-.069.1674.2273.2273,0,0,1-.1674.0689H78.5423a.2352.2352,0,0,1-.2363-.2363v-8.7389c0-.0526-.0131-.082-.04-.0888s-.052.01-.078.0492L76.377,139.6a.2822.2822,0,0,1-.2753.1577h-.4528a.2826.2826,0,0,1-.2759-.1577l-1.81-2.9918c-.0266-.039-.0532-.0554-.0792-.0492s-.0395.0362-.0395.0888v8.7389a.2344.2344,0,0,1-.2358.2363H70.9057a.2354.2354,0,0,1-.2363-.2363V132.0815a.2356.2356,0,0,1,.2363-.2363h2.2828a.2834.2834,0,0,1,.2759.1572l2.362,3.8776c.039.0786.078.0786.1176,0l2.3427-3.8776A.2811.2811,0,0,1,78.562,131.8452Z"/><path class="cls-4" d="M92.1471,134.158a.2284.2284,0,0,1-.1674.069H86.7046a.087.087,0,0,0-.0984.0984v3.07a.087.087,0,0,0,.0984.0984h3.2869a.2286.2286,0,0,1,.1673.0689.2261.2261,0,0,1,.069.1674V139.64a.2354.2354,0,0,1-.2363.2363H86.7046a.087.087,0,0,0-.0984.0984v3.1687a.0867.0867,0,0,0,.0984.0984H91.98a.2356.2356,0,0,1,.2364.2363v1.9091a.2354.2354,0,0,1-.2364.2363H84.0673a.2354.2354,0,0,1-.2363-.2363V132.0815a.2356.2356,0,0,1,.2363-.2363H91.98a.2356.2356,0,0,1,.2364.2363v1.9092A.2282.2282,0,0,1,92.1471,134.158Z"/><path class="cls-4" d="M101.4531,131.9142a.2261.2261,0,0,1,.1668-.069h2.2834a.2356.2356,0,0,1,.2363.2363v13.3052a.2354.2354,0,0,1-.2363.2363h-2.4016a.2781.2781,0,0,1-.2753-.1769l-3.76-8.0108c-.0266-.04-.0526-.0594-.0786-.0594s-.04.0266-.04.0786l.02,7.9322a.2352.2352,0,0,1-.2363.2363H94.8488a.2354.2354,0,0,1-.2363-.2363V132.0815a.2356.2356,0,0,1,.2363-.2363h2.3824a.2775.2775,0,0,1,.2747.177l3.76,8.0108c.0266.04.0526.0594.0791.0594s.04-.0266.04-.0792v-7.9317A.226.226,0,0,1,101.4531,131.9142Z"/><path class="cls-4" d="M115.729,131.9142a.2306.2306,0,0,1,.0689.1673v1.929a.2352.2352,0,0,1-.2363.2357H112.57a.0872.0872,0,0,0-.0984.0984v11.0421a.2354.2354,0,0,1-.2363.2363H109.932a.2354.2354,0,0,1-.2363-.2363V134.3446a.0872.0872,0,0,0-.0984-.0984h-2.8934a.2354.2354,0,0,1-.2363-.2357v-1.929a.2356.2356,0,0,1,.2363-.2363h8.8577A.2294.2294,0,0,1,115.729,131.9142Z"/><path class="cls-2" d="M129.23,131.9142a.2294.2294,0,0,1,.1674-.069h2.2834a.2346.2346,0,0,1,.2357.2363v13.3052a.2344.2344,0,0,1-.2357.2363H129.28a.2778.2778,0,0,1-.2759-.1769l-3.76-8.0108c-.026-.04-.0526-.0594-.0786-.0594s-.04.0266-.04.0786l.02,7.9322a.2352.2352,0,0,1-.2363.2363h-2.2828a.2354.2354,0,0,1-.2363-.2363V132.0815a.2356.2356,0,0,1,.2363-.2363h2.3812a.28.28,0,0,1,.2759.177l3.76,8.0108c.026.04.052.0594.0785.0594s.039-.0266.039-.0792v-7.9317A.2264.2264,0,0,1,129.23,131.9142Z"/><path class="cls-2" d="M142.9929,134.158a.2294.2294,0,0,1-.1674.069H137.55a.0867.0867,0,0,0-.0984.0984v3.07a.0867.0867,0,0,0,.0984.0984h3.2868a.2352.2352,0,0,1,.2363.2363V139.64a.2352.2352,0,0,1-.2363.2363H137.55a.0867.0867,0,0,0-.0984.0984v3.1687a.0865.0865,0,0,0,.0984.0984h5.2751a.2354.2354,0,0,1,.2363.2363v1.9091a.23.23,0,0,1-.0689.1674.2273.2273,0,0,1-.1674.0689h-7.9124a.2352.2352,0,0,1-.2363-.2363V132.0815a.2354.2354,0,0,1,.2363-.2363h7.9124a.2354.2354,0,0,1,.2363.2363v1.9092A.23.23,0,0,1,142.9929,134.158Z"/><path class="cls-2" d="M154.4556,131.9142a.2283.2283,0,0,1,.069.1673v1.929a.2354.2354,0,0,1-.2363.2357h-2.9918a.0871.0871,0,0,0-.0983.0984v11.0421a.2354.2354,0,0,1-.2364.2363h-2.3026a.2354.2354,0,0,1-.2363-.2363V134.3446a.0872.0872,0,0,0-.0983-.0984h-2.8934a.2352.2352,0,0,1-.2363-.2357v-1.929a.2354.2354,0,0,1,.2363-.2363h8.8571A.229.229,0,0,1,154.4556,131.9142Z"/><path class="cls-2" d="M159.642,145.4263l-3.09-13.3255v-.0786c0-.1182.0712-.177.216-.177h2.4213a.2225.2225,0,0,1,.2561.2166l1.4959,7.5579c.0124.04.0322.0594.0588.0594s.0458-.02.0588-.0594l1.437-7.5579a.2218.2218,0,0,1,.2556-.2166h2.185a.2364.2364,0,0,1,.2561.2166l1.5745,7.5579c.013.04.0322.0594.0593.0594s.0452-.02.0588-.0594l1.4167-7.5579a.2225.2225,0,0,1,.2561-.2166h2.323c.17,0,.2363.0854.1967.2556l-2.8741,13.3057a.2352.2352,0,0,1-.2556.2165h-2.224a.2357.2357,0,0,1-.2561-.2165l-1.5942-7.9124c-.013-.04-.0328-.0588-.0594-.0588s-.0458.0192-.0588.0588l-1.4371,7.9124a.2216.2216,0,0,1-.2555.2165h-2.1652A.2464.2464,0,0,1,159.642,145.4263Z"/><path class="cls-2" d="M175.1175,145.2488a3.9344,3.9344,0,0,1-1.6038-1.5547,4.6565,4.6565,0,0,1-.57-2.3422v-5.2355a4.6152,4.6152,0,0,1,.57-2.3224,3.94,3.94,0,0,1,1.6038-1.5553,5.014,5.014,0,0,1,2.392-.5512,5.07,5.07,0,0,1,2.401.5512,3.924,3.924,0,0,1,1.614,1.5553,4.6154,4.6154,0,0,1,.571,2.3224v5.2355a4.6568,4.6568,0,0,1-.571,2.3422,3.9189,3.9189,0,0,1-1.614,1.5547,5.0569,5.0569,0,0,1-2.401.5512A5.0012,5.0012,0,0,1,175.1175,145.2488Zm3.7109-2.3716a2.0112,2.0112,0,0,0,.4918-1.4071v-5.4323a2.0413,2.0413,0,0,0-.4918-1.4275,1.6961,1.6961,0,0,0-1.3189-.541,1.6717,1.6717,0,0,0-1.2992.541,2.0394,2.0394,0,0,0-.4924,1.4275V141.47a2.0092,2.0092,0,0,0,.4924,1.4071,1.67,1.67,0,0,0,1.2992.5416A1.6945,1.6945,0,0,0,178.8284,142.8772Z"/><path class="cls-2" d="M190.8508,145.4263l-1.9882-5.4323c-.0266-.0526-.0594-.0792-.0984-.0792h-1.24a.087.087,0,0,0-.0984.0984v5.3735a.23.23,0,0,1-.0689.1674.2273.2273,0,0,1-.1674.0689h-2.3031a.2354.2354,0,0,1-.2364-.2363V132.0815a.2356.2356,0,0,1,.2364-.2363h4.8025a4.0731,4.0731,0,0,1,2.0669.5213,3.5531,3.5531,0,0,1,1.3975,1.4665,4.628,4.628,0,0,1,.4918,2.1652,4.1889,4.1889,0,0,1-.5512,2.185,3.3808,3.3808,0,0,1-1.5547,1.3777.0929.0929,0,0,0-.0588.1374l2.2433,5.6494a.2114.2114,0,0,1,.02.0984c0,.1182-.0718.1769-.2165.1769h-2.4016A.2582.2582,0,0,1,190.8508,145.4263Zm-3.4248-11.1009v3.3654a.0865.0865,0,0,0,.0984.0984h1.7118a1.5471,1.5471,0,0,0,1.1816-.4822,1.8079,1.8079,0,0,0,.4523-1.289,1.8375,1.8375,0,0,0-.4523-1.3088,1.5471,1.5471,0,0,0-1.1816-.4822h-1.7118A.0868.0868,0,0,0,187.426,134.3254Z"/><path class="cls-2" d="M196.1707,145.5541a.2252.2252,0,0,1-.069-.1674V132.0815a.2356.2356,0,0,1,.2363-.2363h2.3032a.2356.2356,0,0,1,.2363.2363v5.2356a.0762.0762,0,0,0,.0486.0786c.0328.013.056,0,.069-.04l3.5232-5.3537a.3092.3092,0,0,1,.2758-.1572h2.539a.2047.2047,0,0,1,.1871.0786.1771.1771,0,0,1-.0294.1968l-3.6419,5.6488a.2476.2476,0,0,0,0,.1379l3.8579,7.44a.3074.3074,0,0,1,.04.1176c0,.1057-.0723.1577-.2165.1577h-2.52a.3033.3033,0,0,1-.2753-.1769l-2.7945-5.3933c-.0135-.04-.0333-.0588-.0593-.0588s-.0526.0192-.0786.0588l-.8859,1.2793a.296.296,0,0,0-.039.1182v3.9364a.23.23,0,0,1-.069.1674.2269.2269,0,0,1-.1673.0689H196.338A.2262.2262,0,0,1,196.1707,145.5541Z"/><path class="cls-4" d="M213.7537,145.3a3.6888,3.6888,0,0,1-1.5781-1.3526,3.6449,3.6449,0,0,1-.5586-2.0088v-.51a.2352.2352,0,0,1,.2354-.2354h2.2539a.231.231,0,0,1,.167.0684.227.227,0,0,1,.0683.167v.3721a1.48,1.48,0,0,0,.51,1.1464,1.9661,1.9661,0,0,0,1.3721.461,1.6048,1.6048,0,0,0,1.166-.3916,1.3384,1.3384,0,0,0,.4014-1,1.2178,1.2178,0,0,0-.254-.7744,2.7117,2.7117,0,0,0-.7158-.6075q-.4614-.2841-1.4209-.7744a16.5371,16.5371,0,0,1-1.9209-1.0976,4.6991,4.6991,0,0,1-1.2744-1.3125,3.4527,3.4527,0,0,1-.5283-1.9405,3.6415,3.6415,0,0,1,.5381-1.9892,3.5112,3.5112,0,0,1,1.5195-1.3135,5.6678,5.6678,0,0,1,4.5664.0391,3.73,3.73,0,0,1,2.1563,3.4785v.3926a.2232.2232,0,0,1-.0684.166.2279.2279,0,0,1-.167.0693h-2.2539a.224.224,0,0,1-.166-.0693.22.22,0,0,1-.0693-.166v-.3526a1.5647,1.5647,0,0,0-.4893-1.1767,1.8461,1.8461,0,0,0-1.333-.47,1.5942,1.5942,0,0,0-1.1074.3623,1.2891,1.2891,0,0,0-.4024,1.01,1.3241,1.3241,0,0,0,.2354.7832,2.455,2.455,0,0,0,.7256.6377q.4891.3033,1.4892.7939l.4121.2344a18.2711,18.2711,0,0,1,1.7735,1.0879,4.0027,4.0027,0,0,1,1.0683,1.166,3.2151,3.2151,0,0,1,.4307,1.7061,3.5623,3.5623,0,0,1-1.2051,2.832,4.7094,4.7094,0,0,1-3.2041,1.0488A5.5073,5.5073,0,0,1,213.7537,145.3Z"/><path class="cls-4" d="M230.8934,131.972a.2267.2267,0,0,1,.0684.1669v1.92a.2334.2334,0,0,1-.2354.2353h-2.9785a.0874.0874,0,0,0-.0986.0986V145.388a.2334.2334,0,0,1-.2354.2353h-2.293a.2232.2232,0,0,1-.166-.0683.2279.2279,0,0,1-.0693-.167V134.3928a.0867.0867,0,0,0-.0977-.0986h-2.8808a.2334.2334,0,0,1-.2354-.2353v-1.92a.2336.2336,0,0,1,.2354-.2353h8.8193A.227.227,0,0,1,230.8934,131.972Z"/><path class="cls-4" d="M235.0389,145.2317a3.8945,3.8945,0,0,1-1.5781-1.539,4.5667,4.5667,0,0,1-.5586-2.2832v-9.2706a.2275.2275,0,0,1,.0693-.1669.2232.2232,0,0,1,.166-.0684h2.293a.2336.2336,0,0,1,.2354.2353v9.4073a1.915,1.915,0,0,0,.4707,1.3525,1.798,1.798,0,0,0,2.5087,0,1.9151,1.9151,0,0,0,.4708-1.3525v-9.4073a.2334.2334,0,0,1,.2353-.2353h2.293a.2248.2248,0,0,1,.166.0684.2275.2275,0,0,1,.0693.1669V141.41a4.5667,4.5667,0,0,1-.5586,2.2832,3.8945,3.8945,0,0,1-1.5781,1.539,5.3146,5.3146,0,0,1-4.7041,0Z"/><path class="cls-4" d="M244.4168,145.555a.227.227,0,0,1-.0683-.167V132.1389a.2334.2334,0,0,1,.2353-.2353h4.2139a5.2633,5.2633,0,0,1,2.3223.4892,3.642,3.642,0,0,1,1.5586,1.3917,3.962,3.962,0,0,1,.5488,2.0976v5.7627a3.9566,3.9566,0,0,1-.5488,2.0967,3.63,3.63,0,0,1-1.5586,1.3916,5.25,5.25,0,0,1-2.3223.49h-4.2139A.2254.2254,0,0,1,244.4168,145.555Zm2.793-2.3038,1.6074-.02a1.4842,1.4842,0,0,0,1.1758-.5185,2.1135,2.1135,0,0,0,.4707-1.3819v-5.1357a2.0639,2.0639,0,0,0-.4512-1.4014,1.507,1.507,0,0,0-1.1953-.5195H247.21a.0868.0868,0,0,0-.0977.0986v8.78A.0861.0861,0,0,0,247.21,143.2512Z"/><path class="cls-4" d="M257.7215,145.5354a.2268.2268,0,0,1-.0683-.167v-5.0175l-.02-.1172-3.3906-8.0557a.2661.2661,0,0,1-.0195-.1182c0-.1045.0654-.1562.1963-.1562h2.4687a.2576.2576,0,0,1,.2744.1953l1.8233,4.959q.019.0587.0586.0586c.0263,0,.0459-.0195.0586-.0586l1.8232-4.959a.2584.2584,0,0,1,.2744-.1953h2.47c.0909,0,.1495.0264.1758.0781a.2509.2509,0,0,1,0,.1963l-3.41,8.0557-.02.1172v5.0175a.2334.2334,0,0,1-.2353.2354h-2.293A.227.227,0,0,1,257.7215,145.5354Z"/></svg>