<?xml version="1.0" encoding="UTF-8" standalone="no"?>
<svg
   xmlns:dc="http://purl.org/dc/elements/1.1/"
   xmlns:cc="http://creativecommons.org/ns#"
   xmlns:rdf="http://www.w3.org/1999/02/22-rdf-syntax-ns#"
   xmlns:svg="http://www.w3.org/2000/svg"
   xmlns="http://www.w3.org/2000/svg"
   xmlns:sodipodi="http://sodipodi.sourceforge.net/DTD/sodipodi-0.dtd"
   xmlns:inkscape="http://www.inkscape.org/namespaces/inkscape"
   width="63.147224mm"
   height="31.109217mm"
   viewBox="0 0 63.147224 31.109217"
   version="1.1"
   id="svg8"
   inkscape:version="1.0 (b51213c273, 2020-08-10)"
   sodipodi:docname="logo-uw.svg">
  <defs
     id="defs2" />
  <sodipodi:namedview
     id="base"
     pagecolor="#ffffff"
     bordercolor="#666666"
     borderopacity="1.0"
     inkscape:pageopacity="0.0"
     inkscape:pageshadow="2"
     inkscape:zoom="0.35"
     inkscape:cx="-100.66665"
     inkscape:cy="210.21764"
     inkscape:document-units="mm"
     inkscape:current-layer="layer1"
     inkscape:document-rotation="0"
     showgrid="false"
     inkscape:window-width="1439"
     inkscape:window-height="1023"
     inkscape:window-x="117"
     inkscape:window-y="27"
     inkscape:window-maximized="0"
     fit-margin-top="0"
     fit-margin-left="0"
     fit-margin-right="0"
     fit-margin-bottom="0" />
  <metadata
     id="metadata5">
    <rdf:RDF>
      <cc:Work
         rdf:about="">
        <dc:format>image/svg+xml</dc:format>
        <dc:type
           rdf:resource="http://purl.org/dc/dcmitype/StillImage" />
        <dc:title></dc:title>
      </cc:Work>
    </rdf:RDF>
  </metadata>
  <g
     inkscape:label="Layer 1"
     inkscape:groupmode="layer"
     id="layer1"
     transform="translate(-132.46805,-92.546584)">
    <g
       id="g20"
       transform="matrix(0.03527778,0,0,-0.03527778,132.46805,123.6558)">
      <path
         d="m 174.23,347.305 c 0,-23.953 20.262,-42.239 45.204,-42.239 23.711,0 47.187,17.532 47.187,42.239 v 94.121 l 12.344,12.59 H 240.93 l 12.586,-12.59 v -94.121 c 0,-16.797 -13.34,-30.137 -30.137,-30.137 -17.031,0 -32.102,13.086 -32.102,30.137 v 94.121 l 12.59,12.59 h -42.234 l 12.597,-12.59 z m 170.196,-26.426 v 109.18 L 422.969,308.02 h 4.699 v 133.406 l 12.586,12.59 h -38.027 l 12.586,-12.59 v -92.637 l -65.692,105.227 h -30.137 l 12.344,-12.59 V 320.879 l -12.344,-12.598 h 38.047 z M 486.211,454.016 497.813,442.41 V 319.883 l -11.602,-11.602 h 39.258 l -11.602,11.602 V 442.41 l 11.602,11.606 z m 119.297,0 h -41.25 l 11.855,-11.606 41.016,-134.129 h 7.402 l 42.246,134.129 11.856,11.606 h -35.078 l 11.367,-11.36 -30.879,-100.781 -29.895,100.781 z M 800.645,308.281 v 26.68 L 785.09,319.148 h -44.223 v 61.262 h 32.856 l 11.609,-11.609 v 34.082 L 773.723,391.27 h -32.856 v 51.875 h 44.223 l 15.555,-15.555 v 26.426 H 713.457 L 724.813,442.41 V 319.883 l -11.356,-11.602 z m 71.64,11.602 v 56.328 h 21.973 l 35.332,-67.93 h 24.211 l -11.367,11.602 -32.598,59.785 c 16.297,4.941 27.422,20.254 27.422,34.082 0,24.707 -22.981,40.266 -47.199,40.266 h -45.196 l 11.36,-11.606 V 319.883 l -11.36,-11.602 h 39.024 z m 0,123.262 h 17.774 c 15.578,0 27.921,-13.34 27.921,-29.141 0,-15.066 -12.597,-26.926 -27.921,-26.926 h -17.774 z m 193.405,-94.356 c 0,14.324 -6.67,23.223 -13.59,27.91 l -29.64,21.492 c -10.62,7.649 -16.05,17.539 -16.05,24.954 0,15.312 13.09,20.742 20.99,20.742 4.2,0 7.17,-1.731 9.38,-1.731 l 12.85,-13.836 13.59,20.266 -28.89,5.43 c -1.99,0.496 -3.22,0.742 -6.93,0.742 -25.45,0 -37.048,-21.738 -37.048,-35.82 0,-11.106 5.683,-23.711 18.768,-33.34 L 1039,364.102 c 8.16,-5.684 10.38,-14.082 10.38,-21.243 0,-12.351 -7.65,-25.691 -24.2,-25.691 -3.95,0 -7.41,0.754 -10.13,1.98 l -13.84,16.301 -12.597,-22.722 27.927,-5.43 c 0,0 4.69,-0.996 8.64,-0.996 17.53,0 40.51,14.82 40.51,42.488 m 48.41,105.227 11.6,-11.606 V 319.883 l -11.6,-11.602 h 39.27 l -11.6,11.602 V 442.41 l 11.6,11.606 z m 138.32,-134.133 v 123.262 h 27.67 l 15.56,-15.555 v 26.426 H 1193.14 V 427.59 l 15.82,15.555 h 27.41 V 319.883 L 1225,308.281 h 39.03 z m 83,122.527 36.81,-66.453 v -56.074 l -11.6,-11.602 h 39.26 l -11.61,11.602 v 56.074 l 37.54,66.199 12.11,11.86 h -36.06 l 11.36,-11.36 -30.63,-54.597 -29.15,54.597 11.37,11.36 h -41.26 z m 221.2,-42.137 c -5.32,0 -13.72,-2.453 -22.11,-7.375 -14.13,-8.394 -29.48,-27.429 -29.48,-56.089 0,-14.329 6.76,-30.305 25.79,-30.305 9,0 21.91,5.937 30.51,13.711 13.51,12.297 21.49,33.379 21.49,51.601 0,16.993 -9,28.457 -26.2,28.457 M 1521.6,341.73 c 0,30.282 15.36,46.668 21.7,49.336 1.85,0.809 4.73,1.629 6.77,1.629 10.23,0 16.17,-7.773 16.17,-23.547 0.41,-26.597 -13.51,-50.769 -22.11,-53.628 -1.64,-0.625 -4.31,-1.438 -6.35,-1.438 -11.45,0 -16.18,12.273 -16.18,27.648 m 92.01,53.629 -5.54,-5.32 0.62,-2.051 h 16.99 c -2.66,-18.425 -5.12,-34.394 -9.01,-60.183 -5.52,-38.293 -10.24,-51.809 -14.12,-55.078 -1.23,-1.235 -3.28,-1.836 -5.12,-1.836 -2.46,0 -6.34,1.836 -9.01,3.062 -2.46,1.223 -4.51,-0.203 -5.73,-1.426 -1.64,-1.851 -3.49,-4.714 -3.49,-6.968 0,-4.094 5.33,-6.145 8.81,-6.145 3.88,0 13.71,3.281 22.52,14.121 6.96,8.613 16.38,28.469 24.36,74.738 1.44,8.602 3.08,17.196 6.56,39.715 l 20.87,2.051 4.51,5.32 h -24.16 c 6.14,37.871 11.26,49.336 20.06,49.336 6.15,0 11.25,-2.449 15.77,-6.754 1.43,-1.425 3.69,-1.425 5.73,0.211 1.64,1.426 4.1,4.707 4.1,7.571 0.2,4.093 -5.32,8.601 -12.29,8.601 -11.87,0 -24.36,-6.969 -32.96,-17.207 -7.99,-9.617 -13.31,-25.176 -16.17,-41.758 h -13.3"
         style="fill:#302a83;fill-opacity:1;fill-rule:nonzero;stroke:none"
         id="path22" />
      <path
         d="M 81.0156,4.31641 125.828,146.074 169.316,4.31641 h 9.961 L 236.055,184.59 251.992,200.195 H 204.844 L 220.117,184.922 178.613,49.4648 138.438,184.922 153.711,200.195 H 98.2617 L 113.879,184.59 117.859,171.648 80.3438,49.4648 40.1758,184.922 55.4492,200.195 H 0 L 15.9375,184.59 71.043,4.31641 Z M 275.742,19.5898 290.02,61.0859 h 64.738 L 368.367,19.5898 353.086,4.31641 h 55.461 L 392.93,20.2539 331.855,200.195 h -9.968 L 259.805,20.2539 243.867,4.31641 h 47.149 z M 322.883,156.711 349.785,75.7031 H 295 Z m 214.18,-97.9493 c 0,19.2578 -8.977,31.211 -18.262,37.5274 l -39.848,28.8789 c -14.265,10.281 -21.582,23.57 -21.582,33.523 0,20.586 17.602,27.903 28.227,27.903 5.64,0 9.629,-2.336 12.617,-2.336 l 17.254,-18.594 18.261,27.227 -38.847,7.304 c -2.649,0.664 -4.297,0.996 -9.285,0.996 -34.203,0 -49.797,-29.218 -49.797,-48.132 0,-14.946 7.629,-31.875 25.222,-44.829 l 40.176,-28.8823 c 10.957,-7.6289 13.946,-18.9258 13.946,-28.5547 0,-16.5938 -10.29,-34.5313 -32.54,-34.5313 -5.308,0 -9.949,1.0039 -13.613,2.6641 L 450.398,40.8281 433.477,10.293 470.996,2.98828 c 0,0 6.301,-1.32812 11.609,-1.32812 23.567,0 54.458,19.91014 54.458,57.10154 m 83.32,43.8283 h 82.332 V 19.9219 L 687.117,4.31641 h 52.785 L 724.297,19.9219 V 184.59 l 15.605,15.605 h -52.785 l 15.598,-15.605 v -67.402 h -82.332 v 67.402 l 15.601,15.605 H 583.535 L 598.809,184.59 V 19.9219 L 583.535,4.31641 h 52.449 L 620.383,19.9219 Z M 933.391,21.25 V 167.988 L 1037.57,4.39453 l 7.7,-0.04687 0.01,178.91434 16.93,16.933 h -51.13 l 16.93,-16.933 V 58.7617 L 939.695,200.195 h -40.507 l 16.593,-16.933 V 21.25 L 899.188,4.31641 H 950.32 Z M 1213.06,93.293 V 30.2031 c -4.63,-4.6445 -13.94,-13.9414 -32.19,-13.9414 -43.5,0 -65.41,43.8281 -65.41,85.9843 0,42.5 27.55,85.996 65.41,85.996 9.95,0 17.25,-2.324 23.89,-9.297 l 21.59,-21.242 v 33.86 c -11.62,5.976 -23.24,11.289 -45.48,11.289 -53.46,0 -90.99,-47.813 -90.99,-100.606 0,-51.7851 37.53,-100.58584 90.99,-100.58584 30.2,0 43.14,7.30468 53.77,14.27734 V 93.293 l 15.27,15.605 h -52.45 z M 1355.89,19.9219 V 185.586 h 37.19 l 20.91,-20.918 v 35.527 H 1276.2 v -35.527 l 21.26,20.918 h 36.85 V 19.9219 L 1319.03,4.31641 h 52.46 z m 77.81,82.3241 C 1433.7,52.4609 1461.92,0 1512.05,0 c 50.46,0 78.69,52.4609 78.69,102.246 0,49.817 -28.23,102.266 -78.69,102.266 -50.13,0 -78.35,-52.449 -78.35,-102.266 m 78.35,-87.3046 c -39.16,0 -52.78,46.8164 -52.78,87.3046 0,40.52 13.62,87.332 52.78,87.332 39.51,0 53.13,-46.812 53.13,-87.332 0,-40.4882 -13.62,-87.3046 -53.13,-87.3046 M 1661.18,21.25 V 167.988 L 1764.83,4.21094 h 8.24 V 183.262 l 16.93,16.933 h -51.13 l 16.93,-16.933 V 58.7617 l -88.3,141.4333 h -40.52 l 16.61,-16.933 V 21.25 L 1626.98,4.31641 h 51.15 L 1661.18,21.25"
         style="fill:#302a83;fill-opacity:1;fill-rule:nonzero;stroke:none"
         id="path24" />
      <path
         d="m 792.742,200.195 15.61,-15.605 V 19.9219 L 792.742,4.31641 h 52.785 L 829.922,19.9219 V 184.59 l 15.605,15.605 h -52.785"
         style="fill:#302a83;fill-opacity:1;fill-rule:nonzero;stroke:none"
         id="path26" />
      <path
         d="m 678.563,881.836 v -49.707 h 31.496 L 765.344,610.02 h 77.527 l 36.863,138.996 35.325,-138.996 h 77.558 l 58.343,222.109 h 29.95 v 49.707 H 974.18 v -49.707 h 35.31 L 971.105,687.578 923.496,881.836 H 874.355 L 822.148,686.047 784.531,832.129 h 38.391 v 49.707 H 678.563"
         style="fill:#302a83;fill-opacity:1;fill-rule:nonzero;stroke:none"
         id="path28" />
    </g>
  </g>
</svg>
