<?xml version="1.0" encoding="UTF-8" standalone="no"?>
<svg
   xmlns:dc="http://purl.org/dc/elements/1.1/"
   xmlns:cc="http://creativecommons.org/ns#"
   xmlns:rdf="http://www.w3.org/1999/02/22-rdf-syntax-ns#"
   xmlns:svg="http://www.w3.org/2000/svg"
   xmlns="http://www.w3.org/2000/svg"
   xmlns:sodipodi="http://sodipodi.sourceforge.net/DTD/sodipodi-0.dtd"
   xmlns:inkscape="http://www.inkscape.org/namespaces/inkscape"
   width="255.55048mm"
   height="49.413105mm"
   viewBox="0 0 255.55048 49.413098"
   version="1.1"
   id="svg1884"
   inkscape:version="1.0.1 (3bc2e813f5, 2020-09-07)"
   sodipodi:docname="logo-sfs-new.svg">
  <defs
     id="defs1878">
    <rect
       x="45.706764"
       y="55.667686"
       width="109.41626"
       height="13.28322"
       id="rect3145" />
  </defs>
  <sodipodi:namedview
     id="base"
     pagecolor="#ffffff"
     bordercolor="#666666"
     borderopacity="1.0"
     inkscape:pageopacity="0.0"
     inkscape:pageshadow="2"
     inkscape:zoom="0.54"
     inkscape:cx="624.16686"
     inkscape:cy="212.39165"
     inkscape:document-units="mm"
     inkscape:current-layer="layer1"
     inkscape:document-rotation="0"
     showgrid="false"
     inkscape:window-width="1801"
     inkscape:window-height="1023"
     inkscape:window-x="117"
     inkscape:window-y="27"
     inkscape:window-maximized="0"
     fit-margin-top="0"
     fit-margin-left="0"
     fit-margin-right="0"
     fit-margin-bottom="0"
     units="mm" />
  <metadata
     id="metadata1881">
    <rdf:RDF>
      <cc:Work
         rdf:about="">
        <dc:format>image/svg+xml</dc:format>
        <dc:type
           rdf:resource="http://purl.org/dc/dcmitype/StillImage" />
        <dc:title></dc:title>
      </cc:Work>
    </rdf:RDF>
  </metadata>
  <g
     inkscape:label="Layer 1"
     inkscape:groupmode="layer"
     id="layer1"
     transform="translate(-31.67385,3.7451837)">
    <rect
       width="185.20833"
       height="87.04792"
       style="fill:none;stroke-width:0.264583"
       id="rect846"
       x="15.799406"
       y="-13.285861" />
    <g
       id="g3124"
       transform="matrix(0.81927024,0,0,0.81927024,146.29951,-49.801567)">
      <g
         id="g215"
         style="fill:#005587;fill-rule:nonzero;stroke:none;stroke-width:1"
         transform="matrix(1.1772904,0,0,1.1772904,41.284079,55.90613)">
        <rect
           id="Rectangle"
           x="31.417757"
           y="19.539518"
           width="1"
           height="4.7536569" />
        <path
           d="m 38.747755,22.038876 c 0,0.68001 0.02053,1.31768 0.01411,1.31768 h -0.0077 c -0.0064,0 -0.352836,-0.496535 -0.712086,-0.977675 L 35.92892,19.539518 h -0.517065 v 4.753656 h 0.556839 v -2.49166 c 0,-0.760842 -0.02053,-1.352322 -0.01411,-1.352322 h 0.0077 c 0.0064,0 0.305363,0.43495 0.712086,0.999486 l 2.111881,2.844496 h 0.522196 V 19.539518 H 38.74776 Z"
           id="Path" />
        <path
           d="m 44.33282,21.584681 c -0.632538,-0.191173 -1.290736,-0.354119 -1.290736,-0.876316 0,-0.476007 0.441365,-0.769823 1.066204,-0.769823 0.591481,0 1.086734,0.346421 1.188094,0.923788 l 0.529895,-0.142417 c -0.156531,-0.760842 -0.835258,-1.270208 -1.69746,-1.270208 -0.950731,0 -1.65127,0.550423 -1.65127,1.290736 0,0.821145 0.801899,1.066205 1.345907,1.235566 0.672312,0.210418 1.493456,0.352836 1.493456,1.045676 0,0.495253 -0.428534,0.8699 -1.134205,0.8699 -0.769823,0 -1.229151,-0.488837 -1.297152,-1.039261 l -0.53631,0.142418 c 0.148832,0.801898 0.794201,1.399794 1.812933,1.399794 1.045676,0 1.738517,-0.585065 1.738517,-1.385681 0,-0.92892 -0.903259,-1.227868 -1.567873,-1.424172 z"
           id="path176" />
        <polygon
           id="polygon178"
           points="48.357711,20.062997 49.947395,20.062997 49.947395,24.293174 50.496536,24.293174 50.496536,20.062997 52.092635,20.062997 52.092635,19.539518 48.357711,19.539518 " />
        <rect
           id="rect180"
           x="55.046188"
           y="19.539518"
           width="1"
           height="4.7536569" />
        <polygon
           id="polygon182"
           points="58.555299,20.062997 60.144983,20.062997 60.144983,24.293174 60.694124,24.293174 60.694124,20.062997 62.290223,20.062997 62.290223,19.539518 58.555299,19.539518 " />
        <path
           d="m 68.46292,22.330126 c 0,1.02643 -0.476007,1.539646 -1.399795,1.539646 -0.923787,0 -1.392096,-0.513216 -1.392096,-1.539646 V 19.539518 H 65.11419 v 2.790608 c 0,1.344624 0.706954,2.072106 1.948935,2.072106 1.241981,0 1.955351,-0.727482 1.955351,-2.072106 V 19.545933 H 68.46292 Z"
           id="path184" />
        <polygon
           id="polygon186"
           points="71.842443,20.062997 73.432127,20.062997 73.432127,24.293174 73.981267,24.293174 73.981267,20.062997 75.577367,20.062997 75.577367,19.539518 71.842443,19.539518 " />
        <polygon
           id="polygon188"
           points="79.086477,20.062997 81.620477,20.062997 81.620477,19.539518 78.529638,19.539518 78.529638,24.294457 81.620477,24.294457 81.620477,23.770978 79.086477,23.770978 79.086477,22.024763 81.185527,22.024763 81.185527,21.52951 79.086477,21.52951 " />
        <path
           d="m 36.705158,14.040416 c 0,-0.980241 -0.408006,-1.684629 -1.239415,-1.861689 v -0.01155 c 0.54914,-0.139851 1.141904,-0.769823 1.141904,-1.528099 0,-1.0880161 -0.898127,-1.8950471 -2.218373,-1.8950471 H 31.417757 V 16.2806 h 2.735438 c 1.669233,0 2.551963,-0.948165 2.551963,-2.240184 z M 32.613549,9.756351 h 1.539646 c 0.754426,0 1.259943,0.410572 1.259943,1.026431 0,0.572235 -0.505517,1.034129 -1.259943,1.034129 h -1.539646 z m 1.431871,5.517065 h -1.431871 v -2.535284 h 1.548627 c 0.808314,0 1.30485,0.513215 1.30485,1.270208 0,0.756992 -0.591481,1.265076 -1.421606,1.265076 z"
           id="Shape" />
        <path
           d="m 90.216833,12.178727 v -0.01155 c 0.549141,-0.139851 1.141905,-0.769823 1.141905,-1.528099 0,-1.0880161 -0.898128,-1.8950471 -2.218373,-1.8950471 H 86.168848 V 16.2806 h 2.735437 c 1.66795,0 2.551964,-0.948165 2.551964,-2.240184 0,-0.980241 -0.408007,-1.684629 -1.239416,-1.861689 z M 87.363356,9.756351 h 1.539646 c 0.754426,0 1.259944,0.410572 1.259944,1.026431 0,0.572235 -0.505518,1.034129 -1.259944,1.034129 h -1.539646 z m 1.433154,5.517065 h -1.433154 v -2.535284 h 1.551194 c 0.807031,0 1.304849,0.513215 1.304849,1.270208 0,0.756992 -0.594046,1.265076 -1.422889,1.265076 z"
           id="path191" />
        <path
           d="m 41.698743,13.362972 c 0.958429,-0.355402 1.50757,-1.120093 1.50757,-2.181165 0,-1.4870418 -1.088017,-2.4377731 -2.897101,-2.4377731 H 37.849628 V 16.2806 h 1.194508 v -2.69438 h 1.270208 c 0.0793,0.0022 0.158649,-0.0017 0.237363,-0.01155 l 1.593533,2.703361 h 1.349756 z M 40.450346,12.532846 H 39.039004 V 9.8628433 h 1.411342 c 0.978959,0 1.516552,0.5491407 1.516552,1.3253787 0.0051,0.749294 -0.488838,1.344624 -1.51142,1.344624 z"
           id="path193" />
        <path
           d="m 51.737234,12.512317 c 0,-2.27226 -1.755197,-3.9196816 -3.918399,-3.9196816 -2.163202,0 -3.908134,1.6474216 -3.908134,3.9196816 0,2.272261 1.743649,3.915833 3.908134,3.915833 2.164485,0 3.918399,-1.644855 3.918399,-3.915833 z m -3.918399,2.745702 c -1.551193,0 -2.68155,-1.120092 -2.68155,-2.745702 0,-1.647421 1.130357,-2.7457016 2.68155,-2.7457016 1.551193,0 2.680267,1.0982806 2.680267,2.7457016 0,1.62561 -1.141904,2.745702 -2.680267,2.745702 z"
           id="path195" />
        <polygon
           id="polygon197"
           points="51.643572,8.7440339 51.643572,9.8628433 54.077495,9.8628433 54.077495,16.2806 55.26174,16.2806 55.26174,9.8628433 57.900949,9.8628433 57.22992,8.7440339 " />
        <path
           d="M 73.903002,16.279317 70.721067,8.7440339 h -1.108545 l -3.187067,7.5352831 h 1.283039 l 0.699256,-1.711573 h 3.519374 l 0.699255,1.711573 z m -5.070567,-2.755966 0.973826,-2.355658 c 0.161663,-0.409289 0.343854,-0.980241 0.355402,-0.980241 h 0.01026 c 0.01155,0 0.195022,0.570952 0.355401,0.980241 l 0.969978,2.356941 z"
           id="path199" />
        <path
           d="m 76.021299,10.725045 c 0.01155,0 0.656915,0.936618 1.324095,1.851424 L 80.091096,16.2806 H 81.21632 V 8.7440339 h -1.195792 v 3.2075951 c 0,1.184245 0.03208,2.294073 0.02181,2.294073 h -0.01026 c -0.01155,0 -0.769823,-1.054658 -1.303567,-1.787272 L 75.955863,8.7440339 H 74.835771 V 16.2806 h 1.195792 v -3.197331 c 0,-1.34719 -0.03208,-2.358224 -0.02181,-2.358224 z"
           id="path201" />
        <path
           d="m 95.02951,8.7619965 -3.187067,7.5378495 h 1.283038 l 0.699256,-1.711573 h 3.519374 l 0.700539,1.711573 h 1.283038 L 96.138055,8.7619965 Z m -0.769823,4.7793175 0.968694,-2.356941 c 0.161663,-0.40929 0.343854,-0.980242 0.355402,-0.980242 h 0.0026 c 0.01155,0 0.193738,0.570952 0.355401,0.980242 l 0.969977,2.356941 z"
           id="path203" />
        <polygon
           id="polygon205"
           points="98.480883,8.7440339 98.480883,9.8628433 100.91352,9.8628433 100.91352,16.2806 102.09777,16.2806 102.09777,9.8628433 103.85938,9.8628433 103.03824,8.7440339 " />
        <path
           d="m 109.69977,8.7440339 -1.71286,2.3094691 c -0.19374,0.269438 -0.41955,0.581216 -0.42981,0.581216 h -0.0115 c -0.0103,0 -0.23608,-0.311778 -0.44008,-0.581216 l -1.71286,-2.3094691 h -1.34976 l 2.90737,3.9633051 v 3.574544 h 1.18424 v -3.574544 l 2.90737,-3.9620221 z"
           id="path207" />
        <path
           d="M 65.496536,16.2806 V 8.7440339 h -1.120093 c 0,0 -2.437772,4.1775721 -2.444187,4.1775721 h -0.01027 c -0.01026,0 -2.400564,-4.1775721 -2.400564,-4.1775721 H 58.21144 l 3.398768,5.6735951 h 0.623557 c 0,0 2.122145,-3.670772 2.132409,-3.670772 h 0.01026 c 0.01155,0 -0.05389,5.533743 -0.05389,5.533743 z"
           id="path209" />
        <polygon
           id="polygon211"
           points="59.515011,12.582884 58.347447,10.636515 58.347447,16.279317 59.521427,16.279317 " />
        <path
           d="m 21.780857,15.315756 -0.200154,0.179625 c -0.328154,0.292678 -0.675801,0.562737 -1.040544,0.808314 v 0 l -0.04619,0.03336 c -0.444273,0.299319 -0.912455,0.561518 -1.399795,0.783937 l -0.384912,0.17321 0.322043,0.273287 c 1.462274,1.227893 2.303664,3.041815 2.296639,4.951244 0,0.136002 0,0.270721 -0.01283,0.406724 -0.01283,0.136002 -0.02181,0.273287 -0.03977,0.409289 -0.124394,0.97773 -0.475913,1.912772 -1.026431,2.730305 -0.326004,0.479904 -0.714311,0.914377 -1.154734,1.29202 -0.146266,0.125737 -0.297665,0.24506 -0.454196,0.357967 -1.136348,0.817024 -2.500859,1.256002 -3.900436,1.254812 H 3.5052605 v -9.086477 c 0,-1.556325 1.0969976,-2.797024 2.7290223,-3.088273 2.6584552,-0.472158 5.0320762,-0.458045 7.3518092,-0.443931 0.39261,0 0.769823,0 1.145753,0 5.969977,0 8.135745,-4.852451 8.135745,-8.1139342 -0.0092,-4.333506 -3.522529,-7.84282929 -7.856043,-7.84706186 H 0.01796254 V 14.932127 C 0.47087503,14.162304 1.073903,13.649089 1.6859122,13.232102 2.2413519,12.860432 2.845931,12.568075 3.4821658,12.363485 V 3.7016936 H 14.212215 c 1.302952,0.00542 2.549883,0.5305175 3.464203,1.4588145 0.330916,0.3345843 0.611027,0.7158463 0.831408,1.1316397 0.35954,0.6814976 0.540938,1.4428367 0.527329,2.213241 -0.05631,2.5684472 -2.148692,4.6244112 -4.717731,4.6356172 l -0.701822,0.01155 h -0.33359 c -0.112908,0 -0.224532,0 -0.338722,0 -0.360534,-0.009 -0.70952,-0.01411 -1.053375,-0.0154 H 11.5961 c -0.284835,0 -0.564537,0.003 -0.839107,0.009 l -0.357968,0.009 c -0.220683,0 -0.4362331,0.01411 -0.6492174,0.0231 -0.1552477,0.0064 -0.3079293,0.01411 -0.4593277,0.02309 l -0.3541186,0.02309 c -0.5478573,0.01796 -1.0559405,0.04747 -1.5293816,0.08853 -0.5683859,0.04876 -1.0854503,0.114191 -1.5588914,0.195022 -0.2360791,0.03977 -0.4618938,0.08468 -0.6761612,0.128304 -0.1437003,0.03208 -0.2822684,0.06672 -0.4169874,0.10136 l -0.1988709,0.05517 c -0.1283039,0.03721 -0.2566077,0.0757 -0.3784963,0.116757 C 3.4747026,14.133474 2.8148612,14.474891 2.2260713,14.919297 0.41698743,16.31011 0,18.0961 0,19.545933 v 13.063895 h 14.309725 l 0.266872,-0.01668 v 0 c 3.991454,-0.102675 7.560036,-2.513779 9.144725,-6.178613 1.584689,-3.664834 0.897049,-7.916346 -1.762123,-10.894777 z"
           id="path213" />
      </g>
    </g>
    <g
       fill-rule="nonzero"
       id="g391"
       style="fill:none;stroke:none;stroke-width:1"
       transform="matrix(0.39974827,0,0,0.39974827,132.95683,32.309253)">
      <g
         id="g238"
         transform="matrix(1,0,0,-1,0.815433,24.078843)"
         fill="#88c540">
        <path
           d="M 0,6.388312 C 0,4.4611712 0.34922772,2.6149491 0.98380005,0.90820503 L 3.5135716,7.8629474 C 3.8649288,8.8318414 3.3655757,9.9029484 2.3977465,10.2575 1.6556375,10.524744 0.85390437,10.2937 0.36093963,9.7347228 0.12670152,8.6561628 0,7.5371435 0,6.388312"
           id="path240" />
      </g>
      <g
         id="g242"
         transform="matrix(1,0,0,-1,1.396662,14.030775)"
         fill="#1c7b7e">
        <path
           d="M 2.1294373,1.0647187 C 3.0887489,0.71549095 4.1683736,1.2127146 4.5218602,2.1805438 L 7.3699826,10.007291 C 4.5644489,8.4080833 2.2997923,5.9709423 0.91565806,3.0365777 0.81770394,2.1965146 1.3074745,1.3649693 2.1294373,1.0647187"
           id="path244" />
      </g>
      <g
         id="g246"
         transform="matrix(1,0,0,-1,21.484284,27.039507)"
         fill="#35b5b9">
        <path
           d="M 4.2588747,2.1294373 C 3.9053881,1.1605433 2.8342811,0.66119029 1.8664518,1.0136122 0.89649312,1.3660341 0.39714006,2.4360763 0.74956194,3.4070998 1.1009191,4.374929 2.1730908,4.8753468 3.1419848,4.5218602 4.1119435,4.1694383 4.6091671,3.0972666 4.2588747,2.1294373"
           id="path248" />
      </g>
      <g
         id="g250"
         transform="matrix(1,0,0,-1,19.155318,33.435058)"
         fill="#88c540">
        <path
           d="M 4.2588747,2.1294373 C 3.9053881,1.1573492 2.8268281,0.66119029 1.8664518,1.0125475 0.90607559,1.3607105 0.3992695,2.4350116 0.75169138,3.4039056 L 1.4906061,5.4353888 C 1.8440927,6.4053475 2.914135,6.9025711 3.8819643,6.5522787 4.8508583,6.1987921 5.3502113,5.1276851 4.9967247,4.1577264 Z"
           id="path252" />
      </g>
      <g
         id="g254"
         transform="matrix(1,0,0,-1,23.072099,22.671391)"
         fill="#88c540">
        <path
           d="M 4.2588747,2.1294373 C 3.9064528,1.1605433 2.8278928,0.66331973 1.8685813,1.0114827 0.90714031,1.3617752 0.39820478,2.4360763 0.75062666,3.4049703 L 3.9756595,12.26343 c 0.3524219,0.967829 1.4245936,1.468247 2.3934876,1.115825 0.9678293,-0.352422 1.4671823,-1.423529 1.1158252,-2.393488 z"
           id="path256" />
      </g>
      <g
         id="g258"
         transform="matrix(1,0,0,-1,28.009093,20.886391)"
         fill="#1c7b7e">
        <path
           d="m 4.2588747,3.194156 c 0,1.9175583 -0.3439041,3.754198 -0.9720882,5.4534891 L 1.1211488,2.6937382 C 0.7697916,1.725909 1.2765977,0.65373726 2.2369739,0.3023801 2.8672874,0.07346559 3.5497721,0.20974958 4.0427368,0.60476021 4.1832797,1.4469527 4.2588747,2.312569 4.2588747,3.194156"
           id="path260" />
      </g>
      <g
         id="g262"
         transform="matrix(1,0,0,-1,23.66323,32.11928)"
         fill="#35b5b9">
        <path
           d="M 7.4530307,8.5177494 C 7.6542625,9.4195661 7.1602331,10.353324 6.271193,10.678064 5.302299,11.030485 4.2301273,10.530068 3.8777054,9.5622384 L 0.67716107,0.77405047 C 3.7190623,2.5148655 6.1221324,5.2394806 7.4530307,8.5177494"
           id="path264" />
      </g>
      <g
         id="g266"
         transform="matrix(1,0,0,-1,15.999918,15.095493)"
         fill="#88c540">
        <path
           d="M 4.2588747,2.1294373 C 3.9043234,1.1605433 2.8257633,0.66438445 1.8653871,1.0125475 0.90394615,1.3628399 0.39714006,2.4382058 0.74956194,3.406035 L 3.5519015,11.10608 c 0.3524219,0.968894 1.4245936,1.469312 2.3945523,1.115826 0.9667645,-0.351357 1.4671823,-1.425659 1.112631,-2.3924232 z"
           id="path268" />
      </g>
      <g
         id="g270"
         transform="matrix(1,0,0,-1,9.247685,34.051212)"
         fill="#88c540">
        <path
           d="M 6.388312,13.841343 C 5.419418,14.194829 4.3472463,13.695476 3.9948245,12.726582 L 0.20762014,2.3221514 C 1.309604,1.7653036 2.4850534,1.3340925 3.7169329,1.0476832 L 7.5041372,11.44892 c 0.3524219,0.969959 -0.1490606,2.04213 -1.1158252,2.392423"
           id="path272" />
      </g>
      <g
         id="g274"
         transform="matrix(1,0,0,-1,8.217996,8.797789)"
         fill="#88c540">
        <path
           d="M 2.1294373,1.0647187 C 3.0887489,0.71549095 4.1673089,1.2116498 4.5207955,2.1805438 L 6.1583328,6.6811097 C 4.5910669,6.4649718 3.0962019,6.0177899 1.7120676,5.3757646 L 1.0136122,3.4571415 C 0.66225501,2.4871828 1.1701258,1.4150111 2.1294373,1.0647187"
           id="path276" />
      </g>
      <g
         id="g278"
         transform="matrix(1,0,0,-1,6.89306,13.112029)"
         fill="#35b5b9">
        <path
           d="M 4.2588747,2.1294373 C 3.9043234,1.1594786 2.8342811,0.66012558 1.8664518,1.0136122 0.89755784,1.3660341 0.39607535,2.437141 0.74743251,3.406035 1.1009191,4.3759937 2.1730908,4.8742821 3.1409201,4.5218602 4.1108788,4.1683736 4.6102318,3.0983313 4.2588747,2.1294373"
           id="path280" />
      </g>
      <g
         id="g282"
         transform="matrix(1,0,0,-1,1.91518,26.649606)"
         fill="#35b5b9">
        <path
           d="M 4.2588747,7.4530307 C 3.2995632,7.800129 2.7927571,8.8723007 3.1419848,9.8411947 L 0.60901908,2.8789993 C 0.25766192,1.9101053 0.76446801,0.83793359 1.725909,0.48657643 2.683091,0.13841343 3.7627158,0.63563705 4.1162024,1.6024016 L 6.6512975,8.5667264 C 6.2978109,7.5988971 5.2192509,7.103803 4.2588747,7.4530307"
           id="path284" />
      </g>
      <g
         id="g286"
         transform="matrix(1,0,0,-1,4.307603,20.211572)"
         fill="#88c540">
        <path
           d="M 4.2588747,2.1294373 C 3.9053881,1.1616081 2.8268281,0.66544917 1.8675165,1.0146769 0.90607559,1.3628399 0.40033422,2.437141 0.75062666,3.406035 L 1.7450739,6.1381031 C 2.0985605,7.1080619 3.1707322,7.6063502 4.136432,7.2539283 5.1074555,6.9004417 5.6046791,5.8303994 5.2533219,4.8604407 Z"
           id="path288" />
      </g>
      <g
         id="g290"
         transform="matrix(1,0,0,-1,22.675172,10.259434)"
         fill="#1c7b7e">
        <path
           d="M 4.2588747,2.1294373 4.8678938,3.8010457 C 3.9362649,4.7135096 2.8907112,5.5109838 1.7567858,6.16898 L 0.75169138,3.4081645 C 0.40033422,2.4392705 0.90926974,1.3660341 1.8675165,1.0157416 2.8268281,0.66651389 3.9075175,1.1626728 4.2588747,2.1294373"
           id="path292" />
      </g>
      <g
         id="g294"
         transform="matrix(1,0,0,-1,13.348449,33.417703)"
         fill="#35b5b9">
        <path
           d="M 3.194156,0 C 3.6008786,0 4.0022775,0.02022965 4.4004823,0.05004178 L 4.7965576,1.1371195 C 5.1479148,2.1070782 4.6496264,3.1781852 3.6807324,3.5306071 2.7107737,3.883029 1.6396667,3.3847407 1.2872449,2.414782 L 0.49402946,0.23636755 C 1.3713576,0.08411277 2.2731744,0 3.194156,0"
           id="path296" />
      </g>
      <g
         id="g298"
         transform="matrix(1,0,0,-1,15.48289,30.024019)"
         fill="#1c3a62">
        <path
           d="M 4.2588747,2.1294373 C 3.9075175,1.1605433 2.8257633,0.66544917 1.8664518,1.0168063 0.90607559,1.3628399 0.39607535,2.437141 0.75169138,3.4081645 L 6.3531763,18.805061 c 0.3545513,0.968894 1.4256583,1.468247 2.3934876,1.115825 0.968894,-0.352422 1.4671821,-1.424593 1.1168899,-2.393487 z"
           id="path300" />
      </g>
      <g
         id="g302"
         transform="matrix(1,0,0,-1,14.301372,5.207663)"
         fill="#35b5b9">
        <path
           d="M 1.0647187,3.194156 C 0.81770394,2.2721096 1.3202511,1.2925685 2.2295209,0.96144096 3.1877677,0.61327795 4.2673924,1.1073074 4.6219437,2.0762014 l 0.3364512,0.92737 C 4.0757431,3.1579556 3.1686028,3.2420683 2.2412328,3.2420683 c -0.3960753,0 -0.7878918,-0.019165 -1.1765141,-0.047912"
           id="path304" />
      </g>
      <g
         id="g306"
         transform="matrix(1,0,0,-1,5.476239,31.30328)"
         fill="#1c7b7e">
        <path
           d="M 3.194156,0 5.1234262,5.302299 C 4.7635513,4.3419227 3.6998974,3.8500227 2.736327,4.2003152 1.7663683,4.552737 1.2670152,5.6249087 1.6205018,6.5938027 v 0.00106 L 0.0798539,2.3636755 C 1.0125475,1.453341 2.0581012,0.65799614 3.194156,0"
           id="path308" />
      </g>
      <g
         id="g310"
         transform="matrix(1,0,0,-1,6.345581,28.115831)"
         fill="#88c540">
        <path
           d="M 4.2588747,2.1294373 C 3.9032587,1.1573492 2.8342811,0.66012558 1.8653871,1.0125475 0.8954284,1.3660341 0.39607535,2.4382058 0.75062666,3.406035 1.1019838,4.3759937 2.1730908,4.8742821 3.1409201,4.5229249 4.1108788,4.1694383 4.6102318,3.0983313 4.2588747,2.1294373"
           id="path312" />
      </g>
      <g
         id="g314"
         transform="matrix(1,0,0,-1,7.828521,23.471421)"
         fill="#1c3a62">
        <path
           d="M 9.582468,8.5177494 C 9.2087518,8.6540334 8.8222589,8.6859749 8.4559957,8.6284801 7.9630309,8.5677911 6.9004417,8.5869561 7.3955359,10.168063 h -0.00213 l 2.1294374,5.852759 C 9.874201,16.988651 9.3759126,18.061887 8.4070186,18.413245 7.4381246,18.766731 6.3680824,18.265249 6.013531,17.297419 L 0.84538662,3.0951372 C 0.49190003,2.1273079 1.0008355,1.0508773 1.9601471,0.70271432 2.9205233,0.35242188 3.9990833,0.84858078 4.3536346,1.8174748 l 0.9358878,2.5712956 h 0.00213 C 5.930483,5.92303 6.7620283,5.2426747 7.0974147,4.8817351 7.3412352,4.6038435 7.656392,4.3813173 8.0258493,4.2460981 9.2066224,3.8159517 10.513032,4.4239061 10.941049,5.6046791 11.371195,6.7833226 10.762176,8.0897325 9.582468,8.5177494"
           id="path316" />
      </g>
      <g
         id="g318"
         transform="matrix(1,0,0,-1,41.680506,18.186583)"
         fill="#1c3a62">
        <path
           d="M 0,9.582468 C 0,9.7166226 0.10753659,9.8369358 0.25553248,9.8369358 H 5.8080403 c 0.1469312,0 0.2555325,-0.1203132 0.2555325,-0.2544678 V 8.1206093 c 0,-0.1341546 -0.1086013,-0.2544678 -0.2555325,-0.2544678 H 2.0921722 V 5.9347419 h 3.057872 c 0.1352193,0 0.2555325,-0.121378 0.2555325,-0.2555325 V 4.2173507 c 0,-0.1341546 -0.1203132,-0.2544678 -0.2555325,-0.2544678 H 2.0921722 V 0.70377904 c 0,-0.13521927 -0.1203132,-0.25553248 -0.2544678,-0.25553248 H 0.25553248 C 0.10753659,0.44824656 0,0.56855977 0,0.70377904 Z"
           id="path320" />
      </g>
      <g
         id="g322"
         transform="matrix(1,0,0,-1,50.590605,18.186583)"
         fill="#1c3a62">
        <path
           d="M 0,9.582468 C 0,9.7166226 0.10753659,9.8369358 0.25446776,9.8369358 H 4.265263 c 1.6098546,0 2.9237175,-1.3000215 2.9237175,-2.8970995 0,-1.2340089 -0.8187687,-2.2263267 -1.9846356,-2.6958677 L 7.0409846,0.83793359 c 0.09476,-0.17461386 0,-0.38968703 -0.2278498,-0.38968703 H 5.029731 c -0.1075366,0 -0.1873905,0.0670773 -0.2150732,0.12031321 L 3.0312541,4.1236554 H 2.1060135 V 0.70377904 c 0,-0.13521927 -0.1213779,-0.25553248 -0.2544677,-0.25553248 H 0.25446776 C 0.10753659,0.44824656 0,0.56855977 0,0.70377904 Z M 4.0906491,5.8272053 c 0.5504596,0 1.0200005,0.5100002 1.0200005,1.0732364 0,0.5632362 -0.4695409,1.0189358 -1.0200005,1.0189358 H 2.1060135 V 5.8272053 Z"
           id="path324" />
      </g>
      <g
         id="g326"
         transform="matrix(1,0,0,-1,60.553922,18.186583)"
         fill="#1c3a62">
        <path
           d="M 0,9.582468 C 0,9.7166226 0.10753659,9.8369358 0.25446776,9.8369358 H 5.8069756 c 0.1479959,0 0.2555325,-0.1203132 0.2555325,-0.2544678 V 8.1206093 c 0,-0.1341546 -0.1075366,-0.2544678 -0.2555325,-0.2544678 H 2.0921722 V 6.2019863 h 3.057872 c 0.1352193,0 0.2544678,-0.1203133 0.2544678,-0.2544678 V 4.4856598 C 5.404512,4.3387286 5.2852635,4.231192 5.1500442,4.231192 H 2.0921722 V 2.4201055 h 3.7148034 c 0.1479959,0 0.2555325,-0.1203132 0.2555325,-0.2544677 V 0.70377904 c 0,-0.13521927 -0.1075366,-0.25553248 -0.2555325,-0.25553248 H 0.25446776 C 0.10753659,0.44824656 0,0.56855977 0,0.70377904 Z"
           id="path328" />
      </g>
      <g
         id="g330"
         transform="matrix(1,0,0,-1,69.816549,18.186583)"
         fill="#1c3a62">
        <path
           d="M 0,9.582468 C 0,9.7166226 0.10753659,9.8369358 0.24169114,9.8369358 H 3.5135716 c 2.5893958,0 4.708186,-2.1049488 4.708186,-4.6805033 0,-2.6021724 -2.1187902,-4.70818594 -4.708186,-4.70818594 H 0.24169114 C 0.10753659,0.44824656 0,0.56855977 0,0.70377904 Z M 3.3804818,2.4339469 c 1.5150946,0 2.614949,1.1935496 2.614949,2.7224856 0,1.5150947 -1.0998544,2.709709 -2.614949,2.709709 H 2.0921722 V 2.4339469 Z"
           id="path332" />
      </g>
      <g
         id="g334"
         transform="matrix(1,0,0,-1,84.581003,18.186583)"
         fill="#1c3a62">
        <path
           d="M 0,9.582468 C 0,9.7166226 0.12031321,9.8369358 0.25553248,9.8369358 H 1.8515458 c 0.1469311,0 0.2544677,-0.1203132 0.2544677,-0.2544678 V 6.2019863 H 5.9421949 V 9.582468 c 0,0.1341546 0.1075366,0.2544678 0.2544678,0.2544678 h 1.5960132 c 0.1341546,0 0.2555325,-0.1203132 0.2555325,-0.2544678 V 0.70377904 c 0,-0.13521927 -0.1213779,-0.25553248 -0.2555325,-0.25553248 H 6.1966627 c -0.1469312,0 -0.2544678,0.12031321 -0.2544678,0.25553248 V 4.231192 H 2.1060135 V 0.70377904 c 0,-0.13521927 -0.1075366,-0.25553248 -0.2544677,-0.25553248 H 0.25553248 C 0.12031321,0.44824656 0,0.56855977 0,0.70377904 Z"
           id="path336" />
      </g>
      <g
         id="g338"
         transform="matrix(1,0,0,-1,95.644388,18.186583)"
         fill="#1c3a62">
        <path
           d="M 0,9.582468 C 0,9.7166226 0.12031321,9.8369358 0.25553248,9.8369358 H 1.9047817 c 0.1479959,0 0.2544678,-0.1203132 0.2544678,-0.2544678 V 4.1502734 c 0,-0.9390819 0.6984554,-1.6897085 1.6503139,-1.6897085 0.9656998,0 1.6769319,0.7506266 1.6769319,1.6897085 V 9.582468 c 0,0.1341546 0.1064719,0.2544678 0.2544678,0.2544678 h 1.6492492 c 0.1341545,0 0.2555325,-0.1203132 0.2555325,-0.2544678 V 4.0427368 c 0,-2.0389363 -1.7173912,-3.72864479 -3.8361814,-3.72864479 C 1.7035499,0.31409201 0,2.0038005 0,4.0427368 Z"
           id="path340" />
      </g>
      <g
         id="g342"
         transform="matrix(1,0,0,-1,104.60027,17.774005)"
         fill="#1c3a62">
        <path
           d="M 3.194156,7.4530307 H 1.2765977 c -0.1479959,0 -0.2544678,0.1203132 -0.2544678,0.2544678 v 1.4618587 c 0,0.1341546 0.1064719,0.2555325 0.2544678,0.2555325 h 5.9549715 c 0.1469312,0 0.2544678,-0.1213779 0.2544678,-0.2555325 V 7.7074985 c 0,-0.1341546 -0.1075366,-0.2544678 -0.2544678,-0.2544678 H 5.3129462 V 0.2906682 c 0,-0.13415456 -0.1203132,-0.25446777 -0.2544678,-0.25446777 H 3.4496885 c -0.1352193,0 -0.2555325,0.12031321 -0.2555325,0.25446777 z"
           id="path344" />
      </g>
      <g
         id="g346"
         transform="matrix(1,0,0,-1,113.1325,18.862147)"
         fill="#1c3a62">
        <path
           d="m 5.3235934,10.647187 c 1.3415455,0 2.3338633,-0.416305 3.2463272,-1.2478506 C 8.6902338,9.2928646 8.6902338,9.132092 8.5837619,9.0245554 L 7.5371435,7.9374777 c -0.09476,-0.093695 -0.2416912,-0.093695 -0.3353864,0 -0.4961589,0.442923 -1.1541551,0.6846141 -1.8110865,0.6846141 -1.5150946,0 -2.6287904,-1.2616916 -2.6287904,-2.762945 0,-1.4895414 1.1264724,-2.7235503 2.6426318,-2.7235503 0.6303134,0 1.3138628,0.2278498 1.7972451,0.6441548 0.093695,0.080919 0.2672444,0.080919 0.348163,-0.013841 L 8.5965386,2.6532789 C 8.6902338,2.558519 8.6763925,2.3849698 8.5837619,2.2912746 7.6702333,1.4054286 6.517143,0.99018836 5.3235934,0.99018836 c -2.6830911,0 -4.84234056,2.13263154 -4.84234056,4.81465784 0,2.683091 2.15924946,4.8423408 4.84234056,4.8423408"
           id="path348" />
      </g>
      <g
         id="g350"
         transform="matrix(1,0,0,-1,124.11465,18.186583)"
         fill="#1c3a62">
        <path
           d="M 0,9.582468 C 0,9.7166226 0.12031321,9.8369358 0.25446776,9.8369358 H 1.8515458 c 0.1469311,0 0.2544677,-0.1203132 0.2544677,-0.2544678 V 6.2019863 H 5.9411302 V 9.582468 c 0,0.1341546 0.1075366,0.2544678 0.2555325,0.2544678 h 1.5960132 c 0.1341546,0 0.2544678,-0.1203132 0.2544678,-0.2544678 V 0.70377904 c 0,-0.13521927 -0.1203132,-0.25553248 -0.2544678,-0.25553248 H 6.1966627 c -0.1479959,0 -0.2555325,0.12031321 -0.2555325,0.25553248 V 4.231192 H 2.1060135 V 0.70377904 c 0,-0.13521927 -0.1075366,-0.25553248 -0.2544677,-0.25553248 H 0.25446776 C 0.12031321,0.44824656 0,0.56855977 0,0.70377904 Z"
           id="path352" />
      </g>
      <g
         id="g354"
         transform="matrix(1,0,0,-1,40.427652,27.633833)"
         fill="#1c3a62">
        <path
           d="m 3.194156,5.3235934 c 0.6771611,0 1.165867,-0.2150732 1.6226313,-0.6239252 0.059624,-0.053236 0.059624,-0.1341545 0.00639,-0.1873905 L 4.4143236,4.0895844 c -0.046848,-0.053236 -0.1139249,-0.053236 -0.1682255,0 -0.280021,0.2480795 -0.6558667,0.3960754 -1.0317124,0.3960754 -0.8581633,0 -1.4948651,-0.7176204 -1.4948651,-1.5619423 0,-0.8379336 0.6441549,-1.5491657 1.5023181,-1.5491657 0.4013989,0 0.7442384,0.1543842 1.0242594,0.382234 0.054301,0.046848 0.1277662,0.040459 0.1682255,0 L 4.8295639,1.3277042 C 4.8838645,1.2808566 4.8700232,1.1946143 4.8231756,1.146702 4.367476,0.70484376 3.7914632,0.4961589 3.194156,0.4961589 c -1.3404808,0 -2.42010553,1.0668481 -2.42010553,2.4073289 0,1.3404808 1.07962473,2.4201056 2.42010553,2.4201056"
           id="path356" />
      </g>
      <g
         id="g358"
         transform="matrix(1,0,0,-1,46.675421,27.82825)"
         fill="#1c3a62">
        <path
           d="m 0,5.3235934 c 0,0.067077 0.05962425,0.1267015 0.12776624,0.1267015 h 0.63563705 c 0.0745303,0 0.12776624,-0.059624 0.12776624,-0.1267015 V 2.5819428 c 0,-0.5696245 0.38862227,-1.0189358 0.97208817,-1.0189358 0.5834658,0 0.9784764,0.4493113 0.9784764,1.0114828 v 2.7491036 c 0,0.067077 0.054301,0.1267015 0.1277663,0.1267015 h 0.6367017 c 0.067077,0 0.1277663,-0.059624 0.1277663,-0.1267015 v -2.789563 c 0,-1.0189357 -0.8113156,-1.84302798 -1.8707107,-1.84302798 C 0.81131563,0.69100242 0,1.5150947 0,2.5340304 Z"
           id="path360" />
      </g>
      <g
         id="g362"
         transform="matrix(1,0,0,-1,51.990603,27.82825)"
         fill="#1c3a62">
        <path
           d="m 0,5.3235934 c 0,0.067077 0.05323593,0.1267015 0.12670152,0.1267015 H 2.0442599 c 0.8049273,0 1.4618587,-0.6430901 1.4618587,-1.4405644 0,-0.6175368 -0.4099167,-1.120084 -0.9923178,-1.3543221 L 3.432653,0.95292321 c 0.045783,-0.0873069 0,-0.19484352 -0.1139249,-0.19484352 h -0.703779 c -0.061754,0 -0.09476,0.034071 -0.1086013,0.060689 L 1.6151782,2.5947194 H 0.87093987 V 0.88478122 c 0,-0.0660126 -0.0596242,-0.12670153 -0.12670152,-0.12670153 H 0.12670152 C 0.05323593,0.75807969 0,0.81876866 0,0.88478122 Z M 1.9707943,3.3123398 c 0.355616,0 0.6633197,0.3077037 0.6633197,0.6835494 0,0.355616 -0.3077037,0.6505431 -0.6633197,0.6505431 H 0.87732818 V 3.3123398 Z"
           id="path364" />
      </g>
      <g
         id="g366"
         transform="matrix(1,0,0,-1,57.063988,27.82825)"
         fill="#1c3a62">
        <path
           d="m 0,5.3235934 c 0,0.067077 0.05323593,0.1267015 0.12670152,0.1267015 H 2.8555755 c 0.073466,0 0.1267015,-0.059624 0.1267015,-0.1267015 V 4.7741985 c 0,-0.067077 -0.053236,-0.1277662 -0.1267015,-0.1277662 H 0.87093987 V 3.5465779 H 2.5276421 c 0.066013,0 0.1267016,-0.059624 0.1267016,-0.1267015 V 2.8630285 c 0,-0.073466 -0.060689,-0.1277662 -0.1267016,-0.1277662 H 0.87093987 V 1.563007 H 2.8555755 c 0.073466,0 0.1267015,-0.060689 0.1267015,-0.1277662 V 0.88478122 c 0,-0.0660126 -0.053236,-0.12670153 -0.1267015,-0.12670153 H 0.12670152 C 0.05323593,0.75807969 0,0.81876866 0,0.88478122 Z"
           id="path368" />
      </g>
      <g
         id="g370"
         transform="matrix(1,0,0,-1,60.408908,27.477745)"
         fill="#1c3a62">
        <path
           d="M 1.0647187,1.0647187 1.3064098,1.479959 c 0.053236,0.09476 0.1671608,0.09476 0.2278498,0.046848 0.033006,-0.019165 0.5760128,-0.4152403 1.0114827,-0.4152403 0.3492278,0 0.6111486,0.2278498 0.6111486,0.5163885 0,0.3417747 -0.2885388,0.5760129 -0.851775,0.8038626 C 1.6748025,2.6862852 1.044489,3.0887489 1.044489,3.8808996 c 0,0.5962424 0.442923,1.2861801 1.5087064,1.2861801 0.6835494,0 1.2063262,-0.348163 1.3404808,-0.4493113 0.067077,-0.040459 0.087307,-0.1543842 0.040459,-0.2203967 L 3.6796677,4.1151377 C 3.6253671,4.034219 3.5252835,3.9809831 3.4443649,4.034219 3.391129,4.06829 2.8821934,4.4026117 2.5127361,4.4026117 c -0.382234,0 -0.5898542,-0.2544678 -0.5898542,-0.4684762 0,-0.3151567 0.2480795,-0.5302299 0.791086,-0.7506267 C 3.364511,2.921588 4.1151377,2.5329657 4.1151377,1.6673494 c 0,-0.68993766 -0.5973072,-1.32663942 -1.5427774,-1.32663942 -0.8443219,0 -1.3394161,0.39501062 -1.4746354,0.52277686 -0.059624,0.060689 -0.092631,0.0936953 -0.033006,0.20123186"
           id="path372" />
      </g>
      <g
         id="g374"
         transform="matrix(1,0,0,-1,67.13431,27.477745)"
         fill="#1c3a62">
        <path
           d="M 1.0647187,1.0647187 1.3053451,1.479959 c 0.054301,0.09476 0.1682255,0.09476 0.2289145,0.046848 0.033006,-0.019165 0.5760128,-0.4152403 1.0114827,-0.4152403 0.3492278,0 0.6100838,0.2278498 0.6100838,0.5163885 0,0.3417747 -0.2885387,0.5760129 -0.8507102,0.8038626 C 1.6748025,2.6862852 1.044489,3.0887489 1.044489,3.8808996 c 0,0.5962424 0.442923,1.2861801 1.5076417,1.2861801 0.6846141,0 1.2073909,-0.348163 1.3415455,-0.4493113 0.066013,-0.040459 0.087307,-0.1543842 0.039395,-0.2203967 L 3.6796677,4.1151377 C 3.6253671,4.034219 3.5252835,3.9809831 3.4443649,4.034219 3.391129,4.06829 2.8811287,4.4026117 2.5127361,4.4026117 c -0.382234,0 -0.5898542,-0.2544678 -0.5898542,-0.4684762 0,-0.3151567 0.2470148,-0.5302299 0.7900213,-0.7506267 C 3.364511,2.921588 4.1140729,2.5329657 4.1140729,1.6673494 c 0,-0.68993766 -0.5962424,-1.32663942 -1.5417126,-1.32663942 -0.8443219,0 -1.3404808,0.39501062 -1.4746354,0.52277686 -0.060689,0.060689 -0.093695,0.0936953 -0.033006,0.20123186"
           id="path376" />
      </g>
      <g
         id="g378"
         transform="matrix(1,0,0,-1,71.353044,27.440906)"
         fill="#1c3a62">
        <path
           d="M 2.1294373,4.2588747 H 1.1030485 c -0.073466,0 -0.12670148,0.060689 -0.12670148,0.1277662 v 0.5493949 c 0,0.067077 0.0532359,0.1277662 0.12670148,0.1277662 h 2.9301058 c 0.073466,0 0.1277663,-0.060689 0.1277663,-0.1277662 V 4.3866409 c 0,-0.067077 -0.054301,-0.1277662 -0.1277663,-0.1277662 H 3.0067655 V 0.49828834 c 0,-0.0670773 -0.059624,-0.12776624 -0.1267015,-0.12776624 H 2.2572036 c -0.068142,0 -0.1277663,0.060689 -0.1277663,0.12776624 z"
           id="path380" />
      </g>
      <g
         id="g382"
         transform="matrix(1,0,0,-1,74.886207,27.960701)"
         fill="#1c3a62">
        <path
           d="m 1.0647187,1.0647187 2.0847191,4.511213 c 0.02023,0.040459 0.053236,0.07453 0.1139249,0.07453 H 3.33044 c 0.067077,0 0.093695,-0.034071 0.1139249,-0.07453 L 5.5088544,1.0647187 C 5.5493137,0.97847646 5.4950131,0.89116953 5.3949295,0.89116953 H 4.8125284 c -0.1011483,0 -0.1479959,0.0393946 -0.1948435,0.13308987 L 4.2886868,1.7493328 H 2.2838216 L 1.9558882,1.0242594 C 1.9292702,0.95718209 1.8685813,0.89116953 1.7621094,0.89116953 H 1.1786436 c -0.1011483,0 -0.1543842,0.0873069 -0.1139249,0.17354917 z m 2.89497,1.4277877 -0.669708,1.4757001 H 3.269751 L 2.6128196,2.4925064 Z"
           id="path384" />
      </g>
      <g
         id="g386"
         transform="matrix(1,0,0,-1,81.5802,27.82825)"
         fill="#1c3a62">
        <path
           d="m 0,5.3235934 c 0,0.067077 0.05430065,0.1267015 0.12776624,0.1267015 H 2.0453246 c 0.8038626,0 1.460794,-0.6430901 1.460794,-1.4405644 0,-0.6175368 -0.408852,-1.120084 -0.9923178,-1.3543221 L 3.432653,0.95292321 c 0.046848,-0.0873069 0,-0.19484352 -0.1139249,-0.19484352 h -0.703779 c -0.060689,0 -0.09476,0.034071 -0.1075366,0.060689 L 1.6162429,2.5947194 H 0.87200459 V 0.88478122 c 0,-0.0660126 -0.060689,-0.12670153 -0.12776624,-0.12670153 H 0.12776624 C 0.05430065,0.75807969 0,0.81876866 0,0.88478122 Z M 1.9707943,3.3123398 c 0.355616,0 0.6643844,0.3077037 0.6643844,0.6835494 0,0.355616 -0.3087684,0.6505431 -0.6643844,0.6505431 H 0.8783929 V 3.3123398 Z"
           id="path388" />
      </g>
      <g
         id="g390"
         transform="matrix(1,0,0,-1,85.244535,27.440906)"
         fill="#1c3a62">
        <path
           d="M 2.1294373,4.2588747 H 1.1030485 c -0.073466,0 -0.1277662,0.060689 -0.1277662,0.1277662 v 0.5493949 c 0,0.067077 0.0543006,0.1277662 0.1277662,0.1277662 h 2.9301058 c 0.07453,0 0.1277663,-0.060689 0.1277663,-0.1277662 V 4.3866409 c 0,-0.067077 -0.053236,-0.1277662 -0.1277663,-0.1277662 H 3.0078303 V 0.49828834 c 0,-0.0670773 -0.060689,-0.12776624 -0.1277663,-0.12776624 H 2.2572036 c -0.067077,0 -0.1277663,0.060689 -0.1277663,0.12776624 z"
           id="path392" />
      </g>
      <g
         id="g394"
         transform="matrix(1,0,0,-1,93.204266,27.82825)"
         fill="#1c3a62">
        <path
           d="m 0,5.3235934 c 0,0.067077 0.06068896,0.1267015 0.12776624,0.1267015 h 0.62286042 c 0.0745303,0 0.12776624,-0.059624 0.12776624,-0.1267015 V 3.5465779 h 2.1858674 v 1.7770155 c 0,0.067077 0.053236,0.1267015 0.1267016,0.1267015 H 3.807434 c 0.067077,0 0.1277662,-0.059624 0.1277662,-0.1267015 V 0.88478122 c 0,-0.0660126 -0.060689,-0.12670153 -0.1277662,-0.12670153 H 3.1909619 c -0.073466,0 -0.1267016,0.060689 -0.1267016,0.12670153 V 2.7352623 H 0.8783929 V 0.88478122 c 0,-0.0660126 -0.0532359,-0.12670153 -0.12776624,-0.12670153 H 0.12776624 C 0.06068896,0.75807969 0,0.81876866 0,0.88478122 Z"
           id="path396" />
      </g>
      <g
         id="g398"
         transform="matrix(1,0,0,-1,98.995803,27.82825)"
         fill="#1c3a62">
        <path
           d="m 0,5.3235934 c 0,0.067077 0.05430065,0.1267015 0.12776624,0.1267015 H 2.8555755 c 0.073466,0 0.1277662,-0.059624 0.1277662,-0.1267015 V 4.7741985 c 0,-0.067077 -0.054301,-0.1277662 -0.1277662,-0.1277662 H 0.87200459 V 3.5465779 H 2.5276421 c 0.067077,0 0.1267016,-0.059624 0.1267016,-0.1267015 V 2.8630285 c 0,-0.073466 -0.059624,-0.1277662 -0.1267016,-0.1277662 H 0.87200459 V 1.563007 H 2.8555755 c 0.073466,0 0.1277662,-0.060689 0.1277662,-0.1277662 V 0.88478122 c 0,-0.0660126 -0.054301,-0.12670153 -0.1277662,-0.12670153 H 0.12776624 C 0.05430065,0.75807969 0,0.81876866 0,0.88478122 Z"
           id="path400" />
      </g>
      <g
         id="g402"
         transform="matrix(1,0,0,-1,103.73093,27.82825)"
         fill="#1c3a62">
        <path
           d="m 0,5.3235934 c 0,0.067077 0.05430065,0.1267015 0.12776624,0.1267015 H 2.0453246 c 0.8038626,0 1.460794,-0.6430901 1.460794,-1.4405644 0,-0.6175368 -0.408852,-1.120084 -0.9923178,-1.3543221 L 3.432653,0.95292321 c 0.046848,-0.0873069 0,-0.19484352 -0.1139249,-0.19484352 h -0.703779 c -0.060689,0 -0.09476,0.034071 -0.1075366,0.060689 L 1.6162429,2.5947194 H 0.87200459 V 0.88478122 c 0,-0.0660126 -0.060689,-0.12670153 -0.12776624,-0.12670153 H 0.12776624 C 0.05430065,0.75807969 0,0.81876866 0,0.88478122 Z M 1.9707943,3.3123398 c 0.355616,0 0.6643844,0.3077037 0.6643844,0.6835494 0,0.355616 -0.3087684,0.6505431 -0.6643844,0.6505431 H 0.8783929 V 3.3123398 Z"
           id="path404" />
      </g>
      <g
         id="g406"
         transform="matrix(1,0,0,-1,108.77216,27.82825)"
         fill="#1c3a62">
        <path
           d="m 0,5.3235934 c 0,0.067077 0.05323593,0.1267015 0.12670152,0.1267015 H 2.8555755 c 0.073466,0 0.1267015,-0.059624 0.1267015,-0.1267015 V 4.7741985 c 0,-0.067077 -0.053236,-0.1277662 -0.1267015,-0.1277662 H 0.87093987 V 3.5465779 H 2.5276421 c 0.066013,0 0.1267016,-0.059624 0.1267016,-0.1267015 V 2.8630285 c 0,-0.073466 -0.060689,-0.1277662 -0.1267016,-0.1277662 H 0.87093987 V 1.563007 H 2.8555755 c 0.073466,0 0.1267015,-0.060689 0.1267015,-0.1277662 V 0.88478122 c 0,-0.0660126 -0.053236,-0.12670153 -0.1267015,-0.12670153 H 0.12670152 C 0.05323593,0.75807969 0,0.81876866 0,0.88478122 Z"
           id="path408" />
      </g>
      <g
         id="g410"
         transform="matrix(1,0,0,-1,111.96642,24.743547)"
         fill="#1c3a62">
        <path
           d="M 1.0647187,2.1294373 H 0.7016496 c -0.0244885,0 -0.0425887,0.02023 -0.0425887,0.042589 v 0.1245721 c 0,0.022359 0.0181002,0.042589 0.0425887,0.042589 h 0.9582468 c 0.024488,0 0.042589,-0.02023 0.042589,-0.042589 V 2.1720261 c 0,-0.022359 -0.0181,-0.042589 -0.042589,-0.042589 H 1.2968273 V 0.82089809 c 0,-0.0223591 -0.02023,-0.041524 -0.042589,-0.041524 H 1.1073074 c -0.022359,0 -0.042589,0.0191649 -0.042589,0.041524 z"
           id="path412" />
      </g>
      <g
         id="g414"
         transform="matrix(1,0,0,-1,113.14464,24.545084)"
         fill="#1c3a62">
        <path
           d="m 1.0647187,2.1294373 c 0.00426,0.0181 0.021294,0.033006 0.039395,0.033006 h 0.0362 c 0.013841,0 0.033006,-0.010647 0.037265,-0.024488 L 1.6439256,0.99977083 h 0.00958 L 2.1166607,2.1379551 c 0.00426,0.013841 0.022359,0.024488 0.037265,0.024488 h 0.0362 c 0.0181,0 0.035136,-0.014906 0.040459,-0.033006 L 2.5042183,0.63137817 c 0.00639,-0.0308768 -0.00852,-0.0511065 -0.039395,-0.0511065 h -0.145866 c -0.019165,0 -0.037265,0.0159708 -0.042589,0.0308768 L 2.1124018,1.6077252 h -0.00745 L 1.7046146,0.58240111 c -0.00532,-0.0127766 -0.0181,-0.0244885 -0.03833,-0.0244885 h -0.040459 c -0.017035,0 -0.033006,0.0117119 -0.037265,0.0244885 L 1.1850319,1.6077252 h -0.00958 L 1.0157416,0.61114852 C 1.0136122,0.59624246 0.99338252,0.58027168 0.9752823,0.58027168 H 0.83048056 c -0.0319416,0 -0.0468476,0.0202297 -0.0425887,0.0511065 z"
           id="path416" />
      </g>
    </g>
    <g
       transform="matrix(0.39974827,0,0,0.39974827,195.58986,33.763329)"
       fill-rule="nonzero"
       id="g681"
       style="fill:none;stroke:none;stroke-width:1">
      <path
         d="m 15.212563,19.98491 c -0.0093,-0.201762 0.105428,-0.388781 0.289473,-0.471975 0.184044,-0.08319 0.400216,-0.04574 0.545546,0.09452 0.14533,0.14026 0.190431,0.354966 0.113822,0.541848 -0.07661,0.186881 -0.25944,0.308149 -0.461404,0.306041 -0.263909,0.0032 -0.481246,-0.206578 -0.487437,-0.470433 m 10.479892,-7.441914 c 0,-0.294729 -0.05668,-0.787833 -0.05668,-0.787833 C 24.913362,5.1111057 19.118709,0.1936683 12.44564,0.56179602 5.7725707,0.92992375 0.5539873,6.4549192 0.566787,13.138123 c -0.0314117,2.414192 0.6593986,4.782684 1.9837545,6.801444 0.085018,0.130361 0.221047,0.124693 0.2267148,-0.03401 0,0 0,-0.09635 0,-0.09635 0.0173,-0.29135 0.1069054,-0.573801 0.260722,-0.821841 0.1517069,-0.238593 0.3625895,-0.433855 0.61213,-0.566787 0.1565434,-0.08521 0.3318751,-0.130021 0.5101083,-0.130361 0.1682524,0.01088 0.3288402,0.07432 0.4590975,0.181371 0.3003971,0.243719 0.7991696,0.714152 1.0825632,0.935199 0.497153,0.403881 1.0461463,0.739377 1.6323465,0.997545 0.6069985,0.272801 1.2319179,0.503832 1.8703971,0.69148 0,0.102022 -0.3684115,0.844513 -2.1254512,0.07368 -0.633778,-0.293172 -1.2295081,-0.662411 -1.7740434,-1.099567 -0.3003971,-0.232383 -0.4817689,-0.45343 -0.827509,-0.714152 -0.2768136,-0.147592 -0.6186642,-0.08671 -0.827509,0.147365 -0.521444,0.510108 -0.6064621,1.700361 1.4509747,3.327039 0.5289647,0.426521 1.0835657,0.820231 1.6606859,1.178917 3.4554621,2.027591 7.6699621,2.288424 11.3490701,0.70239 3.679107,-1.586035 6.383003,-4.829335 7.281219,-8.733761 0.10131,-0.484372 0.145067,-0.979012 0.130361,-1.473647 0,-0.08502 -0.04534,-0.147364 -0.130361,-0.170036 0.02834,0 -0.668809,-0.175704 -1.57,0.895524 -0.419423,0.470433 -0.770831,1.246931 -1.286607,1.978086 -0.519947,0.776618 -1.10388,1.50843 -1.745704,2.187798 -1.297942,1.354621 -2.969964,2.584549 -4.494621,2.561877 -0.497409,0.05242 -0.985208,-0.163416 -1.280938,-0.566787 -0.238051,-0.351407 -0.113358,-0.459097 0,-0.362743 0.06145,0.06915 0.129821,0.131824 0.204043,0.18704 0.30531,0.20279 0.674038,0.287416 1.03722,0.23805 1.354621,-0.05101 2.918953,-1.22426 4.12621,-2.578881 0.594079,-0.679119 1.132384,-1.405074 1.609675,-2.170794 0.481769,-0.714152 0.782166,-1.467978 1.286606,-2.080108 0.436207,-0.580567 1.09653,-0.950841 1.819386,-1.020217 0.06517,0.01568 0.132713,-0.0146 0.164369,-0.07368 0.01927,-0.03933 0.01927,-0.08536 0,-0.124693 -2.658231,-4.7213361 -8.467798,2.52787 -12.837726,2.941624 C 6.6144043,16.912924 5.361805,12.446643 5.7018773,9.941444 6.1893141,6.4613718 8.9665704,3.6274368 13.262816,3.3440433 c 5.424152,-0.3514079 8.03704,2.9472924 8.348772,3.927834 0.240709,0.5836166 0.290315,1.2284929 0.141697,1.8420577 -0.153032,0.8445127 -1.354621,2.040433 -1.893068,2.539206 -0.124694,0.130361 0.03968,0.09069 0.09069,0.07368 0.540063,-0.264969 1.094486,-0.499605 1.660685,-0.702816 0.413755,-0.136029 0.850181,-0.255054 1.06556,-0.357076 0.137332,-0.08023 0.268101,-0.171199 0.391083,-0.272057 0.105077,-0.08752 0.257667,-0.08752 0.362744,0 0.136029,0.102021 0.130361,0.283393 0.23805,0.419422 0.0912,0.109345 0.202865,0.199834 0.328737,0.26639 0.639769,0.376828 1.190743,0.887204 1.615343,1.496318 v 0 c 0.07368,0.130361 0.07935,0 0.07935,-0.02834"
         id="Shape-3"
         fill="#018390" />
      <path
         d="m 14.169675,7.9010108 v 0 0 c -0.0091,0.2249745 -0.194263,0.4026039 -0.419422,0.4024188 -0.158331,0.018627 -0.31328,-0.055369 -0.398319,-0.190217 -0.08504,-0.1348484 -0.08504,-0.3065588 0,-0.4414071 0.08504,-0.1348484 0.239988,-0.2088441 0.398319,-0.1902171 0.23164,0 0.419422,0.1877818 0.419422,0.4194224 M 19.45213,6.3820217 C 18.816395,5.782732 18.082025,5.2976259 17.281336,4.9480505 16.154765,4.5462264 14.968961,4.335502 13.772924,4.3245848 12.434203,4.3471811 11.121115,4.6953926 9.9471119,5.3391336 8.5318977,6.1661029 7.4827649,7.4987851 7.0111552,9.0685921 6.4399935,10.748921 6.8215276,12.606732 8.0087004,13.925957 c 0.9460444,0.95853 2.2605886,1.460786 3.6047656,1.377292 1.130111,-0.05029 2.230233,-0.379357 3.202346,-0.95787 0,0 3.502744,-1.825054 4.296246,-2.221805 0.05668,-0.04534 0,-0.07368 -0.04534,-0.08502 -0.646137,-0.03967 -1.655018,0 -1.808051,0 -0.378292,-0.01983 -0.757593,-0.0066 -1.133574,0.03968 -0.253994,0.01656 -0.494376,0.120726 -0.680144,0.294729 -0.0697,0.08298 -0.145478,0.160659 -0.226715,0.232383 -0.08974,0.110806 -0.236806,0.157599 -0.374079,0.119025 -0.124693,0 -0.181372,-0.130361 -0.317401,-0.328736 -0.114791,-0.159546 -0.269093,-0.286503 -0.447762,-0.368412 -0.349972,-0.137572 -0.723583,-0.204976 -1.099567,-0.198375 -0.47214,-6.37e-4 -0.941207,0.07595 -1.388628,0.226715 v 0 c -0.175704,0.04534 -0.07368,0.09635 0,0.124693 h 0.06801 c 0.156648,0.06841 0.293218,0.175718 0.396751,0.311733 0.156052,0.249008 0.191454,0.555124 0.09635,0.833176 -0.08418,0.183676 -0.227998,0.333487 -0.408086,0.425091 -0.225491,0.08191 -0.470471,0.09376 -0.702816,0.03401 -0.360184,-0.09186 -0.652445,-0.354473 -0.782166,-0.702816 -0.08766,-0.255295 -0.08766,-0.532538 0,-0.787834 0.03401,-0.08502 -0.07368,-0.03967 -0.07368,-0.03967 l -0.164369,0.06235 c -0.2231203,0.07081 -0.4626915,0.07081 -0.685812,0 v 0 C 9.113278,12.238658 8.9211639,12.094077 8.7851986,11.902527 8.7058421,11.785313 8.6393338,11.659898 8.5868231,11.528448 c -0.014433,-0.05384 -0.014433,-0.11053 0,-0.164369 0.027159,-0.07251 0.079455,-0.132847 0.1473646,-0.170036 0.1544821,-0.0691 0.3040817,-0.148633 0.4477618,-0.23805 0.2516958,-0.150456 0.4839324,-0.331296 0.6914801,-0.538448 0.1929084,-0.189672 0.3503124,-0.412341 0.4647654,-0.6574728 0.1587,0 0.340072,0.4420938 -0.06801,0.9068588 -0.161875,0.191518 -0.3531967,0.356055 -0.5667875,0.487437 -0.1012163,0.06982 -0.207286,0.132323 -0.3174007,0.18704 -0.096354,0.04534 -0.2437184,0.124693 -0.1587004,0.26639 0.2135782,0.317496 0.6211708,0.440722 0.9748736,0.294729 0.251378,-0.07016 0.493142,-0.171052 0.71982,-0.300397 0.300397,-0.170036 0.442093,-0.243718 0.510108,-0.277726 0.0316,-0.02145 0.0659,-0.0386 0.102022,-0.05101 0.638335,-0.21265 1.316425,-0.278521 1.983754,-0.192707 1.31597,0.255064 2.662183,0.316169 3.995848,0.181372 0.783594,-0.07867 1.526718,-0.386169 2.136787,-0.884188 0.131965,-0.101016 0.256944,-0.210846 0.37408,-0.328736 0,-0.1303614 -0.272058,-0.2267152 -0.810506,-0.1983759 -0.759494,0.039675 -1.774043,0.2380509 -2.833935,0.2437189 -0.973023,0.08122 -1.950307,-0.094687 -2.833935,-0.5101088 -0.313392,-0.1829256 -0.544662,-0.4791133 -0.646137,-0.827509 -0.06801,-0.260722 0.03968,-0.3684115 0.06235,-0.3570758 0.139295,0.3579236 0.411368,0.6482695 0.759494,0.8105054 0.857137,0.3355493 1.785273,0.4486414 2.697906,0.3287365 1.003214,-0.062347 1.898737,-0.2153791 2.680903,-0.2890614 0.388077,-0.074507 0.790004,-0.00819 1.133574,0.1870397 0.03433,0.037145 0.08261,0.058267 0.133195,0.058267 0.05058,0 0.09886,-0.021122 0.133195,-0.058267 L 20.602708,9.2669675 C 20.976787,8.6038267 20.472347,7.328556 19.469134,6.4330325"
         id="path589"
         fill="#fe7d1f" />
      <polygon
         id="Path-6"
         fill="#54585f"
         points="35.282491,20.013249 35.282491,23.238267 34.715704,23.238267 34.715704,21.872311 33.174043,21.872311 33.174043,23.238267 32.607256,23.238267 32.612924,20.013249 33.179711,20.013249 33.179711,21.350866 34.715704,21.350866 34.715704,20.013249 " />
      <path
         d="m 37.028195,21.628592 v 0 c 0.127798,-0.829297 0.841437,-1.441385 1.680523,-1.441385 0.839087,0 1.552726,0.612088 1.680524,1.441385 v 0 c 0.0032,0.448872 -0.175982,0.879807 -0.49658,1.193993 -0.320599,0.314187 -0.755067,0.484671 -1.203781,0.472361 -0.444253,0.0094 -0.873024,-0.163299 -1.186694,-0.478039 -0.313669,-0.31474 -0.48493,-0.744097 -0.473992,-1.188315 z m 2.76592,0 v 0 c 0,-0.601013 -0.487217,-1.088231 -1.08823,-1.088231 -0.601014,0 -1.088232,0.487218 -1.088232,1.088231 v 0 c -0.0092,0.296489 0.101825,0.584109 0.307806,0.79756 0.205981,0.213452 0.489466,0.334627 0.786093,0.336015 0.296175,3.28e-4 0.579551,-0.120703 0.784103,-0.334894 0.204552,-0.214191 0.312417,-0.502835 0.29846,-0.798681 z"
         id="path592"
         fill="#54585f" />
      <path
         d="m 41.896895,22.756498 0.340072,-0.402419 c 0.272829,0.263299 0.635441,0.413206 1.014549,0.419423 0.351408,0 0.566787,-0.164368 0.566787,-0.402419 v 0 c 0,-0.232383 -0.130361,-0.351408 -0.725487,-0.493105 -0.685812,-0.164368 -1.071228,-0.368411 -1.071228,-0.95787 v 0 c 0.01217,-0.27309 0.137781,-0.528705 0.346543,-0.705184 0.208762,-0.176479 0.481718,-0.2578 0.753024,-0.224346 0.42444,-0.0075 0.837922,0.134967 1.167581,0.402418 l -0.306064,0.425091 C 43.735615,20.615802 43.428937,20.5003 43.109819,20.48935 c -0.328736,0 -0.521444,0.170036 -0.521444,0.379747 v 0 c 0,0.249387 0.147365,0.357076 0.759495,0.504441 0.61213,0.147364 1.03722,0.408086 1.03722,0.940866 v 0 c 0,0.600795 -0.476101,0.95787 -1.133574,0.95787 -0.500535,0.0057 -0.984606,-0.178646 -1.354621,-0.515776 z"
         id="path594"
         fill="#54585f" />
      <path
         d="m 46.198809,20.013249 h 1.269603 c 0.308785,-0.04077 0.62017,0.05344 0.854571,0.258538 0.234401,0.205101 0.369107,0.501225 0.369689,0.812689 v 0 c -0.0067,0.323189 -0.151118,0.628131 -0.39686,0.838149 -0.245742,0.210017 -0.569457,0.305128 -0.889747,0.261418 h -0.640469 v 1.054224 h -0.566787 z m 1.22426,1.672022 c 0.42509,0 0.69148,-0.238051 0.69148,-0.566787 v 0 c 0,-0.37408 -0.26639,-0.566787 -0.69148,-0.566787 h -0.657473 v 1.133574 z"
         id="path596"
         fill="#54585f" />
      <polygon
         id="polygon598"
         fill="#54585f"
         points="51.01083,20.013249 51.01083,23.238267 50.444043,23.238267 50.444043,20.013249 " />
      <polygon
         id="polygon600"
         fill="#54585f"
         points="52.790542,20.534693 52.790542,20.013249 55.397762,20.013249 55.397762,20.534693 54.377545,20.534693 54.377545,23.238267 53.810758,23.238267 53.810758,20.534693 " />
      <path
         d="m 57.868953,19.990578 h 0.510108 l 1.416968,3.236353 h -0.600794 l -0.323069,-0.776498 h -1.518989 l -0.323069,0.787834 h -0.566787 z m 0.810506,1.961083 -0.566788,-1.286607 -0.566787,1.286607 z"
         id="path602"
         fill="#54585f" />
      <polygon
         id="polygon604"
         fill="#54585f"
         points="61.502058,23.238267 61.502058,20.013249 62.068845,20.013249 62.068845,22.711155 63.769206,22.711155 63.769206,23.238267 " />
      <path
         d="m 66.812852,21.600253 v 0 c 0.02629,-0.238415 0.22774,-0.418875 0.467599,-0.418875 0.23986,0 0.441311,0.18046 0.4676,0.418875 v 0 c -0.02629,0.238414 -0.22774,0.418874 -0.4676,0.418874 -0.239859,0 -0.441311,-0.18046 -0.467599,-0.418874 z"
         id="path606"
         fill="#54585f" />
      <path
         d="m 71.256462,20.013249 h 1.433971 c 0.338666,-0.01947 0.671134,0.09679 0.923863,0.323069 0.17852,0.185069 0.274601,0.434473 0.26639,0.69148 v 0 c 0.02068,0.470508 -0.303736,0.886246 -0.765163,0.980541 l 0.867185,1.229928 h -0.663141 l -0.77083,-1.133574 h -0.708484 v 1.133574 h -0.566787 z m 1.388628,1.592672 c 0.408087,0 0.663141,-0.209712 0.663141,-0.538448 v 0 c 0,-0.34574 -0.249386,-0.53278 -0.668809,-0.53278 h -0.821841 v 1.076895 z"
         id="path608"
         fill="#54585f" />
      <polygon
         id="polygon610"
         fill="#54585f"
         points="77.899206,21.356534 77.899206,21.860975 76.289531,21.860975 76.289531,22.722491 78.131588,22.722491 78.131588,23.238267 75.722744,23.238267 75.722744,20.013249 78.103249,20.013249 78.103249,20.517689 76.289531,20.517689 76.289531,21.356534 " />
      <path
         d="M 79.729928,22.756498 80.07,22.354079 c 0.272191,0.264271 0.635205,0.414345 1.014549,0.419423 0.351408,0 0.566787,-0.164368 0.566787,-0.402419 v 0 c 0,-0.232383 -0.130361,-0.351408 -0.725488,-0.493105 -0.685812,-0.164368 -1.071227,-0.368411 -1.071227,-0.95787 v 0 c 0.01217,-0.27309 0.137781,-0.528705 0.346543,-0.705184 0.208762,-0.176479 0.481717,-0.2578 0.753024,-0.224346 0.413192,-0.002 0.81411,0.14036 1.133574,0.402418 l -0.300397,0.425091 C 81.540308,20.615802 81.23363,20.5003 80.914513,20.48935 c -0.328737,0 -0.527112,0.170036 -0.527112,0.379747 v 0 c 0,0.249387 0.147364,0.357076 0.765162,0.504441 0.617798,0.147364 1.031553,0.408086 1.031553,0.940866 v 0 c 0,0.600795 -0.470434,0.95787 -1.133575,0.95787 -0.488812,-0.0028 -0.959258,-0.186583 -1.320613,-0.515776 z"
         id="path612"
         fill="#54585f" />
      <polygon
         id="polygon614"
         fill="#54585f"
         points="86.208303,21.356534 86.208303,21.860975 84.598628,21.860975 84.598628,22.722491 86.440686,22.722491 86.440686,23.238267 84.031841,23.238267 84.031841,20.013249 86.418014,20.013249 86.418014,20.517689 84.598628,20.517689 84.598628,21.356534 " />
      <path
         d="m 89.393646,19.990578 h 0.527112 l 1.4113,3.247689 h -0.566787 l -0.323069,-0.776498 h -1.524657 l -0.357076,0.776498 h -0.566787 z m 0.810506,1.961083 -0.566787,-1.286607 -0.566787,1.286607 z"
         id="path616"
         fill="#54585f" />
      <path
         d="m 93.032419,20.013249 h 1.433971 c 0.338666,-0.01947 0.671134,0.09679 0.923863,0.323069 0.180037,0.184495 0.278112,0.433769 0.272058,0.69148 v 0 c 0.01451,0.468057 -0.311519,0.877991 -0.770831,0.969206 l 0.895524,1.241263 h -0.663141 l -0.793502,-1.133574 h -0.702816 v 1.133574 h -0.566787 z m 1.388628,1.592672 c 0.408087,0 0.663141,-0.209712 0.663141,-0.538448 v 0 c 0,-0.34574 -0.249387,-0.53278 -0.663141,-0.53278 h -0.821841 v 1.076895 z"
         id="path618"
         fill="#54585f" />
      <path
         d="m 97.357004,21.628592 v 0 c -0.0093,-0.442244 0.16187,-0.869211 0.474117,-1.182528 0.312248,-0.313317 0.738628,-0.485962 1.180901,-0.478158 0.472319,-0.01662 0.930248,0.164086 1.263938,0.498773 l -0.362747,0.419422 c -0.235905,-0.246515 -0.560069,-0.389229 -0.901191,-0.396751 -0.292745,0.0042 -0.571155,0.127441 -0.771111,0.341298 -0.199956,0.213857 -0.304221,0.499909 -0.288781,0.792276 v 0 c -0.01225,0.291535 0.09309,0.575776 0.292376,0.788915 0.199284,0.213139 0.475816,0.337318 0.767516,0.344659 0.351848,-0.0046 0.686179,-0.154285 0.923862,-0.413754 l 0.362746,0.362743 c -0.328411,0.376996 -0.809645,0.585323 -1.30928,0.566787 -0.436312,0.0047 -0.855952,-0.167387 -1.163419,-0.47699 -0.307468,-0.309602 -0.476607,-0.730423 -0.468927,-1.166692 z"
         id="path620"
         fill="#54585f" />
      <polygon
         id="polygon622"
         fill="#54585f"
         points="104.69123,20.013249 104.69123,23.238267 104.12444,23.238267 104.12444,21.872311 102.58845,21.872311 102.58845,23.238267 102.02166,23.238267 102.02166,20.013249 102.58845,20.013249 102.58845,21.350866 104.12444,21.350866 104.12444,20.013249 " />
      <path
         d="m 108.40368,21.600253 v 0 c -2e-5,-0.254486 0.20463,-0.461662 0.4591,-0.464766 0.25762,-1.8e-5 0.46733,0.207169 0.47043,0.464766 v 0 c 0,0.256682 -0.20808,0.464765 -0.46476,0.464765 -0.25668,0 -0.46477,-0.208083 -0.46477,-0.464765 z"
         id="path624"
         fill="#54585f" />
      <polygon
         id="polygon626"
         fill="#54585f"
         points="113.40841,20.529025 113.40841,21.407545 115.05776,21.407545 115.05776,21.917653 113.43675,21.917653 113.43675,23.238267 112.86996,23.238267 112.84162,20.013249 115.23347,20.013249 115.23347,20.529025 " />
      <path
         d="m 116.75812,21.628592 v 0 c -0.003,-0.448382 0.17611,-0.87878 0.49689,-1.192078 0.32078,-0.313297 0.7553,-0.482488 1.20347,-0.468608 0.44855,-0.01875 0.88503,0.148056 1.20674,0.461187 0.32171,0.313131 0.50025,0.744938 0.49363,1.193831 v 0 c 0.003,0.448872 -0.17599,0.879807 -0.49659,1.193993 -0.32059,0.314187 -0.75506,0.484671 -1.20378,0.472361 -0.44955,0.01882 -0.88693,-0.14875 -1.20882,-0.463131 -0.32189,-0.31438 -0.49974,-0.747686 -0.49154,-1.197555 z m 2.77159,0 v 0 c 0,-0.601013 -0.48722,-1.088231 -1.08823,-1.088231 -0.60101,0 -1.08823,0.487218 -1.08823,1.088231 v 0 c -0.009,0.296489 0.10182,0.584109 0.30781,0.79756 0.20598,0.213452 0.48946,0.334627 0.78609,0.336014 0.2942,-0.0028 0.57461,-0.125133 0.77669,-0.338971 0.20207,-0.213839 0.30841,-0.500716 0.29454,-0.794603 z"
         id="path628"
         fill="#54585f" />
      <path
         d="m 121.81386,21.860975 v -1.847726 h 0.56679 v 1.825054 c 0,0.600794 0.31173,0.918195 0.81617,0.918195 0.50444,0 0.80484,-0.300397 0.80484,-0.895523 v -1.847726 h 0.56679 v 1.825054 c 0.0474,0.384296 -0.0808,0.769492 -0.34909,1.048728 -0.26825,0.279237 -0.64798,0.422818 -1.03387,0.390911 -0.38123,0.03351 -0.75723,-0.106723 -1.02341,-0.381694 -0.26617,-0.274972 -0.39411,-0.655337 -0.34822,-1.035273 z"
         id="path630"
         fill="#54585f" />
      <polygon
         id="polygon632"
         fill="#54585f"
         points="128.70599,20.013249 129.27278,20.013249 129.27278,23.238267 128.80235,23.238267 127.0283,20.971119 127.0283,23.238267 126.46152,23.238267 126.48419,20.013249 127.00563,20.013249 128.70599,22.235054 " />
      <path
         d="m 131.2622,20.013249 h 1.19592 c 0.44086,-0.02653 0.87315,0.129891 1.19496,0.432387 0.3218,0.302495 0.50464,0.724295 0.5054,1.165952 v 0 c -9.4e-4,0.442577 -0.18342,0.865384 -0.50483,1.169645 -0.3214,0.304261 -0.75356,0.463325 -1.19553,0.44003 h -1.19592 z m 1.19592,2.697906 c 0.29852,0.02448 0.59326,-0.07988 0.80988,-0.286742 0.21661,-0.206865 0.33441,-0.49649 0.3237,-0.795821 v 0 c 0.0105,-0.299764 -0.10711,-0.589826 -0.32349,-0.797551 -0.21638,-0.207724 -0.511,-0.313442 -0.81009,-0.29068 h -0.6348 v 2.18213 z"
         id="path634"
         fill="#54585f" />
      <path
         d="m 136.91874,19.990578 h 0.52144 l 1.42264,3.247689 h -0.6008 l -0.32307,-0.776498 h -1.52465 l -0.33441,0.776498 h -0.56679 z m 0.8105,1.961083 -0.56679,-1.286607 -0.56678,1.286607 z"
         id="path636"
         fill="#54585f" />
      <polygon
         id="polygon638"
         fill="#54585f"
         points="139.91137,20.534693 139.91137,20.013249 142.51859,20.013249 142.51859,20.534693 141.49838,20.534693 141.49838,23.238267 140.93159,23.238267 140.93159,20.534693 " />
      <polygon
         id="polygon640"
         fill="#54585f"
         points="144.85942,20.013249 144.85942,23.238267 144.29263,23.238267 144.29263,20.013249 " />
      <path
         d="m 146.6448,21.628592 v 0 c 0.1278,-0.829297 0.84144,-1.441385 1.68052,-1.441385 0.83909,0 1.55273,0.612088 1.68053,1.441385 v 0 c 0.003,0.448872 -0.17598,0.879807 -0.49658,1.193993 -0.3206,0.314187 -0.75507,0.484671 -1.20378,0.472361 -0.44426,0.0094 -0.87303,-0.163299 -1.1867,-0.478039 -0.31367,-0.31474 -0.48493,-0.744097 -0.47399,-1.188315 z m 2.76592,0 v 0 c 0,-0.601013 -0.48722,-1.088231 -1.08823,-1.088231 -0.60101,0 -1.08823,0.487218 -1.08823,1.088231 v 0 c -0.009,0.296489 0.10182,0.584109 0.30781,0.79756 0.20598,0.213452 0.48946,0.334627 0.78609,0.336014 0.29566,-0.0013 0.57807,-0.122814 0.78228,-0.336636 0.2042,-0.213823 0.3126,-0.501529 0.30028,-0.796938 z"
         id="path642"
         fill="#54585f" />
      <polygon
         id="polygon644"
         fill="#54585f"
         points="153.97903,20.013249 154.54581,20.013249 154.54581,23.238267 154.06971,23.238267 152.29567,20.971119 152.29567,23.238267 151.72888,23.238267 151.75155,20.013249 152.27866,20.013249 153.97903,22.235054 " />
      <path
         d="M 150.19856,7.0791697 V 5.5148375 h -0.87286 c -0.34387,0.040966 -0.62145,0.3002004 -0.68581,0.6404694 v 0.8161732 h 0.81617 v 0.1303611 c 0.0558,0.4361977 -0.23699,0.8406641 -0.6688,0.9238628 v 0.651805 c 0.40135,-0.01873 0.77798,-0.1992962 1.04392,-0.5004797 0.26594,-0.3011836 0.39848,-0.6972761 0.36738,-1.0978596"
         id="path646"
         fill="#54585f" />
      <path
         d="m 31.870433,13.693574 1.133574,-1.309278 c 0.876808,0.853098 2.047133,1.33786 3.270361,1.354621 1.133574,0 1.847726,-0.521444 1.847726,-1.309278 V 12.4013 c 0,-0.748159 -0.419423,-1.133574 -2.352166,-1.59834 -2.227473,-0.532779 -3.463069,-1.1675809 -3.463069,-3.1116604 v -0.028339 c 0,-1.7910469 1.49065,-3.0266426 3.559423,-3.0266426 1.372893,-0.024604 2.709477,0.4416926 3.769133,1.3149458 l -0.980541,1.38296 C 37.85344,6.6749597 36.857942,6.2966705 35.820939,6.2573285 c -1.071228,0 -1.700361,0.566787 -1.700361,1.2412636 v 0 c 0,0.8048375 0.481769,1.1619133 2.476859,1.6380144 2.204801,0.566787 3.349711,1.3262815 3.349711,3.0549815 v 0.02834 c 0,1.955415 -1.530325,3.117328 -3.723791,3.117328 -1.605527,0.01606 -3.158727,-0.57043 -4.352924,-1.643682 z"
         id="path648"
         fill="#54585f" />
      <path
         d="M 41.00704,11.33574 V 11.3074 c 0,-2.2671483 1.592671,-4.0978703 3.842816,-4.0978703 2.505198,0 3.769133,1.9667509 3.769133,4.2282313 0,0.164368 0,0.328736 0,0.510108 h -5.809567 c 0.107445,1.160829 1.102079,2.036108 2.267148,1.99509 0.812396,0.0063 1.588447,-0.336272 2.131119,-0.940866 l 1.054224,0.940866 c -0.782284,0.969353 -1.9744,1.51504 -3.21935,1.473647 -1.087844,0.03236 -2.140229,-0.388729 -2.90548,-1.162578 -0.765252,-0.77385 -1.174561,-1.830874 -1.130043,-2.918289 z m 5.82657,-0.566787 C 46.714585,9.6353791 46.028773,8.7001805 44.83852,8.7001805 c -1.190253,0 -1.881733,0.8501805 -2.046101,2.0687725 z"
         id="path650"
         fill="#54585f" />
      <path
         d="M 74.815863,11.33574 V 11.3074 c 0,-2.2671483 1.598361,-4.0978703 3.842837,-4.0978703 2.505199,0 3.769134,1.9667509 3.769134,4.2282313 0,0.164368 0,0.328736 0,0.510108 h -5.781227 c 0.107444,1.160829 1.102078,2.036108 2.267147,1.99509 0.812396,0.0063 1.588447,-0.336272 2.13112,-0.940866 l 1.054223,0.940866 c -1.098611,1.346695 -2.926437,1.855259 -4.562722,1.269507 -1.636285,-0.585752 -2.726113,-2.138768 -2.720512,-3.876726 z m 5.826592,-0.566787 C 80.52343,9.6353791 79.837617,8.7001805 78.647365,8.7001805 c -1.190253,0 -1.881733,0.8501805 -2.040434,2.0687725 z"
         id="path652"
         fill="#54585f" />
      <path
         d="M 86.758087,10.03213 V 9.998123 c -0.03115,-1.4369016 0.525158,-2.8243391 1.54037,-3.84169 1.015211,-1.0173509 2.401474,-1.5765796 3.838438,-1.5484544 1.530034,-0.05491 3.012786,0.5353121 4.086535,1.6266787 L 95.044513,7.5949458 C 94.284141,6.7895149 93.232924,6.3220805 92.12556,6.2970036 91.175191,6.3111816 90.271387,6.7109647 89.621568,7.4046044 88.971748,8.098244 88.631711,9.0261788 88.679495,9.9754513 v 0.02834 c 0,2.046101 1.445306,3.712454 3.446065,3.712454 1.142953,-0.01377 2.228055,-0.504944 2.992635,-1.35462 l 1.178917,1.190252 c -1.061988,1.220776 -2.616662,1.899255 -4.233899,1.847726 -1.422649,0.01573 -2.790733,-0.546771 -3.790865,-1.558657 -1.000132,-1.011886 -1.546613,-2.386448 -1.514261,-3.808816 z"
         id="path654"
         fill="#54585f" />
      <rect
         id="Rectangle-7"
         fill="#54585f"
         x="107.34946"
         y="7.3512273"
         width="1.8023827"
         height="7.8670034" />
      <path
         d="m 49.571191,11.296065 v -0.02834 c 0,-2.6072206 1.700361,-4.0808668 3.497076,-4.0808668 1.035552,-3.774e-4 2.002136,0.5191083 2.573213,1.3829603 V 7.0508303 h 1.700361 V 15.218231 H 55.64148 v -1.314946 c -0.535551,0.913689 -1.514141,1.476271 -2.573213,1.479314 -1.768375,0 -3.497076,-1.479314 -3.497076,-4.086534 z m 6.098629,0 v -0.02834 c 0,-1.5189895 -1.025885,-2.5165347 -2.187798,-2.5165347 -1.161914,0 -2.165127,0.9522022 -2.165127,2.5165347 v 0.02834 c 0,1.518989 0.997545,2.516534 2.165127,2.516534 1.167581,0 2.187798,-1.008881 2.187798,-2.516534 z"
         id="path657"
         fill="#54585f" />
      <path
         d="m 125.40162,7.3682311 h 1.80239 v 1.7683754 c 0.39298,-1.1937145 1.53319,-1.9793438 2.78859,-1.9214079 v 1.9100722 h -0.10769 c -1.57567,0 -2.6809,1.0258842 -2.6809,3.1116602 v 2.998304 h -1.80239 z"
         id="path659"
         fill="#54585f" />
      <path
         d="M 63.797545,8.898556 V 7.3682311 h -2.119783 v -3.536751 h -1.031553 c -0.430758,0 -0.708483,0.2777257 -0.748159,0.8161733 V 7.3682311 H 58.900505 V 8.898556 h 0.997545 v 4.137545 c 0,1.700361 0.940867,2.306823 2.267149,2.306823 0.566882,0.0158 1.127336,-0.12333 1.62101,-0.402419 v -1.473646 c -0.350061,0.181047 -0.739515,0.272568 -1.133574,0.26639 -0.269278,0.03939 -0.541237,-0.05164 -0.73255,-0.24519 -0.191312,-0.19355 -0.279171,-0.466549 -0.236655,-0.735351 V 8.898556 Z"
         id="path661"
         fill="#54585f" />
      <path
         d="M 69.714801,8.898556 V 7.3682311 h -2.119783 v -3.536751 h -1.048556 c -0.436426,0 -0.725487,0.2890614 -0.753827,0.8445127 V 7.3682311 H 64.79509 V 8.898556 h 0.997545 v 4.137545 c 0,1.700361 0.940867,2.306823 2.267148,2.306823 0.568577,0.01484 1.130603,-0.124196 1.626679,-0.402419 v -1.473646 c -0.350626,0.179514 -0.739692,0.270945 -1.133574,0.26639 -0.269278,0.03939 -0.541238,-0.05164 -0.73255,-0.24519 -0.191313,-0.19355 -0.279171,-0.466549 -0.236656,-0.735351 V 8.898556 Z"
         id="path663"
         fill="#54585f" />
      <path
         d="M 72.271011,3.8314801 C 72.070731,3.8237713 71.875953,3.897984 71.73158,4.0370095 71.587207,4.1760349 71.5057,4.3678749 71.505848,4.5683032 V 15.218231 h 1.802383 V 3.8314801 Z"
         id="path665"
         fill="#54585f" />
      <path
         d="m 102.27105,7.1868592 c -1.0075,-0.00906 -1.94404,0.5174797 -2.459859,1.3829603 V 3.837148 H 98.72296 C 98.303538,3.865487 98.025812,4.143213 98.008809,4.6986643 V 15.218231 h 1.802382 v -4.449278 c 0,-1.218592 0.731159,-1.9497472 1.768379,-1.9497472 1.03722,0 1.70036,0.697148 1.70036,1.9214082 v 4.471949 h 1.80238 v -5.010397 c -0.0113,-1.8250541 -1.04289,-3.0153068 -2.81126,-3.0153068 z"
         id="path667"
         fill="#54585f" />
      <path
         d="m 112.30885,3.8258123 c -0.41443,0.027297 -0.7287,0.3846563 -0.70282,0.7991696 V 15.218231 h 1.80805 V 3.8258123 Z"
         id="path669"
         fill="#54585f" />
      <path
         d="m 122.02924,3.837148 c -0.35044,0.014242 -0.63868,0.2808583 -0.68014,0.6291336 v 4.1035379 c -0.61235,-0.8732209 -1.6144,-1.3901366 -2.68091,-1.3829603 -1.87606,0 -3.6501,1.4736462 -3.6501,4.0808668 v 0.02834 c 0,2.60722 1.80238,4.086575 3.6501,4.086575 1.0898,0.0055 2.10454,-0.554427 2.68091,-1.479355 v 1.314946 h 1.80238 V 3.837148 Z m -0.6518,7.458917 c 0,1.252111 -1.01504,2.267148 -2.26715,2.267148 -1.25211,0 -2.26715,-1.015037 -2.26715,-2.267148 v -0.02834 c 0,-1.5643325 1.03155,-2.5165347 2.26715,-2.5165347 0.63794,0.023077 1.23927,0.3038361 1.66654,0.7781134 0.42728,0.4742773 0.64399,1.1015363 0.60061,1.7384213 z"
         id="path671"
         fill="#54585f" />
      <path
         d="M 130.85412,11.33574 V 11.3074 c 0,-2.2671483 1.59267,-4.0978703 3.84281,-4.0978703 2.5052,0 3.76913,1.9667509 3.76913,4.2282313 0,0.164368 0,0.328736 -0.0283,0.510108 h -5.78123 c 0.10471,1.162219 1.10105,2.038997 2.26715,1.99509 0.81239,0.0063 1.58844,-0.336272 2.13111,-0.940866 l 1.0599,0.940866 c -0.78229,0.969353 -1.9744,1.51504 -3.21935,1.473647 -1.08882,0.03397 -2.14271,-0.386414 -2.90922,-1.160449 -0.76651,-0.774036 -1.17658,-1.831988 -1.13197,-2.920418 z m 5.8209,-0.566787 c -0.11903,-1.1335739 -0.79917,-2.0687725 -1.99509,-2.0687725 -1.09957,0 -1.87607,0.8501805 -2.04044,2.0687725 z"
         id="path673"
         fill="#54585f" />
      <path
         d="m 140.28545,7.3682311 h 1.80238 v 1.218592 c 0.50848,-0.8667621 1.43795,-1.3994277 2.44286,-1.3999639 1.77404,0 2.79992,1.1902527 2.79992,3.0209748 v 5.010397 h -1.80238 v -4.449278 c 0,-1.2242599 -0.61213,-1.9214079 -1.70036,-1.9214079 -1.08823,0 -1.76838,0.7311553 -1.76838,1.9497469 v 4.443611 h -1.80238 z"
         id="path675"
         fill="#54585f" />
      <path
         d="m 150.31758,14.169675 0.80484,-1.218592 c 0.73582,0.58709 1.63852,0.926345 2.57888,0.969206 0.77083,0 1.21859,-0.334404 1.21859,-0.850181 v -0.03401 c 0,-0.61213 -0.83318,-0.816173 -1.75704,-1.099567 -1.16191,-0.328736 -2.45985,-0.804837 -2.45985,-2.3124907 v 0.011336 c 0,-1.4906499 1.24126,-2.3975091 2.80559,-2.3975091 1.02793,0.019631 2.02961,0.3279919 2.89062,0.8898556 l -0.71982,1.2866065 c -0.66057,-0.438906 -1.42471,-0.6968755 -2.21614,-0.7481588 -0.70282,0 -1.10524,0.3287365 -1.10524,0.7935018 v 0 c 0,0.5667867 0.85018,0.8048377 1.77405,1.0995667 1.13357,0.357076 2.44285,0.884188 2.44285,2.295487 v 0 c 0,1.655018 -1.28094,2.476859 -2.91895,2.476859 -1.20999,-0.01136 -2.38281,-0.419559 -3.33838,-1.161913 z"
         id="path677"
         fill="#54585f" />
      <path
         d="m 107.27011,4.7950181 c 6e-5,-0.4072966 0.24636,-0.7741342 0.62333,-0.9283633 0.37697,-0.1542291 0.80977,-0.065236 1.0953,0.2252174 0.28553,0.2904531 0.36711,0.7247118 0.20646,1.0989872 -0.16065,0.3742755 -0.53164,0.614275 -0.93888,0.6073716 -0.54612,-0.012268 -0.98328,-0.4569629 -0.98621,-1.0032129 z"
         id="path679"
         fill="#54585f" />
    </g>
    <path
       d="m 91.196521,35.743046 v 0.109084 c -0.254347,0.03641 -0.581417,0.109084 -0.581417,0.61779 0,0.03641 0,0.254384 0.0364,0.545118 l 0.472407,4.906002 c 0.0727,0.654122 0.10894,0.872169 0.690477,1.053865 V 43.08399 H 89.67032 v -0.109085 c 0.327027,-0.109084 0.581427,-0.218031 0.581427,-0.690458 0,-0.109084 0,-0.109084 -0.0364,-0.508782 l -0.472417,-4.978674 -2.616535,6.286938 h -0.10908 L 84.3281,36.906015 83.892013,41.848353 c -0.0364,0.145344 -0.0364,0.290719 -0.0364,0.436094 0,0.472427 0.25439,0.581435 0.581467,0.690458 v 0.109085 h -1.780711 v -0.109085 c 0.508767,-0.109084 0.581467,-0.290719 0.654157,-1.053865 l 0.472407,-4.869665 c 0.0364,-0.327071 0.0364,-0.436095 0.0364,-0.508767 0,-0.508767 -0.21806,-0.581454 -0.581437,-0.654142 v -0.145345 h 1.562621 l 2.434858,5.63282 2.434805,-5.63282 z m 5.30574,6.177919 c -0.10908,0.181711 -0.218057,0.363406 -0.327067,0.508777 -0.39974,0.545103 -1.053884,0.835833 -1.707981,0.835833 -1.526321,0 -2.289468,-1.199251 -2.289468,-2.471163 0,-1.271936 0.799497,-2.61654 2.325808,-2.61654 1.162894,0 2.071398,0.76315 2.107738,2.253122 h -3.670399 c 0,0.181696 0,0.363418 0.0364,0.545113 0.0727,0.908521 0.799494,1.598994 1.708001,1.598994 0.617804,-0.03641 1.235571,-0.327066 1.635308,-0.799496 z m -0.763134,-1.889714 c -0.0364,-1.017541 -0.654157,-1.417285 -1.271914,-1.417285 -0.690487,0 -1.271954,0.472431 -1.489971,1.417285 z m 6.032493,-4.397229 v 5.887204 c 0,0.726809 0.10894,0.872164 0.47242,0.981188 l 0.0364,0.109084 -0.76315,0.654138 c -0.25437,-0.181707 -0.43609,-0.43609 -0.50876,-0.763161 -0.54509,0.47243 -0.98121,0.763161 -1.671654,0.763161 -1.380954,0 -2.180438,-1.053877 -2.180438,-2.362141 0,-1.417294 0.872164,-2.725563 2.398455,-2.725563 0.472427,0 0.944887,0.109084 1.344627,0.363407 v -1.417292 c 0,-0.327056 -0.0364,-0.690463 -0.58147,-0.617791 l -0.0364,-0.109084 z m -0.79949,4.506237 c 0,-0.254376 -0.0364,-0.508759 -0.10894,-0.763143 -0.21806,-0.47243 -0.69047,-0.799501 -1.199227,-0.76315 -1.053894,0 -1.635311,0.90851 -1.635311,2.071412 0,1.235587 0.763117,1.962396 1.598971,1.962396 0.21802,0 0.399737,-0.03641 0.617767,-0.109084 0.29074,-0.109084 0.54508,-0.327051 0.76315,-0.581435 z m 2.21675,-0.581432 c 0,-0.327071 0,-0.545117 -0.50875,-0.545117 l -0.0364,-0.109085 1.38096,-0.799501 v 3.924804 c 0,0.581449 0,0.799497 0.58142,0.944856 v 0.109085 h -1.92605 v -0.109085 c 0.5088,-0.145344 0.5088,-0.363407 0.5088,-0.981193 z m 0.94488,-3.307015 c 0,0.290721 -0.21806,0.545119 -0.50876,0.545119 0,0 -0.0364,0 -0.0364,0 -0.29074,0 -0.50879,-0.218048 -0.50879,-0.472431 0,0 0,0 0,0 0,-0.290735 0.21805,-0.545119 0.50879,-0.545119 0,0 0.0364,0 0.0364,0 0.2907,-0.03641 0.50876,0.181712 0.50876,0.472431 0,0 0,0 0,0 z m 4.9423,5.669153 c -0.58144,1.162904 -1.34458,1.34461 -1.9624,1.34461 -0.61776,0.03626 -1.1629,-0.254394 -1.52631,-0.763161 -0.36336,-0.472426 -0.54508,-1.053876 -0.54508,-1.671667 0,-0.654137 0.18172,-1.344607 0.6178,-1.853374 0.39974,-0.545118 1.01751,-0.835838 1.67165,-0.799501 0.5451,0 1.09023,0.181711 1.52632,0.545117 l -0.18172,0.944847 h -0.10893 c -0.18173,-0.399743 -0.4361,-1.05387 -1.30825,-1.05387 -1.09023,0 -1.45365,1.126558 -1.45365,1.962387 0,1.235588 0.76316,2.035085 1.63533,2.035085 0.58146,-0.07267 1.12657,-0.327067 1.48997,-0.799497 z m 0.83583,-2.362138 c 0,-0.327071 0,-0.545117 -0.50876,-0.545117 l -0.0727,-0.109085 1.38093,-0.799501 v 3.924804 c 0,0.581449 0,0.799497 0.58147,0.944856 v 0.109085 h -1.92606 v -0.109085 c 0.50876,-0.145344 0.50876,-0.363407 0.50876,-0.981193 z m 0.94487,-3.307015 c 0,0.290721 -0.21806,0.545119 -0.50879,0.545119 0,0 -0.0364,0 -0.0364,0 -0.29069,0 -0.50875,-0.218048 -0.50875,-0.472431 0,0 0,0 0,0 0,-0.290735 0.21806,-0.545119 0.50875,-0.545119 0,0 0.0364,0 0.0364,0 0.2544,-0.03641 0.50879,0.181712 0.50879,0.472431 0,0 0,0 0,0 z m 2.21675,1.853372 v 0.799502 c 0.39976,-0.472431 0.98122,-0.763151 1.59899,-0.726814 0.50875,-0.03641 0.98121,0.181711 1.30825,0.581454 0.29073,0.399744 0.29073,0.76315 0.29073,1.344597 v 1.853393 c 0,0.617785 0.0364,0.872169 0.58147,0.981193 v 0.109084 h -1.88971 v -0.109084 c 0.18168,0 0.3634,-0.145345 0.47241,-0.290735 0.0364,-0.109084 0.0727,-0.181696 0.0727,-0.654122 v -1.998753 c 0.0364,-0.363399 -0.10893,-0.726806 -0.3634,-0.981189 -0.21801,-0.181696 -0.50875,-0.254384 -0.7995,-0.254384 -0.32702,0 -0.61776,0.07267 -0.87215,0.290719 -0.29075,0.254384 -0.43609,0.617791 -0.36342,0.981206 v 1.926065 c 0,0.690458 0.0727,0.835833 0.58148,0.981193 v 0.109084 h -1.99873 v -0.109084 c 0.5451,-0.109084 0.5451,-0.472431 0.5451,-0.981193 v -2.035081 c 0,-0.654142 0,-0.908525 -0.5451,-0.908525 l -0.0364,-0.109085 z m 8.28566,3.815781 c -0.10908,0.181711 -0.21806,0.363406 -0.32707,0.508777 -0.39974,0.545103 -1.0539,0.835833 -1.708,0.835833 -1.52631,0 -2.28945,-1.199251 -2.28945,-2.471163 0,-1.271936 0.79948,-2.61654 2.36214,-2.61654 1.1629,0 2.07139,0.76315 2.10773,2.253122 h -3.67039 c 0,0.181696 0,0.363418 0.0364,0.545113 0.0726,0.908521 0.7995,1.598994 1.708,1.598994 0.61781,-0.03641 1.23558,-0.327066 1.63532,-0.799496 z m -0.76314,-1.889714 c -0.0364,-1.017541 -0.65416,-1.417285 -1.27193,-1.417285 -0.69048,0 -1.27191,0.472431 -1.48997,1.417285 z M 81.275585,35.706694 c -0.07267,-0.07267 -0.290734,-0.07267 -0.545133,-0.03641 l -0.327071,0.03641 -0.363377,-0.03641 c -0.290734,-0.03626 -0.617805,-0.07267 -0.726829,0.03641 l -0.03641,0.07267 v 0 c 0,0.109084 0.108933,0.145344 0.181696,0.181711 0.181726,0.03641 0.327071,0.181696 0.363407,0.363407 0,0.07267 0.03641,0.109084 0.03641,0.181696 0,0 0,0 0,0 0,0.472431 -0.799502,2.652889 -1.635324,4.651623 -0.327086,-0.872185 -1.453659,-4.687959 -1.453659,-4.724295 0,-0.109085 -0.03641,-0.218047 -0.03641,-0.290735 v 0 c 0,-0.254383 0.109083,-0.254383 0.218061,-0.254383 0.07267,0 0.145345,-0.03641 0.145345,-0.145345 l -0.03641,-0.07267 c -0.108934,-0.03626 -0.399744,-0.03626 -0.835824,0 l -0.399758,0.03641 -0.399742,-0.03641 c -0.327071,-0.03626 -0.617776,-0.07267 -0.72683,0.03641 l -0.03641,0.109083 v 0 c 0,0.109084 0.109084,0.145345 0.181726,0.145345 0.218032,0.03626 0.399758,0.181711 0.508768,0.363407 0.07267,0.109084 0.145343,0.290735 0.290734,0.654142 l 0.363407,0.872174 c 0,0.03626 -1.271917,3.197994 -1.344635,3.343354 -0.181681,-0.472442 -1.199245,-3.197994 -1.744333,-4.687959 v -0.145344 -0.181712 c 0,-0.254383 0.109084,-0.254383 0.218063,-0.254383 0.07267,0 0.145344,-0.03641 0.181681,-0.145345 l -0.03641,-0.07267 c -0.07267,-0.07267 -0.363406,-0.07267 -0.799486,-0.03641 l -0.399759,0.03641 -0.399743,-0.03641 c -0.218062,-0.03626 -0.399743,-0.03626 -0.617805,0 -0.03641,0 -0.07267,0 -0.145345,0.03641 l -0.327086,0.03641 -0.399744,-0.03641 c -0.254353,-0.03641 -0.508751,-0.07267 -0.581439,0.03641 l -0.03641,0.07267 c 0,0.145345 0.145344,0.181711 0.290749,0.181711 0,0 0.07267,0 0.07267,0 0.327071,0.03641 0.726814,0.07267 0.726814,2.107755 v 2.47117 c 0,1.271923 -0.799501,2.035084 -2.216809,2.07142 -0.617805,0.07267 -1.235581,-0.145344 -1.707996,-0.545114 -0.617806,-0.581434 -0.690493,-1.598993 -0.690493,-2.580184 v -3.052631 c -0.03641,-0.254384 0.109084,-0.472416 0.363422,-0.508767 0.108933,-0.03641 0.181681,-0.07267 0.181681,-0.181696 l -0.07267,-0.109084 c -0.108934,-0.07267 -0.363408,0 -0.617776,0.03641 -0.145345,0.03641 -0.327071,0.07267 -0.508797,0.07267 -0.181681,0 -0.327026,-0.03641 -0.508752,-0.07267 -0.327086,-0.03641 -0.617775,-0.07267 -0.763166,0 -0.03641,0.03641 -0.03641,0.07267 -0.03641,0.109084 0,0.145345 0.109084,0.181696 0.254398,0.218047 0.254354,0.07267 0.58144,0.145345 0.58144,0.944846 v 3.561391 c 0,0.617802 0.254398,1.235587 0.690477,1.671682 0.72683,0.617786 1.671676,0.944857 2.616552,0.872169 2.362109,-0.07267 2.834585,-1.562643 2.834585,-2.761898 v -3.852111 c 0,-0.290719 0.07267,-0.399743 0.181681,-0.436079 0.181726,0.03641 0.399743,0.181696 0.545088,0.61779 0,0.03641 1.453658,3.597728 1.780729,4.542599 l 0.61776,1.853363 c 0,0.03641 0.03641,0.07267 0.109084,0.07267 0.07267,0 0.109085,-0.07267 0.109085,-0.07267 0.254413,-0.872169 1.562667,-4.142847 1.780683,-4.68795 0.218063,0.545103 1.453644,3.961141 1.63537,4.68795 0,0.07267 0.03641,0.109084 0.108933,0.109084 0.07267,0 0.109084,-0.03626 0.109084,-0.07267 0,0 0.218063,-0.617791 0.218063,-0.617791 l 0.363407,-0.981188 c 0,0 0.32704,-0.835849 0.32704,-0.8722 0,0 1.453644,-3.888447 1.453644,-3.888447 0.290734,-0.726814 0.581439,-0.726814 0.726829,-0.76315 0.07267,0 0.181681,0 0.181681,-0.145345 0,-0.07267 0,-0.109083 -0.03641,-0.109083 z"
       id="path794"
       style="fill:#4b2e83;fill-rule:nonzero;stroke:none;stroke-width:0.399748" />
    <g
       id="g3225"
       transform="translate(13.758336,2.6458334)">
      <path
         d="m 97.105848,5.9122895 a 1.7250833,1.7250833 0 0 0 -0.59266,-1.36525 q -0.59267,-0.529166 -2.07698,-0.971021 -2.54794,-0.769937 -3.86556,-1.80975 a 3.4184167,3.4184167 0 0 1 -1.32292,-2.8389789 3.571875,3.571875 0 0 1 1.48961,-2.9527501 q 1.48431,-1.145646 3.78883,-1.148291 2.45004,0 3.937,1.235604 a 3.8496875,3.8496875 0 0 1 1.44198,3.23320812 l -0.0212,0.06085 h -2.8575 a 2.143125,2.143125 0 0 0 -0.66672,-1.69332902 q -0.66675,-0.590021 -1.8706,-0.590021 a 2.4765,2.4765 0 0 0 -1.68805,0.529167 1.7145,1.7145 0 0 0 -0.59531,1.344083 1.4684375,1.4684375 0 0 0 0.64558,1.23031296 8.6651042,8.6651042 0 0 0 2.23573,1.01599994 q 2.42359,0.68527 3.70417,1.793875 a 3.6724167,3.6724167 0 0 1 1.272652,2.910416 3.5110208,3.5110208 0 0 1 -1.476382,2.9818534 q -1.47637,1.0927294 -3.89996,1.0927294 a 6.9717708,6.9717708 0 0 1 -4.07987,-1.1826874 q -1.70127,-1.1826864 -1.65364,-3.5295414 l 0.0212,-0.06085 h 2.86013 q 0,1.304396 0.76994,1.920875 a 3.222625,3.222625 0 0 0 2.08227,0.616479 q 1.18269,0 1.80446,-0.49477 a 1.6113125,1.6113125 0 0 0 0.61383,-1.328209 z"
         style="fill:#1baa4b;stroke-width:0.264583"
         id="path812" />
      <path
         d="m 106.00379,9.9657053 q -2.45004,0 -3.82058,-1.5028324 -1.37054,-1.5028334 -1.37583,-3.8655624 v -0.404812 q 0,-2.455334 1.32291,-4.02431294 1.32292,-1.56897886 3.68036,-1.54781186 2.20133,0 3.38137,1.34937486 1.18004,1.34937494 1.1774,3.63537494 v 1.526645 h -6.51934 l -0.0317,0.05821 a 2.9606875,2.9606875 0 0 0 0.68263,1.820333 q 0.61119,0.6985 1.81504,0.6985 a 6.0457292,6.0457292 0 0 0 1.68275,-0.203729 6.7759792,6.7759792 0 0 0 1.4314,-0.616479 l 0.79375,1.8203324 a 5.508625,5.508625 0 0 1 -1.78065,0.8995824 7.8554792,7.8554792 0 0 1 -2.43946,0.357188 z m -0.19314,-9.07785277 a 1.6430625,1.6430625 0 0 0 -1.37055,0.61118697 3.0506458,3.0506458 0 0 0 -0.57943,1.621896 l 0.0185,0.05027 h 3.59833 v -0.222249 a 2.5611667,2.5611667 0 0 0 -0.39158,-1.510771 1.4605,1.4605 0 0 0 -1.27529,-0.55033297 z"
         style="fill:#1baa4b;stroke-width:0.264583"
         id="path814" />
      <path
         d="m 118.19315,9.7513923 a 5.8869792,5.8869792 0 0 1 -0.27782,-0.7937497 5.6065208,5.6065208 0 0 1 -0.16668,-0.8493114 4.016375,4.016375 0 0 1 -1.20386,1.3229164 3.01625,3.01625 0 0 1 -1.778,0.5291657 q -1.71714,0 -2.64583,-0.8863537 a 3.175,3.175 0 0 1 -0.93133,-2.4103531 2.8866042,2.8866042 0 0 1 1.23825,-2.492375 q 1.23825,-0.883708 3.6142,-0.883708 h 1.65894 v -0.87048 a 1.698625,1.698625 0 0 0 -0.41539,-1.222375 1.6298333,1.6298333 0 0 0 -1.23296,-0.43391597 1.5875,1.5875 0 0 0 -1.10596,0.34924997 1.2170833,1.2170833 0 0 0 -0.38894,0.955146 h -2.84162 l -0.0212,-0.06086 q -0.0688,-1.38641597 1.20915,-2.38124891 1.27793,-0.99483389 3.34168,-1.00541689 1.9685,0 3.18823,0.99218689 1.21973,0.99218794 1.21709,2.83897991 v 4.519083 a 8.6121875,8.6121875 0 0 0 0.11641,1.4446244 7.3104375,7.3104375 0 0 0 0.37042,1.3440824 z M 115.4944,7.7802485 a 2.5108958,2.5108958 0 0 0 1.37583,-0.383646 2.0849167,2.0849167 0 0 0 0.82815,-0.889 v -1.537229 h -1.65894 a 1.9685,1.9685 0 0 0 -1.42081,0.465666 1.5266458,1.5266458 0 0 0 -0.4789,1.143 1.1350625,1.1350625 0 0 0 0.35983,0.883709 1.4155208,1.4155208 0 0 0 0.99748,0.3175 z"
         style="fill:#1baa4b;stroke-width:0.264583"
         id="path816" />
      <path
         d="m 125.63852,-3.8640645 v 2.6802292 h 1.85208 v 2.07168783 h -1.85208 V 6.4573315 a 1.2805833,1.2805833 0 0 0 0.26458,0.910167 0.94985417,0.94985417 0 0 0 0.7038,0.264583 2.5585208,2.5585208 0 0 0 0.40216,-0.02646 3.2490833,3.2490833 0 0 0 0.39423,-0.08467 l 0.24342,2.1325408 a 5.9901667,5.9901667 0 0 1 -0.86519,0.227541 5.1540833,5.1540833 0 0 1 -0.91281,0.07673 q -1.52665,0 -2.35215,-0.8413747 -0.8255,-0.8413744 -0.82285,-2.6458321 V 0.88784853 h -1.5875 V -1.1838393 h 1.5875 v -2.6802292 z"
         style="fill:#1baa4b;stroke-width:0.264583"
         id="path818" />
      <path
         d="m 132.78756,-3.8640645 v 2.6802292 h 1.85209 v 2.07168783 h -1.85209 V 6.4573315 a 1.2805833,1.2805833 0 0 0 0.26459,0.910167 0.94985417,0.94985417 0 0 0 0.70379,0.264583 2.6167292,2.6167292 0 0 0 0.40481,-0.02646 3.4792708,3.4792708 0 0 0 0.39423,-0.08467 l 0.24077,2.1325408 a 6.048375,6.048375 0 0 1 -0.86254,0.227541 5.1831875,5.1831875 0 0 1 -0.91546,0.07673 q -1.52665,0 -2.3495,-0.8413747 -0.82285,-0.8413744 -0.8255,-2.6458321 V 0.88784853 h -1.5875 V -1.1838393 h 1.5875 v -2.6802292 z"
         style="fill:#1baa4b;stroke-width:0.264583"
         id="path820" />
      <path
         d="m 139.03967,9.7513923 h -2.95011 V -6.0177725 h 2.95011 z"
         style="fill:#1baa4b;stroke-width:0.264583"
         id="path822" />
      <path
         d="m 145.8421,9.9657053 q -2.44739,0 -3.82322,-1.5028324 -1.37584,-1.5028334 -1.37319,-3.8655624 v -0.404812 q 0,-2.455334 1.32291,-4.02431294 1.32292,-1.56897886 3.68036,-1.54781186 2.20398,0 3.38137,1.34937486 1.1774,1.34937494 1.1774,3.62743694 v 1.526646 h -6.51933 l -0.0318,0.05821 a 2.9606875,2.9606875 0 0 0 0.68262,1.820334 q 0.61119,0.6985 1.81504,0.6985 a 6.0457292,6.0457292 0 0 0 1.68275,-0.20373 6.7759792,6.7759792 0 0 0 1.4314,-0.616479 l 0.79375,1.8203334 a 5.508625,5.508625 0 0 1 -1.78065,0.8995824 7.8660625,7.8660625 0 0 1 -2.43946,0.365125 z m -0.19314,-9.07785277 a 1.6430625,1.6430625 0 0 0 -1.37054,0.61118697 3.0506458,3.0506458 0 0 0 -0.57944,1.61925 l 0.0185,0.05027 h 3.59833 v -0.22225 a 2.5426458,2.5426458 0 0 0 -0.39423,-1.510771 Q 146.53,0.88520553 145.64894,0.88785153 Z"
         style="fill:#1baa4b;stroke-width:0.264583"
         id="path824" />
      <path
         d="m 95.174398,19.099122 h -5.18054 v 5.291666 h -0.92869 V 13.103663 h 6.90298 v 0.79375 h -5.97429 v 4.410604 h 5.18054 z"
         style="fill:#1baa4b;stroke-width:0.264583"
         id="path826" />
      <path
         d="m 98.309708,24.382851 h -0.92075 V 12.296684 h 0.92075 z"
         style="fill:#1baa4b;stroke-width:0.264583"
         id="path828" />
      <path
         d="m 105.86356,23.020247 a 2.8495625,2.8495625 0 0 1 -1.0795,1.12977 3.1326667,3.1326667 0 0 1 -1.60866,0.396875 2.5585208,2.5585208 0 0 1 -2.07698,-0.899583 q -0.74877,-0.896937 -0.75142,-2.788708 v -4.85775 h 0.93133 v 4.873625 c 0,1.021291 0.17463,1.756833 0.52917,2.198687 a 1.778,1.778 0 0 0 1.48431,0.66675 2.7119792,2.7119792 0 0 0 1.66952,-0.468312 2.5003125,2.5003125 0 0 0 0.88107,-1.283229 v -5.987521 h 0.92868 v 8.382 h -0.8202 z"
         style="fill:#1baa4b;stroke-width:0.264583"
         id="path830" />
      <path
         d="m 119.64835,21.639122 a 1.7727083,1.7727083 0 0 0 -0.69056,-1.434042 q -0.69056,-0.568854 -2.33891,-1.058333 -1.80446,-0.494771 -2.74638,-1.235605 a 2.4182917,2.4182917 0 0 1 -0.94192,-2.010833 2.5982083,2.5982083 0 0 1 1.05834,-2.116667 4.1962917,4.1962917 0 0 1 2.68816,-0.833437 q 1.72244,0 2.76755,0.941917 a 2.9818542,2.9818542 0 0 1 1.01335,2.38125 l -0.0159,0.04763 h -0.87312 a 2.3997708,2.3997708 0 0 0 -0.80963,-1.852084 2.9897917,2.9897917 0 0 0 -2.08756,-0.735541 q -1.32291,0 -2.06375,0.624416 a 1.9155833,1.9155833 0 0 0 -0.74877,1.529292 1.74625,1.74625 0 0 0 0.67733,1.412875 q 0.67734,0.555625 2.38125,1.034521 a 7.8554792,7.8554792 0 0 1 2.71992,1.277937 2.4712083,2.4712083 0 0 1 0.93663,2.026709 2.5029583,2.5029583 0 0 1 -1.09538,2.116666 4.5640625,4.5640625 0 0 1 -2.76225,0.79375 5.0085625,5.0085625 0 0 1 -2.91042,-0.849312 2.7199167,2.7199167 0 0 1 -1.2012,-2.473854 l 0.0159,-0.04762 h 0.8599 a 2.1642917,2.1642917 0 0 0 0.9816,1.947333 4.0375417,4.0375417 0 0 0 2.24896,0.640292 3.4951458,3.4951458 0 0 0 2.11667,-0.592667 1.8150417,1.8150417 0 0 0 0.8202,-1.534583 z"
         style="fill:#1baa4b;stroke-width:0.264583"
         id="path832" />
      <path
         d="m 123.96635,13.85508 v 2.145771 h 1.85209 v 0.759354 h -1.85209 v 5.461 c 0,0.547687 0.10055,0.936625 0.29898,1.166812 a 0.99483333,0.99483333 0 0 0 0.79375,0.343959 2.6802292,2.6802292 0 0 0 0.33073,-0.01852 c 0.10584,-0.01323 0.23019,-0.0344 0.37571,-0.06615 l 0.13758,0.690563 a 1.9552708,1.9552708 0 0 1 -0.46037,0.150812 2.746375,2.746375 0 0 1 -0.54504,0.05821 1.7436042,1.7436042 0 0 1 -1.37584,-0.55827 c -0.32808,-0.373062 -0.49212,-0.960437 -0.49212,-1.767416 v -5.461 h -1.44727 v -0.759354 h 1.44727 V 13.85508 Z"
         style="fill:#1baa4b;stroke-width:0.264583"
         id="path834" />
      <path
         d="m 132.65792,23.020247 a 2.873375,2.873375 0 0 1 -1.08215,1.12977 3.1167917,3.1167917 0 0 1 -1.60602,0.396875 2.555875,2.555875 0 0 1 -2.07698,-0.899583 q -0.74877,-0.896937 -0.75142,-2.788708 v -4.85775 h 0.92869 v 4.873625 c 0,1.021291 0.17463,1.756833 0.52917,2.198687 a 1.778,1.778 0 0 0 1.48431,0.66675 2.7172708,2.7172708 0 0 0 1.66952,-0.468312 2.4817917,2.4817917 0 0 0 0.87842,-1.283229 v -5.987521 h 0.93133 v 8.382 h -0.81756 z"
         style="fill:#1baa4b;stroke-width:0.264583"
         id="path836" />
      <path
         d="m 135.00477,20.260642 q 0,-2.002895 0.84931,-3.209395 a 2.7331458,2.7331458 0 0 1 2.38125,-1.2065 3.0136042,3.0136042 0 0 1 1.50548,0.365125 3.0691667,3.0691667 0 0 1 1.07421,1.029229 v -4.942417 h 0.92604 v 12.086167 h -0.75935 l -0.13229,-1.217084 a 2.9315833,2.9315833 0 0 1 -1.08479,1.023938 3.1988125,3.1988125 0 0 1 -1.54782,0.357187 2.7860625,2.7860625 0 0 1 -2.35214,-1.119187 q -0.84932,-1.119188 -0.84932,-3.003021 z m 0.93133,0.164042 c 0,1.013354 0.20109,1.817688 0.60855,2.418292 a 2.06375,2.06375 0 0 0 1.83091,0.896937 2.4950208,2.4950208 0 0 0 2.42623,-1.502833 v -3.96875 a 2.9633333,2.9633333 0 0 0 -0.89958,-1.161521 2.38125,2.38125 0 0 0 -1.51077,-0.449792 2.016125,2.016125 0 0 0 -1.85209,1.002771 4.9027292,4.9027292 0 0 0 -0.61647,2.606146 z"
         style="fill:#1baa4b;stroke-width:0.264583"
         id="path838" />
      <path
         d="m 146.27338,22.112726 0.29633,1.000125 h 0.045 l 2.53471,-7.112 h 1.03716 l -3.64066,9.723437 a 4.79425,4.79425 0 0 1 -0.84402,1.447271 1.8997083,1.8997083 0 0 1 -1.51871,0.597958 3.0929792,3.0929792 0 0 1 -0.39688,-0.0344 1.93675,1.93675 0 0 1 -0.33866,-0.07408 l 0.10847,-0.775229 c 0.0609,0 0.1614,0.02117 0.29634,0.0344 0.13494,0.01323 0.23812,0.02117 0.29898,0.02117 a 1.2117917,1.2117917 0 0 0 0.96837,-0.431271 3.7041667,3.7041667 0 0 0 0.61913,-1.103313 l 0.44185,-1.132416 -3.2385,-8.273521 h 1.03188 z"
         style="fill:#1baa4b;stroke-width:0.264583"
         id="path840" />
      <path
         d="M 81.209688,18.892747 A 7.7205417,7.7205417 0 0 0 68.313899,14.114372 v 0 c -0.460375,-0.986896 -1.116542,-1.658938 -1.94998,-1.891771 -0.833437,-0.232834 -1.690687,0 -2.57175,0.552979 v 0 C 62.598899,4.3644775 55.568919,-2.7395854 47.49119,-2.7395854 c -3.868208,0 -7.082896,1.140354 -9.866312,3.60097893 C 37.138044,1.2900185 36.238461,2.2398735 36.238461,2.2398735 l -2.410354,-0.264584 c -5.114396,-0.489479 -9.8425,2.836334 -11.482917,7.6729158 a 9.4615,9.4615 0 0 0 0.370417,7.2046037 c 0.05556,0.111125 -0.232833,0.05292 -0.232833,0.05292 -1.852084,0.198437 -2.955396,0.98425 -3.939646,2.341562 -0.672043,0.928688 -1.389064,5.132917 1.222375,5.132917 h 13.107458 c -0.140229,-1.272646 -0.22225,-2.296583 -0.264583,-3.802063 -0.02381,-0.986895 -0.02646,-1.971145 0,-2.958041 0.01323,-0.849313 0.129646,-1.735667 0,-2.579688 -0.129646,-0.844021 -0.550334,-1.5875 -0.79375,-2.405062 A 9.9695,9.9695 0 0 1 31.550044,8.5925209 c 0.07144,-0.5714997 0.137584,-1.2938114 0.428625,-1.8018114 0.243417,-0.431271 0.814917,-0.669396 1.058334,-0.09525 0.1905,0.425979 -0.320146,1.5239997 -0.264584,2.7278531 0.06086,1.4472704 1.095375,2.1669374 2.460625,2.1404784 1.36525,-0.02646 2.71198,0.711729 2.981855,2.061104 0.11377,0.576792 1.058333,6.233584 -0.529167,5.691188 l -0.0291,0.264583 c 0.05027,1.042459 -0.124354,3.214688 -0.283104,4.796896 h 4.804833 c -0.187854,-1.677458 -0.489479,-4.929187 -0.420688,-6.328833 l -0.03175,-0.298979 c -1.762125,0.600604 -0.714375,-5.656792 -0.587375,-6.294438 0.29898,-1.4922497 1.397,-2.3124574 2.944813,-2.2807074 1.547812,0.03175 2.645833,-1.0583334 2.722562,-2.6458331 0.05556,-1.322916 -0.508,-2.547937 -0.298979,-3.018895 0.283104,-0.635 0.912813,-0.373063 1.185334,0.105833 0.320145,0.563562 0.394229,1.362604 0.473604,1.994958 0.182562,1.476375 0.132291,3.3311031 -0.293688,4.7624985 -0.264583,0.891646 -0.743479,1.730375 -0.875771,2.661709 -0.132291,0.931333 0,1.912937 0,2.854854 q 0.0291,1.635125 0,3.272896 a 48.810333,48.810333 0 0 1 -0.39952,5.228166 h 3.96875 c -0.15875,-1.5875 -0.333375,-3.754437 -0.283105,-4.796896 l -0.0291,-0.264583 c -1.5875,0.542396 -0.642937,-5.114396 -0.529166,-5.691187 0.264583,-1.349375 1.5875,-2.090209 2.981854,-2.061105 1.394354,0.02911 2.399771,-0.693208 2.460625,-2.1404784 0.05027,-1.2038534 -0.460375,-2.3018741 -0.264584,-2.7278531 0.264584,-0.574146 0.8255,-0.336021 1.058334,0.09525 0.288396,0.508 0.354541,1.2303127 0.425979,1.8018124 a 9.9695,9.9695 0 0 1 -0.264583,4.0428321 c -0.240771,0.806979 -0.669396,1.563687 -0.79375,2.405062 -0.124355,0.841375 0,1.730375 0,2.579688 0.01852,0.986896 0.01587,1.971146 0,2.958042 -0.0344,1.505479 -0.119063,2.529416 -0.264584,3.802062 h 23.481765 a 2.0928542,2.0928542 0 0 0 1.87589,-1.137711 7.7496458,7.7496458 0 0 0 0.78846,-4.362979 z m -45.80731,-8.273521 a 1.5875,1.5875 0 1 1 1.5875,-1.5874994 1.5875,1.5875 0 0 1 -1.5875,1.5874994 z m 8.718021,-2.3812488 a 1.68275,1.68275 0 1 1 1.68275,-1.6801037 1.68275,1.68275 0 0 1 -1.693334,1.6695197 z m 8.440208,2.3812488 a 1.5875,1.5875 0 1 1 1.5875,-1.5874994 1.5875,1.5875 0 0 1 -1.5875,1.5874994 z"
         style="fill:#095da8;stroke-width:0.264583"
         id="path842" />
      <path
         d="M 81.095918,10.283205 V 5.3513735 a 0.86254167,0.86254167 0 0 0 -0.86519,-0.865188 h -1.81768 a 0.86254167,0.86254167 0 0 0 -0.86519,0.865188 v 1.058333 c -0.0132,0.473604 -0.45244,0.492125 -0.6059,0.07938 l -0.584726,-2.20663 a 0.1825625,0.1825625 0 0 1 0,-0.08467 c 0.06615,-0.648229 0.182562,-1.852083 0.219604,-2.135187 0.03704,-0.283104 0.216962,-1.56633397 0.288392,-2.07962494 h 0.54769 c 0.28575,0 1.24354,0.01852 1.20121,-0.44449997 a 0.29633333,0.29633333 0 0 0 -0.16669,-0.23283397 0.46566667,0.46566667 0 0 1 -0.10319,-0.05027 c -0.11906,-0.09525 0.0423,-0.17198 0.12436,-0.174625 0.26458,0 1.17475,0 1.05833,-0.46037492 -0.0662,-0.2407711 -0.36777,-0.3571881 -0.58737,-0.3968751 -0.11377,-0.02117 -0.23019,-0.0344 -0.34661,-0.04498 h -0.16668 v 0 c 0,0 0.0159,0 0,0 a 0.06879167,0.06879167 0 0 1 -0.0265,-0.119062 0.47889583,0.47889583 0 0 0 0.0714,-0.04763 c 0.23812,-0.264583 -0.56092,-0.500063 -0.68263,-0.545042 -0.46302,-0.164041 -0.94192,-0.264583 -1.412874,-0.394229 a 0.17727083,0.17727083 0 0 1 -0.127,-0.127 0.37041667,0.37041667 0 0 1 0,-0.1402291 c 0.02381,-0.08731 0.388937,-0.02646 0.388937,-0.264583 0,-0.132292 -0.166687,-0.195792 -0.280458,-0.224896 a 0.1905,0.1905 0 0 1 -0.129646,-0.124354 0.30691667,0.30691667 0 0 0 -0.07937,-0.137584 0.6905625,0.6905625 0 0 0 -0.304271,-0.116416 l -0.209021,-0.05027 a 0.3095625,0.3095625 0 0 1 -0.264583,-0.182563 0.67997917,0.67997917 0 0 1 -0.04498,-0.264583 c 0,-0.304271 0,-0.608542 0,-0.912812 0,-0.264584 0,-0.529167 0,-0.777875 a 0.14816667,0.14816667 0 0 0 -0.142875,-0.14023 h -0.04498 a 0.14816667,0.14816667 0 0 0 -0.153459,0.124355 v 0.79375 c 0,0.30427 0,0.608541 0,0.912812 a 0.66675,0.66675 0 0 1 -0.04498,0.264583 0.3175,0.3175 0 0 1 -0.264583,0.198438 l -0.211667,0.05027 a 0.67997917,0.67997917 0 0 0 -0.301625,0.116416 0.3413125,0.3413125 0 0 0 -0.08202,0.137584 0.1825625,0.1825625 0 0 1 -0.127,0.124354 c -0.116416,0.0291 -0.280458,0.0926 -0.280458,0.224896 0,0.235479 0.365125,0.174625 0.388938,0.264583 a 0.37041667,0.37041667 0 0 1 0,0.1402291 0.17727083,0.17727083 0 0 1 -0.127,0.127 c -0.470959,0.127 -0.949855,0.230188 -1.412875,0.394229 -0.121709,0.04498 -0.92075,0.288396 -0.682625,0.545042 a 0.47889583,0.47889583 0 0 0 0.07144,0.04763 0.06879167,0.06879167 0 0 1 -0.02646,0.119063 c -0.02381,0 -0.01588,0 0,0 v 0 h -0.166688 c -0.116416,0 -0.232833,0.02381 -0.346604,0.04498 -0.219604,0.03969 -0.529167,0.156104 -0.587375,0.3968751 -0.121708,0.45508292 0.79375,0.45508292 1.058333,0.46037492 0.08202,0 0.243417,0.07937 0.124355,0.174625 a 0.48683333,0.48683333 0 0 1 -0.105834,0.05027 0.2936875,0.2936875 0 0 0 -0.164041,0.23283397 c -0.04498,0.46302097 0.915458,0.44449997 1.201208,0.44449997 h 0.624417 c 0.07144,0.51329097 0.246062,1.76477094 0.28575,2.07962494 0.03969,0.314854 0.198437,1.672166 0.264583,2.135187 l -0.01588,0.264584 -0.669396,2.846916 a 0.24341667,0.24341667 0 0 1 -0.248708,0.182563 h -0.09525 a 0.238125,0.238125 0 0 1 -0.224896,-0.238125 v -3.357563 a 0.9525,0.9525 0 0 0 -0.9525,-0.9525 0.238125,0.238125 0 0 1 -0.238125,-0.238125 v -0.232831 a 0.69585417,0.69585417 0 0 0 -0.79375,-0.693208 h -0.965729 a 0.69320833,0.69320833 0 0 0 -0.695854,0.695854 v 4.807479 c -0.01323,0.322792 -0.883709,0.391583 -0.865188,-0.08202 v -8.8847089 a 0.48154167,0.48154167 0 0 0 -0.714295,-0.362479 l -3.108854,1.56368699 a 0.41539583,0.41539583 0 0 0 -0.238125,0.362479 V 2.8246025 a 0.238125,0.238125 0 0 1 -0.404812,0.169333 9.382125,9.382125 0 0 0 -1.11125,-0.915458 c -1.529292,-1.058334 -2.042584,-0.441854 -1.920875,-0.293688 0.407458,0.494771 0.0979,0.103188 0.478895,0.584729 0.103188,0.132292 0.203729,0.264584 0.304271,0.399521 l 0.291042,0.396875 a 20.849167,20.849167 0 0 1 3.175,6.7653948 0.23283333,0.23283333 0 0 0 0.251354,0.1746247 c 0.132292,0 0.264583,-0.01852 0.394229,-0.01852 a 4.2333333,4.2333333 0 0 1 1.127125,0.153459 4.318,4.318 0 0 1 1.754188,0.989541 0.23547917,0.23547917 0 0 0 0.277812,0.0344 9.4350417,9.4350417 0 0 1 4.675188,-1.232958 c 0.309562,0 0.624416,0.01588 0.936625,0.04498 a 9.445625,9.445625 0 0 1 6.199189,3.204104 0.238125,0.238125 0 0 0 0.41539,-0.156104 v -2.262188 c 0,0 0,-0.264583 0,-0.529166 a 0.26458333,0.26458333 0 0 0 0.008,-0.05027 z M 74.563357,4.1977895 c 0,0.01852 -0.06085,0.02381 -0.06615,0 a 0.32279167,0.32279167 0 0 1 0,-0.04498 c -0.05821,-0.529167 -0.216958,-1.902354 -0.243417,-2.177521 -0.02646,-0.275166 -0.08996,-1.18797897 -0.127,-1.74360394 a 0.23547917,0.23547917 0 0 1 0.238125,-0.264583 h 0.01323 a 0.19579167,0.19579167 0 0 1 0.137583,0.05821 0.32014583,0.32014583 0 0 1 0.05556,0.209021 V 4.1845615 Z m 1.489604,-2.219854 c -0.02117,0.235479 -0.142875,1.508125 -0.211667,2.19075 a 0.08202083,0.08202083 0 0 0 0,0.0291 c 0,0.04498 -0.105833,0.04763 -0.103187,0 V 0.25813956 a 0.32014583,0.32014583 0 0 1 0.05556,-0.20902 0.19314583,0.19314583 0 0 1 0.137584,-0.05821 h 0.01587 a 0.238125,0.238125 0 0 1 0.238125,0.264584 C 76.142916,0.80053453 76.076767,1.7503885 76.052954,1.9885135 Z"
         style="fill:#095da8;stroke-width:0.264583"
         id="path844" />
    </g>
  </g>
</svg>
