<?xml version="1.0" encoding="UTF-8" standalone="no"?>
<svg
   xmlns:dc="http://purl.org/dc/elements/1.1/"
   xmlns:cc="http://creativecommons.org/ns#"
   xmlns:rdf="http://www.w3.org/1999/02/22-rdf-syntax-ns#"
   xmlns:svg="http://www.w3.org/2000/svg"
   xmlns="http://www.w3.org/2000/svg"
   xmlns:sodipodi="http://sodipodi.sourceforge.net/DTD/sodipodi-0.dtd"
   xmlns:inkscape="http://www.inkscape.org/namespaces/inkscape"
   width="255.55048mm"
   height="49.413105mm"
   viewBox="0 0 255.55048 49.413098"
   version="1.1"
   id="svg1884"
   inkscape:version="1.0.2 (e86c8708, 2021-01-15)"
   sodipodi:docname="logo.svg">
  <defs
     id="defs1878" />
  <sodipodi:namedview
     id="base"
     pagecolor="#ffffff"
     bordercolor="#666666"
     borderopacity="1.0"
     inkscape:pageopacity="0.0"
     inkscape:pageshadow="2"
     inkscape:zoom="0.54"
     inkscape:cx="624.16686"
     inkscape:cy="212.39165"
     inkscape:document-units="mm"
     inkscape:current-layer="layer1"
     inkscape:document-rotation="0"
     showgrid="false"
     inkscape:window-width="1801"
     inkscape:window-height="942"
     inkscape:window-x="1955"
     inkscape:window-y="25"
     inkscape:window-maximized="0"
     fit-margin-top="0"
     fit-margin-left="0"
     fit-margin-right="0"
     fit-margin-bottom="0"
     units="mm" />
  <metadata
     id="metadata1881">
    <rdf:RDF>
      <cc:Work
         rdf:about="">
        <dc:format>image/svg+xml</dc:format>
        <dc:type
           rdf:resource="http://purl.org/dc/dcmitype/StillImage" />
        <dc:title></dc:title>
      </cc:Work>
    </rdf:RDF>
  </metadata>
  <g
     inkscape:label="Layer 1"
     inkscape:groupmode="layer"
     id="layer1"
     transform="translate(-31.67385,3.7451837)">
    <rect
       width="185.20833"
       height="87.04792"
       style="fill:none;stroke-width:0.264583"
       id="rect846"
       x="15.799406"
       y="-13.285861" />
    <g
       id="g3124"
       transform="matrix(0.91447505,0,0,1.0629806,13.260749,-59.640768)">
      <g
         id="g215"
         style="fill:#005587;fill-rule:nonzero;stroke:none;stroke-width:1"
         transform="matrix(1.1772904,0,0,1.1772904,41.284079,55.90613)">
        <rect
           id="Rectangle"
           x="31.417757"
           y="19.539518"
           width="1"
           height="4.7536569" />
        <path
           d="m 38.747755,22.038876 c 0,0.68001 0.02053,1.31768 0.01411,1.31768 h -0.0077 c -0.0064,0 -0.352836,-0.496535 -0.712086,-0.977675 L 35.92892,19.539518 h -0.517065 v 4.753656 h 0.556839 v -2.49166 c 0,-0.760842 -0.02053,-1.352322 -0.01411,-1.352322 h 0.0077 c 0.0064,0 0.305363,0.43495 0.712086,0.999486 l 2.111881,2.844496 h 0.522196 V 19.539518 H 38.74776 Z"
           id="Path" />
        <path
           d="m 44.33282,21.584681 c -0.632538,-0.191173 -1.290736,-0.354119 -1.290736,-0.876316 0,-0.476007 0.441365,-0.769823 1.066204,-0.769823 0.591481,0 1.086734,0.346421 1.188094,0.923788 l 0.529895,-0.142417 c -0.156531,-0.760842 -0.835258,-1.270208 -1.69746,-1.270208 -0.950731,0 -1.65127,0.550423 -1.65127,1.290736 0,0.821145 0.801899,1.066205 1.345907,1.235566 0.672312,0.210418 1.493456,0.352836 1.493456,1.045676 0,0.495253 -0.428534,0.8699 -1.134205,0.8699 -0.769823,0 -1.229151,-0.488837 -1.297152,-1.039261 l -0.53631,0.142418 c 0.148832,0.801898 0.794201,1.399794 1.812933,1.399794 1.045676,0 1.738517,-0.585065 1.738517,-1.385681 0,-0.92892 -0.903259,-1.227868 -1.567873,-1.424172 z"
           id="path176" />
        <polygon
           id="polygon178"
           points="48.357711,19.539518 48.357711,20.062997 49.947395,20.062997 49.947395,24.293174 50.496536,24.293174 50.496536,20.062997 52.092635,20.062997 52.092635,19.539518 " />
        <rect
           id="rect180"
           x="55.046188"
           y="19.539518"
           width="1"
           height="4.7536569" />
        <polygon
           id="polygon182"
           points="58.555299,19.539518 58.555299,20.062997 60.144983,20.062997 60.144983,24.293174 60.694124,24.293174 60.694124,20.062997 62.290223,20.062997 62.290223,19.539518 " />
        <path
           d="m 68.46292,22.330126 c 0,1.02643 -0.476007,1.539646 -1.399795,1.539646 -0.923787,0 -1.392096,-0.513216 -1.392096,-1.539646 V 19.539518 H 65.11419 v 2.790608 c 0,1.344624 0.706954,2.072106 1.948935,2.072106 1.241981,0 1.955351,-0.727482 1.955351,-2.072106 V 19.545933 H 68.46292 Z"
           id="path184" />
        <polygon
           id="polygon186"
           points="71.842443,19.539518 71.842443,20.062997 73.432127,20.062997 73.432127,24.293174 73.981267,24.293174 73.981267,20.062997 75.577367,20.062997 75.577367,19.539518 " />
        <polygon
           id="polygon188"
           points="79.086477,23.770978 79.086477,22.024763 81.185527,22.024763 81.185527,21.52951 79.086477,21.52951 79.086477,20.062997 81.620477,20.062997 81.620477,19.539518 78.529638,19.539518 78.529638,24.294457 81.620477,24.294457 81.620477,23.770978 " />
        <path
           d="m 36.705158,14.040416 c 0,-0.980241 -0.408006,-1.684629 -1.239415,-1.861689 v -0.01155 c 0.54914,-0.139851 1.141904,-0.769823 1.141904,-1.528099 0,-1.0880161 -0.898127,-1.8950471 -2.218373,-1.8950471 H 31.417757 V 16.2806 h 2.735438 c 1.669233,0 2.551963,-0.948165 2.551963,-2.240184 z M 32.613549,9.756351 h 1.539646 c 0.754426,0 1.259943,0.410572 1.259943,1.026431 0,0.572235 -0.505517,1.034129 -1.259943,1.034129 h -1.539646 z m 1.431871,5.517065 h -1.431871 v -2.535284 h 1.548627 c 0.808314,0 1.30485,0.513215 1.30485,1.270208 0,0.756992 -0.591481,1.265076 -1.421606,1.265076 z"
           id="Shape" />
        <path
           d="m 90.216833,12.178727 v -0.01155 c 0.549141,-0.139851 1.141905,-0.769823 1.141905,-1.528099 0,-1.0880161 -0.898128,-1.8950471 -2.218373,-1.8950471 H 86.168848 V 16.2806 h 2.735437 c 1.66795,0 2.551964,-0.948165 2.551964,-2.240184 0,-0.980241 -0.408007,-1.684629 -1.239416,-1.861689 z M 87.363356,9.756351 h 1.539646 c 0.754426,0 1.259944,0.410572 1.259944,1.026431 0,0.572235 -0.505518,1.034129 -1.259944,1.034129 h -1.539646 z m 1.433154,5.517065 h -1.433154 v -2.535284 h 1.551194 c 0.807031,0 1.304849,0.513215 1.304849,1.270208 0,0.756992 -0.594046,1.265076 -1.422889,1.265076 z"
           id="path191" />
        <path
           d="m 41.698743,13.362972 c 0.958429,-0.355402 1.50757,-1.120093 1.50757,-2.181165 0,-1.4870418 -1.088017,-2.4377731 -2.897101,-2.4377731 H 37.849628 V 16.2806 h 1.194508 v -2.69438 h 1.270208 c 0.0793,0.0022 0.158649,-0.0017 0.237363,-0.01155 l 1.593533,2.703361 h 1.349756 z M 40.450346,12.532846 H 39.039004 V 9.8628433 h 1.411342 c 0.978959,0 1.516552,0.5491407 1.516552,1.3253787 0.0051,0.749294 -0.488838,1.344624 -1.51142,1.344624 z"
           id="path193" />
        <path
           d="m 51.737234,12.512317 c 0,-2.27226 -1.755197,-3.9196816 -3.918399,-3.9196816 -2.163202,0 -3.908134,1.6474216 -3.908134,3.9196816 0,2.272261 1.743649,3.915833 3.908134,3.915833 2.164485,0 3.918399,-1.644855 3.918399,-3.915833 z m -3.918399,2.745702 c -1.551193,0 -2.68155,-1.120092 -2.68155,-2.745702 0,-1.647421 1.130357,-2.7457016 2.68155,-2.7457016 1.551193,0 2.680267,1.0982806 2.680267,2.7457016 0,1.62561 -1.141904,2.745702 -2.680267,2.745702 z"
           id="path195" />
        <polygon
           id="polygon197"
           points="57.22992,8.7440339 51.643572,8.7440339 51.643572,9.8628433 54.077495,9.8628433 54.077495,16.2806 55.26174,16.2806 55.26174,9.8628433 57.900949,9.8628433 " />
        <path
           d="M 73.903002,16.279317 70.721067,8.7440339 h -1.108545 l -3.187067,7.5352831 h 1.283039 l 0.699256,-1.711573 h 3.519374 l 0.699255,1.711573 z m -5.070567,-2.755966 0.973826,-2.355658 c 0.161663,-0.409289 0.343854,-0.980241 0.355402,-0.980241 h 0.01026 c 0.01155,0 0.195022,0.570952 0.355401,0.980241 l 0.969978,2.356941 z"
           id="path199" />
        <path
           d="m 76.021299,10.725045 c 0.01155,0 0.656915,0.936618 1.324095,1.851424 L 80.091096,16.2806 H 81.21632 V 8.7440339 h -1.195792 v 3.2075951 c 0,1.184245 0.03208,2.294073 0.02181,2.294073 h -0.01026 c -0.01155,0 -0.769823,-1.054658 -1.303567,-1.787272 L 75.955863,8.7440339 H 74.835771 V 16.2806 h 1.195792 v -3.197331 c 0,-1.34719 -0.03208,-2.358224 -0.02181,-2.358224 z"
           id="path201" />
        <path
           d="m 95.02951,8.7619965 -3.187067,7.5378495 h 1.283038 l 0.699256,-1.711573 h 3.519374 l 0.700539,1.711573 h 1.283038 L 96.138055,8.7619965 Z m -0.769823,4.7793175 0.968694,-2.356941 c 0.161663,-0.40929 0.343854,-0.980242 0.355402,-0.980242 h 0.0026 c 0.01155,0 0.193738,0.570952 0.355401,0.980242 l 0.969977,2.356941 z"
           id="path203" />
        <polygon
           id="polygon205"
           points="103.03824,8.7440339 98.480883,8.7440339 98.480883,9.8628433 100.91352,9.8628433 100.91352,16.2806 102.09777,16.2806 102.09777,9.8628433 103.85938,9.8628433 " />
        <path
           d="m 109.69977,8.7440339 -1.71286,2.3094691 c -0.19374,0.269438 -0.41955,0.581216 -0.42981,0.581216 h -0.0115 c -0.0103,0 -0.23608,-0.311778 -0.44008,-0.581216 l -1.71286,-2.3094691 h -1.34976 l 2.90737,3.9633051 v 3.574544 h 1.18424 v -3.574544 l 2.90737,-3.9620221 z"
           id="path207" />
        <path
           d="M 65.496536,16.2806 V 8.7440339 h -1.120093 c 0,0 -2.437772,4.1775721 -2.444187,4.1775721 h -0.01027 c -0.01026,0 -2.400564,-4.1775721 -2.400564,-4.1775721 H 58.21144 l 3.398768,5.6735951 h 0.623557 c 0,0 2.122145,-3.670772 2.132409,-3.670772 h 0.01026 c 0.01155,0 -0.05389,5.533743 -0.05389,5.533743 z"
           id="path209" />
        <polygon
           id="polygon211"
           points="59.521427,16.279317 59.515011,12.582884 58.347447,10.636515 58.347447,16.279317 " />
        <path
           d="m 21.780857,15.315756 -0.200154,0.179625 c -0.328154,0.292678 -0.675801,0.562737 -1.040544,0.808314 v 0 l -0.04619,0.03336 c -0.444273,0.299319 -0.912455,0.561518 -1.399795,0.783937 l -0.384912,0.17321 0.322043,0.273287 c 1.462274,1.227893 2.303664,3.041815 2.296639,4.951244 0,0.136002 0,0.270721 -0.01283,0.406724 -0.01283,0.136002 -0.02181,0.273287 -0.03977,0.409289 -0.124394,0.97773 -0.475913,1.912772 -1.026431,2.730305 -0.326004,0.479904 -0.714311,0.914377 -1.154734,1.29202 -0.146266,0.125737 -0.297665,0.24506 -0.454196,0.357967 -1.136348,0.817024 -2.500859,1.256002 -3.900436,1.254812 H 3.5052605 v -9.086477 c 0,-1.556325 1.0969976,-2.797024 2.7290223,-3.088273 2.6584552,-0.472158 5.0320762,-0.458045 7.3518092,-0.443931 0.39261,0 0.769823,0 1.145753,0 5.969977,0 8.135745,-4.852451 8.135745,-8.1139342 -0.0092,-4.333506 -3.522529,-7.84282929 -7.856043,-7.84706186 H 0.01796254 V 14.932127 C 0.47087503,14.162304 1.073903,13.649089 1.6859122,13.232102 2.2413519,12.860432 2.845931,12.568075 3.4821658,12.363485 V 3.7016936 H 14.212215 c 1.302952,0.00542 2.549883,0.5305175 3.464203,1.4588145 0.330916,0.3345843 0.611027,0.7158463 0.831408,1.1316397 0.35954,0.6814976 0.540938,1.4428367 0.527329,2.213241 -0.05631,2.5684472 -2.148692,4.6244112 -4.717731,4.6356172 l -0.701822,0.01155 h -0.33359 c -0.112908,0 -0.224532,0 -0.338722,0 -0.360534,-0.009 -0.70952,-0.01411 -1.053375,-0.0154 H 11.5961 c -0.284835,0 -0.564537,0.003 -0.839107,0.009 l -0.357968,0.009 c -0.220683,0 -0.4362331,0.01411 -0.6492174,0.0231 -0.1552477,0.0064 -0.3079293,0.01411 -0.4593277,0.02309 l -0.3541186,0.02309 c -0.5478573,0.01796 -1.0559405,0.04747 -1.5293816,0.08853 -0.5683859,0.04876 -1.0854503,0.114191 -1.5588914,0.195022 -0.2360791,0.03977 -0.4618938,0.08468 -0.6761612,0.128304 -0.1437003,0.03208 -0.2822684,0.06672 -0.4169874,0.10136 l -0.1988709,0.05517 c -0.1283039,0.03721 -0.2566077,0.0757 -0.3784963,0.116757 C 3.4747026,14.133474 2.8148612,14.474891 2.2260713,14.919297 0.41698743,16.31011 0,18.0961 0,19.545933 v 13.063895 h 14.309725 l 0.266872,-0.01668 v 0 c 3.991454,-0.102675 7.560036,-2.513779 9.144725,-6.178613 1.584689,-3.664834 0.897049,-7.916346 -1.762123,-10.894777 z"
           id="path213" />
      </g>
    </g>
    <path
       d="m 219.70438,1.0238878 v 0.1858597 c -0.37217,0.062035 -0.85079,0.1858602 -0.85079,1.0526046 0,0.062034 0,0.4334241 0.0532,0.9287828 l 0.69126,8.3589501 c 0.1063,1.114507 0.15943,1.48602 1.01039,1.795599 v 0.185862 h -3.13745 v -0.185862 c 0.47858,-0.185861 0.85084,-0.371487 0.85084,-1.176418 0,-0.18586 0,-0.18586 -0.0532,-0.866875 L 217.57743,2.8196227 213.7486,13.531442 H 213.589 L 209.65381,3.00538 209.0157,11.42624 c -0.0532,0.247639 -0.0532,0.495332 -0.0532,0.743026 0,0.804931 0.37225,0.990662 0.85086,1.176418 v 0.185862 h -2.60575 v -0.185862 c 0.74452,-0.185861 0.85089,-0.495335 0.95725,-1.795599 l 0.69125,-8.2970382 c 0.0532,-0.5572706 0.0532,-0.7430272 0.0532,-0.8668476 0,-0.8668485 -0.31908,-0.9906937 -0.85082,-1.1145412 V 1.0240157 h 2.28662 l 3.56285,9.5973163 3.56287,-9.5973163 z m 7.76397,10.5260692 c -0.15961,0.309604 -0.31908,0.619179 -0.47859,0.866866 -0.58494,0.928758 -1.54219,1.42411 -2.49933,1.42411 -2.23351,0 -3.35021,-2.04331 -3.35021,-4.2104238 0,-2.1671499 1.16992,-4.4581128 3.4034,-4.4581128 1.70165,0 3.03107,1.3002701 3.08428,3.8389135 h -5.37098 c 0,0.309577 0,0.6191993 0.0532,0.9287763 0.10642,1.5479588 1.16993,2.7244028 2.49934,2.7244028 0.90405,-0.06204 1.80805,-0.557263 2.39297,-1.362199 z m -1.11672,-3.2197379 c -0.0532,-1.7337047 -0.95723,-2.4147971 -1.8612,-2.4147971 -1.01041,0 -1.86126,0.804938 -2.18029,2.4147971 z m 8.82744,-7.49208844 V 10.868872 c 0,1.238354 0.15943,1.486013 0.6913,1.671771 l 0.0532,0.18586 -1.11673,1.114535 c -0.37221,-0.309596 -0.63812,-0.743021 -0.74448,-1.300292 -0.79763,0.804938 -1.43581,1.300292 -2.44614,1.300292 -2.02075,0 -3.19068,-1.79562 -3.19068,-4.0246705 0,-2.414813 1.27626,-4.6438694 3.5097,-4.6438694 0.69131,0 1.38267,0.1858601 1.9676,0.6191799 V 3.376867 c 0,-0.5572443 -0.0532,-1.1764251 -0.85085,-1.0526047 l -0.0532,-0.1858601 z m -1.16991,7.67781794 c 0,-0.4334103 -0.0532,-0.8668318 -0.1594,-1.3002559 -0.31909,-0.8049355 -1.01037,-1.3622061 -1.75486,-1.3002707 -1.54217,0 -2.39297,1.5479373 -2.39297,3.5293131 0,2.1052219 1.11668,3.3435749 2.3398,3.3435749 0.31902,0 0.58493,-0.06204 0.90398,-0.18586 0.42547,-0.18586 0.79762,-0.557236 1.11673,-0.990661 z m 3.2438,-0.9906531 c 0,-0.5572706 0,-0.9287811 -0.74445,-0.9287811 l -0.0532,-0.1858615 2.02075,-1.3622061 v 6.6871642 c 0,0.990684 0,1.3622 0.85081,1.609866 v 0.185861 h -2.81839 v -0.185861 c 0.74451,-0.247641 0.74451,-0.619182 0.74451,-1.671778 z m 1.38268,-5.6345605 c 0,0.4953364 -0.31911,0.9287852 -0.7445,0.9287852 0,0 -0.0532,0 -0.0532,0 -0.42544,0 -0.74454,-0.3715151 -0.74454,-0.8049375 0,0 0,0 0,0 0,-0.4953615 0.3191,-0.9287864 0.74454,-0.9287864 0,0 0.0532,0 0.0532,0 0.42539,-0.062035 0.7445,0.3096053 0.7445,0.8049387 0,0 0,0 0,0 z m 7.23213,9.659222 c -0.85085,1.981381 -1.96756,2.290976 -2.87162,2.290976 -0.90398,0.06179 -1.70169,-0.433443 -2.23347,-1.30029 -0.53172,-0.804931 -0.79763,-1.795617 -0.79763,-2.8482245 0,-1.1145337 0.26591,-2.2909692 0.90403,-3.157816 0.58494,-0.9287837 1.48896,-1.4241178 2.44617,-1.3622061 0.79764,0 1.59534,0.3096032 2.23348,0.9287811 l -0.2659,1.6098495 h -0.15942 c -0.26591,-0.6810901 -0.63815,-1.795605 -1.91437,-1.795605 -1.59534,0 -2.12715,1.9194506 -2.12715,3.343553 0,2.105225 1.11674,3.467426 2.39301,3.467426 0.85084,-0.123813 1.64851,-0.557265 2.1803,-1.362201 z m 1.22308,-4.0246615 c 0,-0.5572706 0,-0.9287811 -0.74451,-0.9287811 l -0.10629,-0.1858615 2.02074,-1.3622061 v 6.6871642 c 0,0.990684 0,1.3622 0.85085,1.609866 v 0.185861 h -2.81843 v -0.185861 c 0.74448,-0.247641 0.74448,-0.619182 0.74448,-1.671778 z m 1.38263,-5.6345605 c 0,0.4953364 -0.31909,0.9287852 -0.74452,0.9287852 0,0 -0.0532,0 -0.0532,0 -0.42536,0 -0.74444,-0.3715151 -0.74444,-0.8049375 0,0 0,0 0,0 0,-0.4953615 0.31908,-0.9287864 0.74444,-0.9287864 0,0 0.0532,0 0.0532,0 0.37226,-0.062035 0.74452,0.3096053 0.74452,0.8049387 0,0 0,0 0,0 z m 3.24381,3.1578143 v 1.3622079 c 0.58497,-0.8049384 1.43583,-1.3002725 2.33981,-1.2383608 0.74447,-0.062034 1.43582,0.3096032 1.91439,0.990693 0.42542,0.6810919 0.42542,1.3002699 0.42542,2.2909498 v 3.1578528 c 0,1.052597 0.0532,1.486022 0.85088,1.67178 v 0.185859 h -2.76523 v -0.185859 c 0.26585,0 0.53176,-0.247642 0.69127,-0.495362 0.0532,-0.18586 0.10642,-0.309578 0.10642,-1.114508 v -3.40552 c 0.0532,-0.6191652 -0.15941,-1.2383451 -0.53177,-1.6717676 -0.31901,-0.3095776 -0.74445,-0.433425 -1.16991,-0.433425 -0.47855,0 -0.904,0.123817 -1.27625,0.4953326 -0.42545,0.4334251 -0.63812,1.052605 -0.53178,1.6717971 v 3.2816729 c 0,1.176418 0.10642,1.424111 0.85088,1.67178 v 0.185859 h -2.92478 v -0.185859 c 0.79766,-0.185861 0.79766,-0.80494 0.79766,-1.67178 V 8.1444763 c 0,-1.1145394 0,-1.5479619 -0.79766,-1.5479619 l -0.0532,-0.1858615 z m 12.12451,6.5014077 c -0.1596,0.309604 -0.31908,0.619179 -0.4786,0.866866 -0.58494,0.928758 -1.5422,1.42411 -2.49933,1.42411 -2.23347,0 -3.3502,-2.04331 -3.3502,-4.2104238 0,-2.1671499 1.16989,-4.4581128 3.45656,-4.4581128 1.70168,0 3.03108,1.3002701 3.08427,3.8389135 h -5.37094 c 0,0.309577 0,0.6191993 0.0532,0.9287763 0.1063,1.5479588 1.16991,2.7244028 2.49932,2.7244028 0.90407,-0.06204 1.80805,-0.557263 2.39301,-1.362199 z m -1.11669,-3.2197379 c -0.0532,-1.7337047 -0.95728,-2.4147971 -1.86124,-2.4147971 -1.01042,0 -1.86122,0.804938 -2.18031,2.4147971 z M 205.18693,0.96195097 c -0.1063,-0.12381657 -0.4254,-0.12381657 -0.7977,-0.0620345 l -0.47862,0.0620345 -0.53169,-0.0620345 c -0.42546,-0.061779 -0.90405,-0.12381657 -1.0636,0.0620345 l -0.0532,0.12381653 v 0 c 0,0.1858597 0.15941,0.24764 0.26587,0.3096032 0.26593,0.062035 0.47861,0.3095775 0.53177,0.6191807 0,0.1238169 0.0532,0.1858601 0.0532,0.3095779 0,0 0,0 0,0 0,0.8049381 -1.1699,4.5200477 -2.39296,7.9255317 -0.47865,-1.486049 -2.12715,-7.9874419 -2.12715,-8.0493512 0,-0.1858618 -0.0532,-0.3715143 -0.0532,-0.4953616 v 0 c 0,-0.433423 0.15961,-0.433423 0.31909,-0.433423 0.10642,0 0.21268,-0.062034 0.21268,-0.247642 l -0.0532,-0.12381644 c -0.15941,-0.0617833 -0.58493,-0.0617833 -1.22307,0 l -0.58498,0.0620345 -0.58493,-0.0620345 c -0.4786,-0.0617833 -0.90402,-0.12381657 -1.06357,0.0620345 l -0.0532,0.18585844 v 0 c 0,0.1858596 0.15962,0.247642 0.26593,0.247642 0.31904,0.061784 0.58496,0.3096033 0.74448,0.6191809 0.10642,0.18586 0.21269,0.4953604 0.42544,1.1145412 l 0.53178,1.4860282 c 0,0.061782 -1.86119,5.448808 -1.96763,5.696475 -0.26584,-0.8049583 -1.75488,-5.4488075 -2.5525,-7.9874413 V 2.076744 1.7671386 c 0,-0.4334227 0.15961,-0.4334227 0.31909,-0.4334227 0.10642,0 0.2127,-0.062035 0.26587,-0.2476422 l -0.0532,-0.12381647 c -0.10641,-0.12381649 -0.53178,-0.12381649 -1.16987,-0.0620345 l -0.58501,0.0620345 -0.58493,-0.0620345 c -0.3191,-0.0617833 -0.58495,-0.0617833 -0.90403,0 -0.0532,0 -0.10642,0 -0.21269,0.0620345 l -0.47864,0.0620345 -0.58496,-0.0620345 c -0.37221,-0.0620345 -0.74446,-0.12381649 -0.85083,0.0620345 l -0.0532,0.1238166 c 0,0.2476414 0.21269,0.3096033 0.42546,0.3096033 0,0 0.1063,0 0.1063,0 0.47861,0.062035 1.06356,0.1238166 1.06356,3.5912385 v 4.2104264 c 0,2.1671335 -1.16992,3.4674235 -3.24387,3.5293335 -0.90406,0.123811 -1.80805,-0.247641 -2.49934,-0.928777 -0.90405,-0.990661 -1.01044,-2.7244021 -1.01044,-4.3961739 V 2.2626232 c -0.0532,-0.4334255 0.15964,-0.8049129 0.53183,-0.8668483 0.1594,-0.062035 0.26585,-0.1238166 0.26585,-0.3095776 l -0.10643,-0.18585983 c -0.15937,-0.12381648 -0.53177,0 -0.90398,0.0620345 -0.2127,0.0620344 -0.47863,0.12381643 -0.74453,0.12381643 -0.26586,0 -0.47854,-0.062035 -0.74448,-0.12381643 -0.47861,-0.0620345 -0.90398,-0.12381649 -1.11675,0 -0.0532,0.0620344 -0.0532,0.12381643 -0.0532,0.18585973 0,0.2476421 0.1596,0.3095777 0.37226,0.3715131 0.37221,0.1238166 0.85083,0.247642 0.85083,1.6098493 v 6.0679695 c 0,1.0526264 0.37226,2.1052204 1.01037,2.8482504 1.0636,1.052596 2.44619,1.609869 3.82887,1.486021 3.45648,-0.123811 4.14786,-2.662467 4.14786,-4.7057856 V 2.262744 c 0,-0.4953333 0.10642,-0.6810905 0.26586,-0.743001 0.26591,0.062035 0.58494,0.3095774 0.79764,1.0526039 0,0.062034 2.12715,6.1298815 2.60575,7.7397751 l 0.90401,3.1578 c 0,0.06204 0.0532,0.123812 0.15961,0.123812 0.10629,0 0.1596,-0.123812 0.1596,-0.123812 0.37229,-1.486021 2.2867,-7.0586703 2.60572,-7.9874288 0.31908,0.9287585 2.12716,6.7490758 2.39307,7.9874288 0,0.123812 0.0532,0.185859 0.15939,0.185859 0.1063,0 0.15963,-0.06178 0.15963,-0.123812 0,0 0.3191,-1.052605 0.3191,-1.052605 l 0.53178,-1.671771 c 0,0 0.47854,-1.4241389 0.47854,-1.486076 0,0 2.12714,-6.6252141 2.12714,-6.6252141 0.42545,-1.238361 0.85084,-1.238361 1.06357,-1.300271 0.10643,0 0.26586,0 0.26586,-0.247642 0,-0.1238166 0,-0.18585839 -0.0532,-0.18585839 z"
       id="path794"
       style="fill:#4b2e83;fill-rule:nonzero;stroke:none;stroke-width:0.6312" />
    <g
       id="g1405"
       transform="matrix(0.90327123,0,0,0.89007932,108.05025,3.2978306)">
      <path
         d="m 78.540101,33.188892 c 0.11903,-0.0108 0.23804,-0.03115 0.35705,-0.03115 q 39.256509,-0.0019 78.513089,0.0046 c 0.12239,0 0.35282,0.09652 0.35072,0.135819 -0.0144,0.278659 -0.228,0.139429 -0.34687,0.139465 q -30.35382,0.01097 -60.707549,0.0071 -8.88775,0 -17.77544,4.69e-4 c -0.13034,0 -0.26067,0.0073 -0.391,0.01097 z"
         id="path323"
         style="stroke-width:0.444664" />
      <path
         d="m 154.34623,43.549962 a 0.98264827,1.0900501 0 0 1 0.0501,-0.354295 c 0.29132,-0.596471 0.59305,-1.187042 0.90002,-1.773913 a 0.66283901,0.73528621 0 0 0 0.042,-0.725122 c -0.31601,-0.78081 -0.61573,-1.569767 -0.93132,-2.350809 -0.0972,-0.240021 -0.1907,-0.498309 -0.48078,-0.543269 -0.0397,-0.0062 -0.0696,-0.09006 -0.10404,-0.137978 0.0512,-0.03938 0.10197,-0.112029 0.15383,-0.113002 0.46104,-0.0089 0.92228,-0.0078 1.38331,-4.69e-4 0.0452,9.36e-4 0.0895,0.06089 0.13435,0.09367 -0.0301,0.04979 -0.053,0.133287 -0.0919,0.143961 -0.27232,0.07441 -0.22127,0.261378 -0.14313,0.462245 0.21722,0.558303 0.43487,1.116372 0.6808,1.747172 0.23444,-0.632253 0.4395,-1.186903 0.64595,-1.741037 0.0743,-0.199276 0.085,-0.364878 -0.14074,-0.456579 -0.0488,-0.01986 -0.0756,-0.106506 -0.1125,-0.16237 0.0574,-0.03062 0.11441,-0.08585 0.17264,-0.08776 q 0.42016,-0.01398 0.84087,2.81e-4 c 0.0557,0.0019 0.10947,0.06263 0.16415,0.09621 -0.0413,0.05259 -0.0806,0.107709 -0.1243,0.157413 -0.16196,0.184477 -0.38919,0.335608 -0.47813,0.55582 -0.64322,1.592762 -1.25633,3.200461 -1.88661,4.799686 a 2.0286251,2.2503505 0 0 1 -0.25331,0.390545 z"
         id="path325"
         style="stroke-width:0.444664" />
      <path
         d="M 159.93785,42.328405 V 20.238861 h 3.10956 c 0.0311,0.692434 0.0523,1.368429 0.0943,2.042785 0.0421,0.677166 0.16325,1.354706 0.14489,2.028593 a 16.267715,18.045749 0 0 0 0.29574,3.020388 c 0.0938,0.757392 0.10771,1.526774 0.16828,2.289643 a 2.1551555,2.3907105 0 0 0 0.11361,0.483276 c 0.35233,1.262351 0.67935,2.534584 1.07169,3.781526 a 10.061136,11.160802 0 0 0 0.79047,1.828239 c 0.33273,0.646303 0.71582,1.261928 1.09858,1.874325 a 2.5380823,2.8154905 0 0 0 0.56575,0.681568 4.0562792,4.4996238 0 0 1 1.17499,1.452868 1.6991054,1.8848149 0 0 0 1.41476,1.043076 1.6136963,1.7900707 0 0 0 0.50785,-0.03048 q 0.78359,-0.225222 1.55674,-0.494282 c 0.34261,-0.118861 0.38035,-0.44932 0.38842,-0.78507 0.008,-0.329519 -0.082,-0.616843 -0.39036,-0.705921 a 3.5198017,3.9045102 0 0 0 -0.77032,-0.09573 c -0.55075,-0.01963 -1.10391,0.0083 -1.65268,-0.03574 a 0.64873784,0.71964381 0 0 1 -0.51476,-1.036472 c 0.0678,-0.135164 0.30772,-0.201009 0.47813,-0.228734 0.45414,-0.07381 0.92137,-0.06735 1.36789,-0.17276 a 1.4036988,1.5571208 0 0 0 1.04007,-0.772754 c 0.13707,-0.298235 0.10739,-0.444918 -0.17023,-0.54294 a 1.9448203,2.1573859 0 0 0 -1.68565,0.02811 1.0860849,1.2047922 0 0 1 -0.49091,0.08505 1.2068314,1.3387361 0 0 1 -0.32424,-0.06632 0.91530889,1.0153506 0 0 0 -1.08082,0.487536 0.73841109,0.8191182 0 0 1 -1.24436,-0.04613 2.8106908,3.1178946 0 0 1 -0.2322,-0.948378 0.40082761,0.4446374 0 0 1 0.14122,-0.374669 0.83517714,0.92646062 0 0 0 0.36946,-0.655249 0.66427445,0.73687855 0 0 1 0.59352,-0.604571 0.8390613,0.93076931 0 0 0 0.70273,-0.946037 0.35261347,0.39115354 0 0 0 -0.31803,-0.4696 c -0.10707,-0.02407 -0.19621,-0.145979 -0.29348,-0.223489 0.10707,-0.07367 0.20899,-0.196701 0.32244,-0.211642 a 0.66608987,0.73889239 0 0 0 0.62322,-0.564766 c 0.13292,-0.450865 0.51086,-0.562563 0.88395,-0.637402 a 2.4655921,2.7350773 0 0 1 0.39083,-0.01133 c 0.39625,-0.0078 0.55306,-0.244142 0.40061,-0.651968 a 0.8567933,0.95043939 0 0 0 -0.30711,-0.432602 0.73646902,0.81696386 0 0 1 -0.37152,-0.840755 6.002535,6.6586021 0 0 0 -0.18664,-2.348373 1.8569624,2.0599254 0 0 0 -0.70582,-1.201656 c -0.34094,-0.263626 -0.31665,-0.439017 0.0254,-0.701097 a 1.4965385,1.6601077 0 0 0 0.78764,-1.671957 0.35223349,0.39073203 0 0 1 0.1433,-0.292381 11.988773,13.299126 0 0 1 4.87376,-2.334511 1.5395597,1.707831 0 0 1 0.27058,-0.0081 q 2.19915,-4.68e-4 4.39826,-2.81e-4 h 0.34058 V 42.32893 Z m 14.4178,-17.336551 c -0.53808,0.11137 -0.53808,0.11137 -1.04833,-0.321558 a 0.61977558,0.68751603 0 0 0 -0.90518,0.346989 2.4191513,2.6835605 0 0 1 -0.24437,0.739267 c -0.28045,0.47892 -0.3082,0.658433 0,1.105272 a 0.78725854,0.87330459 0 0 1 0.14314,0.902482 1.0204343,1.1319661 0 0 0 0.23643,1.235937 c 0.23828,0.283435 0.52097,0.520272 0.7726,0.79083 a 1.5783168,1.7508242 0 0 1 0.33652,0.459342 c 0.13675,0.312052 0.0188,0.45897 -0.28987,0.489693 a 0.69471438,0.77064552 0 0 0 -0.42683,0.21623 c -0.21401,0.268543 -0.37153,0.591508 -0.57537,0.871477 -0.13212,0.181434 -0.12717,0.328912 0.031,0.451195 a 2.6019598,2.8863497 0 0 0 0.56996,0.361508 c 0.45069,0.183728 0.91289,0.332518 1.37077,0.494562 a 1.1593772,1.2860952 0 0 1 0.82685,0.926741 c 0.061,0.241989 0.0552,0.61216 0.36567,0.60846 0.30477,-0.0037 0.37075,-0.357761 0.40563,-0.620637 0.11936,-0.899858 0.25065,-1.802246 0.29616,-2.708709 a 9.8386841,10.914036 0 0 1 0.62822,-3.848076 2.9907127,3.3175927 0 0 0 0.20427,-1.168262 0.81562974,0.90477672 0 0 0 -0.63236,-1.002239 3.2034544,3.5535867 0 0 0 -1.60433,0.09011 4.684583,5.1966002 0 0 1 -0.48092,0.09503 z m -0.57895,-2.915011 a 0.79793994,0.88515346 0 0 0 -0.19603,0.02482 4.1945043,4.6529566 0 0 0 -1.64797,1.53937 c -0.14042,0.19436 0.0228,0.309102 0.20915,0.271307 0.2843,-0.05737 0.56621,-0.133242 0.84587,-0.214966 0.59849,-0.174923 1.19639,-0.352984 1.79122,-0.542613 0.15302,-0.0488 0.34527,-0.139704 0.16402,-0.366379 a 1.8074395,2.0049897 0 0 0 -1.16638,-0.711541 z m -5.66123,13.008477 0.0579,0.07714 a 0.33602137,0.37274795 0 0 0 0.11042,-0.03916 1.1427429,1.2676428 0 0 1 1.20911,-0.164812 0.61133177,0.67814932 0 0 0 0.49034,-0.125039 1.2363847,1.3715195 0 0 1 0.7954,-0.321419 2.880901,3.1957787 0 0 0 0.38871,-0.05151 l -0.003,-0.10771 a 2.147514,2.3822337 0 0 0 -1.86188,-0.217962 1.6916748,1.8765721 0 0 0 -1.18694,0.950486 z m 3.39377,-3.934763 a 0.82382022,0.91386241 0 0 0 0.90003,-1.053006 0.48919207,0.54265995 0 0 0 -0.84105,-0.37167 2.1265732,2.3590042 0 0 0 -0.46372,0.799307 c -0.16302,0.436443 -0.0191,0.628833 0.40461,0.625369 z"
         id="path327"
         style="stroke-width:0.444664" />
      <path
         d="m 124.13644,30.702079 c -0.0922,-0.281001 -0.003,-0.381085 0.20738,-0.434989 0.62062,-0.158866 0.75222,-0.317532 0.76471,-1.02158 0.0179,-1.009638 0.005,-2.019977 0.005,-3.04727 h -3.94698 a 1.8618599,2.0653581 0 0 0 -0.0219,0.226393 c 0.002,0.913254 -3.9e-4,1.826507 0.0112,2.739479 0.01,0.762357 0.12127,0.921496 0.78754,1.10841 0.20591,0.05774 0.26543,0.165326 0.19342,0.429979 -0.0807,0 -0.17602,0 -0.27127,0 -0.99214,0 -1.98429,0.0042 -2.97644,-0.0074 -0.101,-9.36e-4 -0.26552,-0.07535 -0.28907,-0.15582 -0.0619,-0.211593 0.11218,-0.236135 0.25129,-0.272149 0.58595,-0.151785 0.72472,-0.284327 0.73486,-0.93934 0.0281,-1.81419 0.0254,-3.628943 0.0319,-5.443507 8.5e-4,-0.266951 -0.003,-0.534746 -0.0207,-0.800853 -0.0456,-0.678103 -0.1731,-0.835604 -0.77287,-0.988422 -0.23334,-0.05948 -0.23334,-0.05948 -0.21022,-0.369985 h 3.53547 c 0.0429,0.194266 0.0332,0.322824 -0.1967,0.37523 -0.61981,0.141344 -0.77534,0.337857 -0.79291,1.042468 -0.0203,0.812093 -0.005,1.625357 -0.005,2.465409 h 3.96609 c 0,-0.27435 8.5e-4,-0.559004 -2.5e-4,-0.843658 -0.003,-0.556804 0.006,-1.114076 -0.0128,-1.670271 -0.0217,-0.656137 -0.18243,-0.864031 -0.76872,-0.991746 -0.20688,-0.0451 -0.28173,-0.137504 -0.22427,-0.377432 h 3.53968 c 0.057,0.206068 0.0206,0.323573 -0.21299,0.377057 -0.59508,0.136238 -0.75571,0.323479 -0.75994,0.994931 -0.0128,2.104183 -0.008,4.208554 0.003,6.312785 a 0.66828526,0.74132773 0 0 0 0.5991,0.828531 c 0.0388,0.0115 0.0788,0.01699 0.11792,0.02683 0.14584,0.03648 0.34053,0.0585 0.26075,0.290087 -0.0287,0.08318 -0.21689,0.138669 -0.33194,0.138067 -0.39073,-0.0023 -0.78143,-0.05441 -1.17191,-0.05151 -0.58148,0.0042 -1.16281,0.03921 -1.74419,0.05985 -0.0967,0.0034 -0.19388,4.23e-4 -0.2776,4.23e-4 z"
         id="path329"
         style="stroke-width:0.444664" />
      <path
         d="m 154.67555,30.679318 c -0.0948,-0.313785 0.0254,-0.388017 0.2284,-0.428294 0.44094,-0.08753 0.54884,-0.206441 0.55776,-0.706669 0.0193,-1.079841 0.0295,-2.160572 0.0112,-3.240272 -0.008,-0.525098 -0.11521,-1.058719 -0.64113,-1.24624 a 1.6028039,1.7779877 0 0 0 -1.61464,0.304792 0.87114777,0.96636278 0 0 0 -0.24762,0.644899 c -0.023,1.224509 -0.0128,2.449861 -0.008,3.674886 a 0.45233485,0.5017743 0 0 0 0.35464,0.515543 0.86287284,0.95718341 0 0 1 0.2306,0.06556 1.8354308,2.0360404 0 0 1 0.24386,0.25721 c -0.0911,0.05339 -0.1818,0.152263 -0.2732,0.152953 -0.73221,0.0058 -1.46458,-0.0076 -2.19687,-0.01381 -0.22723,-0.0019 -0.45445,-3.29e-4 -0.67627,-3.29e-4 -0.0882,-0.268683 0.002,-0.361788 0.21705,-0.401597 0.54923,-0.101444 0.65799,-0.230327 0.65938,-0.823568 q 0.008,-3.541784 0,-7.083616 c -4.3e-4,-0.405953 -0.1034,-0.507535 -0.47441,-0.594036 -0.1551,-0.0362 -0.41138,0.05985 -0.41915,-0.246954 -0.008,-0.302825 0.25111,-0.229952 0.4053,-0.280485 0.48973,-0.160685 0.98337,-0.308446 1.47746,-0.452787 0.37367,-0.109168 0.44824,-0.04463 0.44814,0.388437 0,1.113795 -0.006,2.227543 -0.01,3.341291 -3.5e-4,0.118769 0,0.237493 0,0.427402 a 2.9897417,3.3165156 0 0 1 1.61382,-0.863329 3.6300356,4.0267925 0 0 1 0.92823,-0.01315 c 0.86308,0.134553 1.33285,0.76985 1.37056,1.849925 0.0282,0.812 0.0164,1.625638 0.0246,2.438528 0.005,0.400661 0.0128,0.801228 0.0193,1.201842 0.008,0.451944 0.13021,0.612347 0.53664,0.696368 0.0691,0.01434 0.15542,-4.69e-4 0.2043,0.04092 a 0.38178683,0.4235155 0 0 1 0.14584,0.236744 c 0.006,0.04098 -0.1085,0.144527 -0.17386,0.150705 -0.16849,0.01593 -0.33995,-0.01345 -0.51017,-0.01239 -0.68214,0.0037 -1.36423,0.01292 -2.04632,0.01944 -0.12766,9.36e-4 -0.2558,4.8e-5 -0.38697,4.8e-5 z"
         id="path331"
         style="stroke-width:0.444664" />
      <path
         d="m 93.88314,30.819583 c 0,-0.858223 -8.5e-4,-1.656735 0,-2.455293 0.003,-1.970146 0.0142,-3.940386 0.004,-5.910391 -0.003,-0.576052 -0.0577,-0.596705 -0.5936,-0.713555 -0.114,-0.02492 -0.28063,-0.120878 -0.30377,-0.21876 -0.0565,-0.239178 0.15576,-0.230842 0.29262,-0.271634 0.54172,-0.161248 1.08351,-0.322261 1.6267,-0.477046 0.33032,-0.09413 0.39078,-0.04117 0.39154,0.341416 0.002,1.15646 8.5e-4,2.312967 8.5e-4,3.479403 0.0439,-0.0023 0.0781,0.0073 0.098,-0.0072 1.655408,-1.200999 3.575686,-0.416538 4.065256,1.69734 0.300077,1.29579 0.170227,2.544514 -0.711477,3.544878 -0.952834,1.081104 -2.138678,1.207602 -3.402589,0.853119 a 3.9929084,4.4293267 0 0 1 -0.45639,-0.167946 0.56805725,0.63014496 0 0 0 -0.68264,0.159609 c -0.0729,0.08491 -0.21388,0.0982 -0.32876,0.146068 z m 4.291852,-2.6874 c 3.4e-4,-1.242868 -0.25133,-2.113035 -0.718777,-2.706229 a 1.4730225,1.6340214 0 0 0 -2.001645,-0.290368 0.35100914,0.38937386 0 0 0 -0.1459,0.256695 c 0.003,1.300708 0.0169,2.601415 0.0329,3.902076 a 0.81326546,0.90215403 0 0 0 0.42472,0.760717 1.4465089,1.60461 0 0 0 1.775935,-0.191316 2.2291656,2.4728097 0 0 0 0.632737,-1.731575 z"
         id="path333"
         style="stroke-width:0.444664" />
      <path
         d="m 78.762731,30.70709 c -0.0894,-0.26461 -0.0317,-0.37907 0.19061,-0.436442 0.64697,-0.166866 0.78199,-0.334532 0.78608,-1.073471 q 0.0169,-3.004745 -5.9e-4,-6.009677 c -0.004,-0.756174 -0.14455,-0.929786 -0.8074,-1.090331 -0.20565,-0.04978 -0.23664,-0.165135 -0.18648,-0.394292 0.32771,0 0.66419,-0.0038 1.00059,9.37e-4 0.96184,0.01349 1.92401,0.01696 2.88517,0.054 a 3.2689362,3.6262255 0 0 1 0.94178,0.184617 2.0421774,2.265384 0 0 1 0.31056,4.091986 3.948705,4.3802919 0 0 1 -1.94047,0.501915 c -0.20806,0.0038 -0.4162,4.68e-4 -0.65469,4.68e-4 0,0.746573 -0.002,1.455211 0.001,2.163707 8.9e-4,0.23342 0.009,0.467025 0.0211,0.700067 a 0.69239233,0.76806967 0 0 0 0.62244,0.843004 c 0.0581,0.01717 0.13277,0.01062 0.1725,0.0494 a 1.8345441,2.0350567 0 0 1 0.19683,0.261565 c -0.0833,0.04969 -0.16698,0.143076 -0.24998,0.142333 -0.81175,-0.0071 -1.62332,-0.03648 -2.43507,-0.04453 -0.28671,-0.0028 -0.57371,0.03563 -0.85401,0.05475 z m 2.5382,-8.389523 V 25.9925 c 1.105,0.176421 1.74057,-0.261098 1.9189,-1.322204 a 2.8559918,3.168147 0 0 0 0.0287,-0.69604 c -0.0443,-1.288859 -0.79414,-1.929963 -1.94761,-1.656689 z"
         id="path335"
         style="stroke-width:0.444664" />
      <path
         d="m 90.100311,29.986416 c -0.13308,0.104063 -0.22038,0.171274 -0.30672,0.240068 a 2.9673655,3.2916937 0 0 1 -2.13523,0.607665 1.4618344,1.6216105 0 0 1 -1.39605,-1.636411 c -0.0638,-1.03132 -0.0482,-2.068729 -0.0668,-3.103515 -0.002,-0.09999 0.003,-0.200261 -9.8e-4,-0.300111 -0.0219,-0.526268 -0.11974,-0.629536 -0.58372,-0.700629 -0.11264,-0.01728 -0.28286,-0.104251 -0.30693,-0.197216 -0.0622,-0.240584 0.14211,-0.231264 0.28405,-0.271634 0.54357,-0.154552 1.08571,-0.315658 1.62894,-0.471848 0.34831,-0.100176 0.38981,-0.06777 0.39052,0.323667 0.002,1.180813 -9.7e-4,2.36158 0.002,3.542347 7.2e-4,0.266951 0.0104,0.534511 0.0307,0.800385 a 0.93396971,1.036051 0 0 0 0.81905,1.040266 2.1584487,2.3943636 0 0 0 0.80094,-0.01487 c 0.6571,-0.149024 0.83666,-0.408529 0.8378,-1.150138 q 0.002,-1.453103 -0.0195,-2.906348 c -0.008,-0.530062 -0.10733,-0.631972 -0.58102,-0.688172 -0.13134,-0.01559 -0.29524,0.03171 -0.30242,-0.216277 -0.007,-0.23576 0.15123,-0.218431 0.28245,-0.256647 q 0.75572,-0.220118 1.510049,-0.446464 c 0.49978,-0.149867 0.53849,-0.121767 0.53663,0.444076 q -0.007,2.08812 -0.019,4.17624 c -3.3e-4,0.07797 -5.4e-4,0.155962 0,0.233933 0.004,0.562563 0.10066,0.679882 0.60332,0.735568 0.0299,0.0034 0.0684,-0.0062 0.0887,0.01097 0.0736,0.06332 0.19994,0.139518 0.19636,0.203211 a 0.30005075,0.3328458 0 0 1 -0.17479,0.242364 c -0.5795,0.175946 -1.16402,0.331815 -1.747869,0.490066 -0.33627,0.09114 -0.36659,0.06275 -0.37051,-0.317063 -10e-4,-0.11764 -1.7e-4,-0.235338 -1.7e-4,-0.413446 z"
         id="path337"
         style="stroke-width:0.444664" />
      <path
         d="m 138.14194,29.940941 a 2.3434947,2.5996348 0 0 1 -2.13841,0.855413 1.3238204,1.4685117 0 0 1 -0.51224,-2.75545 9.2983225,10.314614 0 0 1 1.25631,-0.6308 c 0.39927,-0.179091 0.8104,-0.325587 1.21591,-0.487069 0.0281,-0.01119 0.0539,-0.02927 0.11919,-0.06557 a 6.4180125,7.1194907 0 0 0 -0.0931,-0.904355 c -0.15735,-0.732056 -0.9102,-1.057595 -1.64342,-0.737769 a 1.9359965,2.1475977 0 0 0 -0.90898,0.890915 c -0.0731,0.124576 -0.15621,0.279127 -0.29887,0.13282 a 0.32259572,0.3578549 0 0 1 -0.0645,-0.327835 c 0.57324,-1.25542 1.30143,-2.04049 2.78872,-1.866785 a 1.6736473,1.8565742 0 0 1 1.59238,1.852548 c 0.0641,0.919623 0.0461,1.846177 0.0684,2.769546 a 3.2900035,3.6495954 0 0 0 0.0514,0.761842 c 0.0332,0.150811 0.15494,0.360148 0.26635,0.385861 0.13197,0.03044 0.30064,-0.0976 0.44427,-0.177218 0.12542,-0.06946 0.15032,-0.394058 0.36005,-0.22822 0.21532,0.170282 0.0193,0.365864 -0.057,0.522522 a 1.405092,1.5586663 0 0 1 -1.68484,0.847687 1.1479358,1.2734033 0 0 1 -0.76153,-0.838086 z m -0.0699,-2.555612 c -0.44166,0.206067 -0.83995,0.380991 -1.22817,0.579939 a 1.1297816,1.2532649 0 0 0 -0.35421,0.300999 1.0132571,1.1240044 0 0 0 -0.11249,1.249658 0.81149226,0.90018702 0 0 0 0.91616,0.391435 0.84936274,0.94219668 0 0 0 0.77261,-0.80844 c 0.0249,-0.542425 0.006,-1.087521 0.006,-1.713591 z"
         id="path339"
         style="stroke-width:0.444664" />
      <path
         d="m 129.7622,26.893905 a 3.5691137,3.9592119 0 0 0 0.43065,1.838825 1.8703038,2.0747249 0 0 0 2.1885,1.074548 10.612264,11.772166 0 0 0 1.19231,-0.52477 0.38216679,0.42393699 0 0 1 0.30039,-0.01204 c 0.13228,0.112401 0.0991,0.255055 -0.0211,0.395135 a 3.3310827,3.6951645 0 0 1 -3.57173,0.911426 3.1508073,3.4951854 0 0 1 -1.9566,-3.34026 2.8814076,3.1963407 0 0 1 3.67268,-3.076354 2.4451161,2.7123632 0 0 1 1.79734,2.276578 c 0.0758,0.402487 0.001,0.480137 -0.3933,0.478123 q -1.64103,-0.0082 -3.28195,-0.02112 c -0.10819,-9.36e-4 -0.2165,-9.3e-5 -0.35723,-9.3e-5 z m 2.51563,-0.608414 c -0.008,-0.989734 -0.59778,-1.716122 -1.35836,-1.68657 -0.71505,0.02777 -1.19116,0.718614 -1.14865,1.68657 z"
         id="path341"
         style="stroke-width:0.444664" />
      <path
         d="m 102.82431,25.347274 q 0,2.071166 2.9e-4,4.142332 c 3e-4,0.509126 0.12826,0.675151 0.5784,0.758703 0.0591,0.01098 0.13552,4.67e-4 0.17394,0.03779 a 0.41374663,0.45896846 0 0 1 0.14355,0.238102 c 0.006,0.04009 -0.1115,0.146315 -0.17449,0.147855 -0.28029,0.0069 -0.56122,-0.02305 -0.8418,-0.02122 -0.64173,0.0042 -1.28346,0.02627 -1.92519,0.02229 -0.10103,-4.67e-4 -0.2678,-0.07765 -0.28958,-0.157732 -0.0596,-0.219135 0.12074,-0.230796 0.2591,-0.260536 0.54082,-0.116294 0.63852,-0.237071 0.63928,-0.843939 q 0.004,-3.491158 2.9e-4,-6.982317 c -4.2e-4,-0.510237 -0.0748,-0.599455 -0.51963,-0.676028 a 0.6211688,0.68906152 0 0 1 -0.20485,-0.04683 c -0.0678,-0.04215 -0.17014,-0.124858 -0.16466,-0.178435 a 0.2846408,0.31575157 0 0 1 0.14912,-0.23206 q 0.911,-0.285685 1.83083,-0.535589 c 0.28506,-0.07784 0.34442,-0.01209 0.34493,0.344929 q 0.003,2.121465 4.2e-4,4.242695 z"
         id="path343"
         style="stroke-width:0.444664" />
      <path
         d="m 143.79045,25.374765 q 0,2.069715 4.3e-4,4.139382 c 4.2e-4,0.490627 0.12319,0.646302 0.56574,0.732617 0.0493,0.0096 0.11377,-0.0014 0.14568,0.02945 a 1.9388252,2.1507355 0 0 1 0.18998,0.240489 c -0.0704,0.05455 -0.13978,0.153573 -0.21147,0.155768 -0.28004,0.0087 -0.56088,-0.02342 -0.84131,-0.02174 -0.6315,0.0042 -1.26301,0.02655 -1.89444,0.02248 -0.10068,-4.67e-4 -0.26534,-0.0768 -0.28899,-0.158015 -0.0642,-0.220399 0.11728,-0.231264 0.25449,-0.260957 0.53662,-0.116011 0.64223,-0.245548 0.64305,-0.844409 q 0.005,-3.489471 3.3e-4,-6.978944 c -4.3e-4,-0.493484 -0.0929,-0.604714 -0.52504,-0.677962 a 0.61188062,0.67875816 0 0 1 -0.2045,-0.04768 c -0.0665,-0.04168 -0.16559,-0.123031 -0.1609,-0.177967 a 0.27995449,0.31055306 0 0 1 0.14394,-0.231826 q 0.91028,-0.285684 1.82955,-0.535588 c 0.28807,-0.07859 0.35185,-0.0049 0.35249,0.374949 q 0.003,2.120107 8.5e-4,4.239932 z"
         id="path345"
         style="stroke-width:0.444664" />
      <path
         d="m 114.24333,23.776056 c 0.0295,0.695431 0.0595,1.292605 0.0736,1.890294 0.002,0.07493 -0.0777,0.211221 -0.1259,0.21478 a 0.36899445,0.40932493 0 0 1 -0.24737,-0.118022 6.0331015,6.6925095 0 0 0 -0.80064,-0.881921 1.7366804,1.9264967 0 0 0 -2.45892,0.610381 c -0.54041,1.166155 -0.10205,3.20983 0.85307,3.977852 0.75995,0.611131 1.76607,0.569637 2.69608,-0.131747 0.19365,-0.146033 0.31388,-0.134226 0.37806,0.110063 a 0.28548518,0.31668824 0 0 1 -0.074,0.258568 3.3970288,3.7683184 0 0 1 -3.4205,0.902202 2.963777,3.2877129 0 0 1 -2.0233,-2.878342 c -0.0857,-1.351287 0.2664,-2.489062 1.34961,-3.236478 a 3.1519473,3.4964499 0 0 1 2.21131,-0.368673 c 0.21806,0.03578 0.43688,0.06557 0.65537,0.09802 a 0.60478782,0.67089012 0 0 0 0.60917,-0.264516 c 0.0589,-0.08444 0.18749,-0.108795 0.32442,-0.182463 z"
         id="path347"
         style="stroke-width:0.444664" />
      <path
         d="m 147.75154,24.199244 c 0.45322,0 0.8627,0.0042 1.27206,-0.0019 0.19134,-0.0028 0.32676,0.01752 0.32702,0.297768 0,0.289805 -0.14776,0.286527 -0.33225,0.283717 -0.40984,-0.0061 -0.81979,-0.0019 -1.24058,-0.0019 a 1.8863892,2.0925684 0 0 0 -0.0295,0.2507 c -0.002,1.269189 -0.008,2.538378 0.002,3.807567 0.005,0.674121 0.27058,1.084616 0.72824,1.050522 a 2.8197255,3.1279168 0 0 0 0.83695,-0.3143 c 0.11601,-0.05335 0.23169,-0.216042 0.32086,-0.02066 a 0.3954658,0.43868956 0 0 1 -0.0182,0.399958 2.2760709,2.5248417 0 0 1 -2.11291,0.835368 1.3711057,1.5209653 0 0 1 -1.11255,-1.286937 10.269825,11.3923 0 0 1 -0.0675,-1.397185 c -0.01,-1.089676 -0.003,-2.179492 -0.003,-3.305089 l -0.78172,-0.03901 a 1.7282788,1.9171768 0 0 1 0.22376,-0.394058 q 0.81368,-0.817525 1.64712,-1.610604 a 1.0341133,1.1471402 0 0 1 0.31952,-0.135302 1.032129,1.144939 0 0 1 0.097,0.351251 c -0.0112,0.39654 -0.0466,0.792423 -0.0758,1.230083 z"
         id="path349"
         style="stroke-width:0.444664" />
      <path
         d="m 107.16299,27.006305 c 0,0.834199 -10e-4,1.668444 4.2e-4,2.502643 8.4e-4,0.48543 0.13172,0.652953 0.56574,0.738049 a 0.51055491,0.56635771 0 0 1 0.2032,0.04646 0.28763835,0.31907674 0 0 1 0.1259,0.214637 0.22253658,0.24685946 0 0 1 -0.16191,0.16345 c -0.31006,0.0067 -0.62062,-0.02262 -0.93089,-0.02083 -0.61108,0.0034 -1.22207,0.02421 -1.83311,0.0257 -0.11931,2.81e-4 -0.30423,0.08898 -0.31753,-0.172672 -0.012,-0.235666 0.15456,-0.220679 0.28789,-0.246672 0.50076,-0.09774 0.60905,-0.225737 0.61306,-0.793124 q 0.0129,-1.835313 0.009,-3.67072 c -8.5e-4,-0.511468 -0.117,-0.626164 -0.58081,-0.700957 -0.11256,-0.01817 -0.28523,-0.110012 -0.3049,-0.201384 -0.0512,-0.237352 0.15524,-0.227283 0.29553,-0.268215 q 0.76953,-0.224801 1.538,-0.453349 c 0.45136,-0.134271 0.48974,-0.104111 0.48999,0.400989 q 4.2e-4,1.218046 -4e-5,2.435999 z"
         id="path351"
         style="stroke-width:0.444664" />
      <path
         d="m 115.90559,36.136919 h 1.42084 l 0.0514,0.07597 a 1.1365789,1.2608051 0 0 1 -0.18804,0.176195 1.8752855,2.0802511 0 0 0 -0.44778,0.240115 c -0.43325,0.476485 -0.84274,0.979569 -1.27501,1.489306 0.39141,0.557319 0.76813,1.104146 1.15491,1.641889 0.37765,0.525004 0.68558,1.134027 1.35392,1.322391 l -0.0483,0.124012 c -0.31111,0 -0.62425,-0.02453 -0.93282,0.0067 a 0.73283817,0.81293617 0 0 1 -0.74822,-0.398413 20.879048,23.161093 0 0 0 -1.44085,-2.026298 q 0,0.16391 0,0.327367 c 4.3e-4,0.423047 0.005,0.846094 4.3e-4,1.269188 -0.003,0.301888 0.0838,0.516761 0.37968,0.583638 0.0723,0.01628 0.13244,0.09939 0.19809,0.151785 l -0.0335,0.0731 h -1.98265 l -0.0326,-0.07558 c 0.0667,-0.05128 0.12765,-0.130331 0.20101,-0.148882 a 0.44532649,0.49399994 0 0 0 0.37857,-0.551792 c -0.003,-1.17983 -0.002,-2.359659 -0.003,-3.53949 a 0.4234148,0.46969334 0 0 0 -0.35703,-0.501118 0.8856289,0.98242668 0 0 1 -0.22115,-0.150334 l 0.0385,-0.08073 h 1.97044 l 0.0428,0.07358 a 0.74415289,0.82548757 0 0 1 -0.21045,0.156281 0.43599607,0.48364972 0 0 0 -0.36659,0.529218 c 2.5e-4,0.463326 0,0.926649 0,1.488557 0.49357,-0.594458 0.9338,-1.117541 1.36553,-1.649148 0.12462,-0.153466 0.12909,-0.293692 -0.0878,-0.374668 -0.059,-0.02262 -0.0956,-0.119747 -0.18041,-0.232763 z"
         id="path353"
         style="stroke-width:0.444664" />
      <path
         d="m 107.14179,38.40886 c -0.13539,-0.204661 -0.28611,-0.398786 -0.40272,-0.615486 a 0.94992851,1.0537541 0 0 1 0.28358,-1.471275 1.5420506,1.7105942 0 0 1 1.49283,-0.186068 0.87393422,0.96945379 0 0 1 0.25331,1.679262 5.1052958,5.6632962 0 0 1 -0.66647,0.465572 l 1.00144,1.377935 a 4.2813488,4.7492932 0 0 0 0.20404,-0.572072 c 0.0614,-0.269479 0.0567,-0.520226 -0.28067,-0.565747 -0.0482,-0.0065 -0.088,-0.09038 -0.13172,-0.138492 0.0388,-0.03907 0.0772,-0.111515 0.11648,-0.1124 0.48932,-0.0078 0.97876,-0.0051 1.46821,-0.0051 l 0.0422,0.112684 c -0.077,0.04912 -0.15456,0.141253 -0.23102,0.140173 a 0.62855714,0.69725739 0 0 0 -0.6549,0.563032 c -0.0429,0.147254 -0.11205,0.284797 -0.16369,0.42923 -0.057,0.159237 -0.18576,0.35364 -0.14455,0.47536 a 1.4270037,1.5829729 0 0 0 0.41408,0.67815 c 0.10484,0.09137 0.34523,-0.01009 0.5247,-0.02216 0.0935,-0.0062 0.18724,-0.0069 0.28088,-0.01027 -0.0554,0.08431 -0.0945,0.202415 -0.16912,0.246157 -0.25644,0.150334 -0.52686,0.270885 -0.78899,0.409747 -0.26649,0.141164 -0.45783,0.08932 -0.57693,-0.231685 a 2.9397965,3.2611114 0 0 0 -0.22021,-0.405438 1.6262776,1.8040271 0 0 1 -1.62894,0.641058 1.424175,1.579835 0 0 1 -0.95166,-0.697821 c -0.44697,-0.781183 -0.15942,-1.457131 0.92983,-2.184456 z m 1.49811,1.942373 -1.26746,-1.711859 a 0.9565569,1.061107 0 0 0 -0.5293,1.179784 1.079541,1.197533 0 0 0 0.74499,1.033663 0.92248614,1.0233123 0 0 0 1.05177,-0.501588 z m -0.14027,-3.345926 a 0.6093897,0.67599498 0 0 0 -0.3402,-0.670421 0.53014455,0.58808847 0 0 0 -0.60977,0.131499 0.5914466,0.65609074 0 0 0 -0.17373,0.787786 2.7949007,3.1003787 0 0 0 0.43102,0.672202 0.23976195,0.26596754 0 0 0 0.22376,0.008 0.94283571,1.0458861 0 0 0 0.46892,-0.929085 z"
         id="path355"
         style="stroke-width:0.444664" />
      <path
         d="m 129.01894,37.898749 a 1.0681418,1.184888 0 0 1 -0.64523,1.972441 c -0.31129,0.08457 -0.62712,0.152209 -0.93253,0.257584 -0.0951,0.03278 -0.1628,0.163503 -0.24301,0.249389 a 0.98311267,1.0905653 0 0 0 0.26057,0.192439 c 0.38677,0.114276 0.78316,0.19005 1.16761,0.312473 0.41092,0.130845 0.7721,0.353921 0.83349,0.889275 a 1.0677196,1.1844196 0 0 1 -0.6178,1.263241 2.1853421,2.4241964 0 0 1 -2.10579,0.02422 1.2258722,1.359858 0 0 1 -0.40615,-0.385254 0.70569134,0.78282224 0 0 1 0.2308,-1.220293 c 0.0919,-0.05962 0.1937,-0.100276 0.2931,-0.150706 -0.56347,-0.500134 -0.4694,-0.995728 0.28497,-1.350959 a 1.0655243,1.1819843 0 0 1 -0.81707,-0.824271 1.3144477,1.4581147 0 0 1 1.52668,-1.713685 c 0.13931,0.01664 0.27701,0.0556 0.41662,0.0673 0.35887,0.03011 0.71921,0.04066 1.07659,0.08206 0.0913,0.01062 0.23803,0.09399 0.24972,0.165892 0.0366,0.223723 -0.13004,0.195483 -0.26049,0.188925 -0.0886,-0.0046 -0.17706,-0.01133 -0.31208,-0.02004 z m -1.13455,5.16644 a 4.0537461,4.4968138 0 0 0 0.58685,-0.222365 0.61217615,0.67908599 0 0 0 0.38175,-0.661103 0.54673663,0.60649404 0 0 0 -0.46518,-0.579329 4.7292085,5.2461031 0 0 0 -1.20616,-0.08346 c -0.35421,0.03563 -0.46073,0.341322 -0.3356,0.72208 a 1.2448708,1.3809331 0 0 0 1.03834,0.824177 z m 0.64025,-4.142096 a 1.1958544,1.3265594 0 0 0 -0.45769,-1.069583 0.60271908,0.66859528 0 0 0 -0.96939,0.380895 1.1288106,1.2521877 0 0 0 0.27835,1.169668 0.63847862,0.70826327 0 0 0 0.75369,0.237913 0.64493812,0.71542879 0 0 0 0.39504,-0.718893 z"
         id="path357"
         style="stroke-width:0.444664" />
      <path
         d="m 147.5187,37.465962 0.0424,0.456252 a 1.9050077,2.1132219 0 0 1 1.191,-0.469928 0.90927157,1.0086535 0 0 1 1.00705,1.08799 c 0.0211,0.600734 0.025,1.203152 0.0112,1.804119 -0.008,0.342728 0.0418,0.596425 0.40341,0.639653 0.0482,0.0058 0.0897,0.08098 0.20333,0.190659 h -1.95178 c 0.11169,-0.102665 0.1673,-0.193984 0.23705,-0.210095 a 0.31178765,0.34586552 0 0 0 0.28963,-0.362772 c -0.002,-0.689248 0.0112,-1.380137 -0.0278,-2.067044 -0.0231,-0.403424 -0.28182,-0.567762 -0.69861,-0.541303 -0.43303,0.02754 -0.66765,0.228455 -0.67634,0.630942 -0.0144,0.656746 -0.016,1.314758 0.01,1.970707 0.005,0.121764 0.15175,0.246299 0.2491,0.351252 a 1.0675508,1.1842323 0 0 0 0.2319,0.149166 l -0.033,0.08941 h -1.77484 l -0.0369,-0.08084 a 0.79587122,0.88285863 0 0 1 0.22655,-0.143129 0.33323492,0.36965694 0 0 0 0.30304,-0.419442 c -0.002,-0.701847 -0.005,-1.403787 0.001,-2.105587 0.002,-0.259224 -0.11649,-0.354295 -0.33089,-0.372609 -0.0573,-0.0046 -0.11074,-0.06739 -0.16599,-0.103461 0.0399,-0.05278 0.0718,-0.137607 0.12111,-0.153148 0.37283,-0.116985 0.74922,-0.220445 1.16853,-0.340807 z"
         id="path359"
         style="stroke-width:0.444664" />
      <path
         d="m 125.39473,41.191052 h -1.76129 l -0.0372,-0.08585 a 0.85210697,0.94524086 0 0 1 0.22376,-0.146634 0.31432079,0.34867553 0 0 0 0.27019,-0.380382 c 8.5e-4,-0.6345 0.0163,-1.269938 -0.01,-1.903267 -0.0206,-0.503319 -0.26113,-0.707187 -0.71545,-0.680163 -0.48501,0.02875 -0.68209,0.242458 -0.68543,0.756034 -0.003,0.556709 0.005,1.113607 -0.003,1.670177 -0.005,0.28456 0.0356,0.509782 0.3431,0.556991 0.0517,0.008 0.0934,0.09792 0.18408,0.200025 h -1.84295 l -0.0278,-0.08932 a 1.0162546,1.1273296 0 0 0 0.24419,-0.142333 c 0.10563,-0.109302 0.26556,-0.240067 0.27021,-0.367922 0.0273,-0.722502 0.016,-1.44683 0.0164,-2.170501 3.4e-4,-0.220914 -0.11441,-0.30868 -0.29823,-0.343101 -0.0715,-0.01328 -0.13372,-0.08735 -0.20011,-0.133765 a 0.89825239,0.99642989 0 0 1 0.20265,-0.145466 c 0.22899,-0.08013 0.46318,-0.141713 0.6945,-0.213794 0.37904,-0.118065 0.37878,-0.119145 0.45258,0.339449 a 1.8045265,2.0017582 0 0 1 1.22056,-0.458172 0.87815614,0.97413715 0 0 1 0.94427,1.010853 c 0.0241,0.65567 0.0282,1.312931 0.0247,1.96935 -0.002,0.295425 0.0574,0.499808 0.36084,0.536385 0.0624,0.0076 0.11681,0.09553 0.17495,0.146439 z"
         id="path361"
         style="stroke-width:0.444664" />
      <path
         d="m 142.76606,37.460857 c 0,0.414991 -8.5e-4,0.767367 2.1e-4,1.119696 q 0.002,0.734442 0.008,1.468838 a 0.57751432,0.64063568 0 0 0 0.40071,0.670891 0.93869825,1.0412964 0 0 0 0.89669,-0.215434 0.64823121,0.71908181 0 0 0 0.0878,-0.374247 c 0.01,-0.533902 -0.003,-1.068507 0.006,-1.602455 0.005,-0.277114 -0.0634,-0.452646 -0.34122,-0.470585 -0.0559,-0.0037 -0.10819,-0.07066 -0.16215,-0.108506 0.0311,-0.04843 0.0546,-0.128189 0.0946,-0.140509 0.38349,-0.117091 0.76984,-0.222695 1.21064,-0.347225 0,0.473535 4.2e-4,0.90309 0,1.332695 -4.3e-4,0.48927 0,0.978539 -0.005,1.467762 -0.002,0.264141 0.085,0.420144 0.34709,0.425389 0.0573,9.37e-4 0.11313,0.08682 0.16962,0.133571 -0.0488,0.04505 -0.0917,0.114418 -0.14744,0.131128 -0.36474,0.110347 -0.73221,0.209252 -1.12912,0.320389 l -0.0683,-0.433305 a 1.7419578,1.9323509 0 0 1 -1.25723,0.466135 0.83720365,0.92870863 0 0 1 -0.8801,-0.935266 c -0.0394,-0.564484 -0.0274,-1.13337 -0.0333,-1.700619 -0.003,-0.312285 0.006,-0.624243 -0.39985,-0.619045 -0.0362,4.7e-4 -0.10196,-0.08087 -0.1018,-0.124012 1.1e-4,-0.04314 0.0598,-0.110896 0.1042,-0.124242 0.3741,-0.112489 0.75069,-0.215106 1.19877,-0.341041 z"
         id="path363"
         style="stroke-width:0.444664" />
      <path
         d="m 167.21413,25.557603 c 0.005,0.04398 0.0112,0.08781 0.0144,0.131978 a 1.0320023,1.1447985 0 0 1 -0.92016,1.334053 0.77117307,0.85546101 0 0 1 -0.72063,-0.227751 0.5047709,0.55994153 0 0 0 -0.72174,-0.0791 0.09119314,0.1011604 0 0 1 -0.0263,0.01579 c -0.19644,0.06716 -0.39879,0.29772 -0.59203,0.03025 -0.0986,-0.136614 0.1758,-0.684987 0.37853,-0.763386 0.18796,-0.07292 0.39686,-0.08589 0.57714,-0.174268 0.11872,-0.05826 0.20294,-0.203351 0.30258,-0.30957 -0.10165,-0.11685 -0.18537,-0.276317 -0.30922,-0.340151 a 4.0390116,4.4804689 0 0 0 -0.55193,-0.14776 c -0.22882,-0.07531 -0.26239,-0.254353 -0.0994,-0.448056 a 4.0838904,4.5302529 0 0 1 0.42781,-0.504397 0.89107517,0.98846821 0 0 1 0.45039,-0.216184 2.36072,2.6187428 0 0 1 1.43544,0.382818 0.78687856,0.87288308 0 0 1 0.38209,0.783852 c 0.001,0.177312 2.6e-4,0.354623 2.6e-4,0.531935 z"
         id="path365"
         style="stroke-width:0.444664" />
      <path
         d="m 136.55036,40.44195 c -0.0254,0.09769 -0.022,0.242833 -0.0803,0.286154 -1.54315,1.148403 -3.51081,0.448055 -3.95701,-1.294432 a 2.3102683,2.5627768 0 0 1 0.58346,-2.591345 2.0827077,2.3103442 0 0 1 2.19905,-0.665598 1.9243863,2.1347186 0 0 0 0.4661,0.121764 1.4692228,1.6298064 0 0 0 0.56921,-0.228734 c 0.0287,0.06234 0.0812,0.124207 0.0823,0.187333 0.006,0.36638 0.005,0.733133 -0.003,1.099512 -0.001,0.05269 -0.0471,0.137925 -0.0844,0.14697 a 0.20210257,0.22419204 0 0 1 -0.14633,-0.07888 1.0778944,1.1957065 0 0 1 -0.11281,-0.195904 1.4114249,1.5656913 0 0 0 -1.43862,-0.815746 1.3414257,1.4880413 0 0 0 -1.13992,1.21664 2.4549108,2.7232285 0 0 0 0.41041,2.585773 c 0.54792,0.735285 1.38056,0.842253 2.27671,0.352469 0.0973,-0.05325 0.19361,-0.109268 0.29039,-0.16391 z"
         id="path367"
         style="stroke-width:0.444664" />
      <path
         d="m 138.9212,41.28781 a 1.7444488,1.9351141 0 0 1 -1.85881,-1.901066 1.782868,1.9777325 0 0 1 1.87743,-1.930337 1.7098713,1.8967574 0 0 1 1.79724,1.922656 1.7281521,1.9170363 0 0 1 -1.81586,1.908747 z m -1.04458,-2.27845 a 2.2527237,2.4989427 0 0 0 0.57917,1.645496 0.79722222,0.88435729 0 0 0 1.33412,-0.189396 2.0289206,2.2506783 0 0 0 -0.54462,-2.456043 0.78637193,0.87232108 0 0 0 -1.28309,0.478405 4.3845322,4.8637544 0 0 0 -0.0857,0.521538 z"
         id="path369"
         style="stroke-width:0.444664" />
      <path
         d="m 79.284591,41.329023 v -1.292605 l 0.076,-0.03827 a 2.9064857,3.2241597 0 0 1 0.17686,0.286387 1.060078,1.1759428 0 0 0 1.34122,0.610147 0.70282044,0.77963755 0 0 0 0.51507,-0.632721 0.65671724,0.72849535 0 0 0 -0.32002,-0.737768 c -0.34519,-0.266951 -0.70173,-0.517464 -1.03568,-0.800853 a 1.4375585,1.5946812 0 0 1 -0.65836,-1.108971 1.2314873,1.3660869 0 0 1 1.45444,-1.541898 c 0.26953,0.03827 0.54965,0.27271 0.81905,-0.01752 0.002,-0.0019 0.13011,0.09325 0.13239,0.146581 a 6.6302055,7.354876 0 0 1 -0.01,0.76437 c -0.003,0.05071 -0.0576,0.09835 -0.0887,0.147094 -0.0549,-0.05498 -0.13087,-0.09835 -0.16182,-0.166812 a 0.87925382,0.97535481 0 0 0 -0.91122,-0.559848 0.61128954,0.67810248 0 0 0 -0.55889,0.380943 0.54129038,0.60045252 0 0 0 0.12243,0.707187 4.1690884,4.6247629 0 0 0 0.54096,0.526221 c 0.27054,0.229483 0.56151,0.429556 0.82914,0.662881 a 1.2719332,1.4109534 0 0 1 0.49953,1.560398 1.3671371,1.5165629 0 0 1 -1.2311,1.051038 2.2114757,2.4531864 0 0 1 -0.4203,-0.0023 4.3865588,4.8660024 0 0 0 -0.59212,-0.100877 2.2314032,2.4752919 0 0 0 -0.51933,0.157166 z"
         id="path371"
         style="stroke-width:0.444664" />
      <path
         d="m 90.128891,40.464524 a 0.64658467,0.71725531 0 0 1 -0.40847,0.757533 0.77915248,0.86431256 0 0 1 -1.01726,-0.382958 1.4053453,1.5589473 0 0 1 -1.05126,0.452459 0.81482757,0.90388688 0 0 1 -0.78704,-0.599143 0.76078719,0.84393997 0 0 1 0.38748,-0.994696 c 0.33476,-0.196092 0.70367,-0.319123 1.05046,-0.491752 0.14409,-0.07185 0.38786,-0.01717 0.37237,-0.331769 -0.0162,-0.328162 -0.0686,-0.620076 -0.38567,-0.757953 a 0.88752877,0.98453419 0 0 0 -0.99,0.354858 1.8252559,2.0247534 0 0 1 -0.27316,0.23885 1.3904842,1.5424619 0 0 1 0.0865,-0.439298 1.3567512,1.5050419 0 0 1 1.37031,-0.817291 0.94570661,1.0490708 0 0 1 0.96331,0.910444 3.891076,4.3163642 0 0 1 0.0578,0.696319 c 0.009,0.411807 -0.012,0.825066 0.011,1.235563 a 1.2772105,1.4168075 0 0 0 0.16571,0.430867 c 0.10661,-0.06402 0.21295,-0.128508 0.31989,-0.192017 0.0407,-0.02374 0.0824,-0.04487 0.12793,-0.07003 z m -1.44355,-1.112531 c -0.28261,0.135819 -0.51803,0.2278 -0.73461,0.358324 a 0.55209845,0.6124419 0 0 0 -0.25399,0.74573 0.4294099,0.47634369 0 0 0 0.46665,0.332003 0.51055491,0.56635771 0 0 0 0.5187,-0.569074 c 0.0161,-0.262502 0.003,-0.527158 0.003,-0.866983 z"
         id="path373"
         style="stroke-width:0.444664" />
      <path
         d="m 100.52518,39.07104 a 1.5283294,1.6953733 0 0 0 0.63422,1.500919 c 0.56877,0.395229 1.09672,0.10987 1.69598,-0.273975 -0.0232,0.168034 -0.005,0.298188 -0.0554,0.362071 a 1.8256359,2.0251749 0 0 1 -2.45934,0.1856 1.7655161,1.9584841 0 0 1 -0.24124,-2.753389 1.5548008,1.7247379 0 0 1 1.60306,-0.577832 1.3602976,1.5089759 0 0 1 1.07789,1.208304 c 0.0629,0.270043 0.003,0.368628 -0.24993,0.362399 -0.56211,-0.01381 -1.12455,-0.01044 -1.68682,-0.01398 -0.0982,-4.67e-4 -0.19641,-4.6e-5 -0.31842,-4.6e-5 z m 0.009,-0.357902 h 1.38655 c -0.0389,-0.604152 -0.33095,-0.946458 -0.76745,-0.921543 -0.39433,0.02248 -0.62206,0.360243 -0.6191,0.921543 z"
         id="path375"
         style="stroke-width:0.444664" />
      <path
         d="m 83.737061,39.07104 c 0.0467,1.550984 0.91978,2.035666 2.3272,1.24371 -0.0184,0.148652 -0.001,0.266952 -0.0461,0.331675 a 1.8573002,2.0603001 0 0 1 -1.90353,0.54992 1.7747619,1.9687405 0 0 1 -1.20409,-1.814612 1.632695,1.8111458 0 0 1 0.99738,-1.778455 1.4818885,1.6438564 0 0 1 2.07232,1.080777 c 0.0802,0.336169 0.0425,0.395789 -0.26952,0.396774 -0.33066,9.36e-4 -0.66132,-0.0076 -0.99215,-0.0094 -0.3193,-0.0019 -0.63882,-4.21e-4 -0.98151,-4.21e-4 z m -0.004,-0.346193 h 1.40032 c -0.0525,-0.620499 -0.3204,-0.949035 -0.75255,-0.933954 -0.3999,0.01398 -0.6376,0.346567 -0.64777,0.933954 z"
         id="path377"
         style="stroke-width:0.444664" />
      <path
         d="m 98.836819,41.189038 h -1.881871 c 0.1118,-0.111799 0.16411,-0.209814 0.22761,-0.219696 0.283287,-0.04422 0.351467,-0.238475 0.350417,-0.517837 q -0.008,-1.952537 -0.004,-3.905167 a 0.29755983,0.33008262 0 0 0 -0.287087,-0.383567 0.66891855,0.74203024 0 0 1 -0.20827,-0.133942 0.93088771,1.0326322 0 0 1 0.22123,-0.16391 c 0.257907,-0.08898 0.524737,-0.146634 0.781544,-0.23885 0.24488,-0.08801 0.32437,-0.0037 0.32087,0.274351 -0.0142,1.201231 -0.0185,2.402559 -0.0222,3.603932 -8.4e-4,0.333455 0.0232,0.667191 0.016,1.00027 -0.006,0.265406 0.0726,0.421923 0.324827,0.461498 0.0699,0.01098 0.13016,0.09741 0.19485,0.149218 z"
         id="path379"
         style="stroke-width:0.444664" />
      <path
         d="m 152.17178,37.878377 c 0,0.830358 -0.0128,1.6092 0.005,2.387198 0.0112,0.464495 0.35197,0.619327 0.76712,0.390311 a 1.0661153,1.18264 0 0 1 0.30593,-0.05694 c -0.0549,0.116188 -0.0844,0.292756 -0.16969,0.337482 a 2.7797441,3.0835656 0 0 1 -0.85599,0.336499 0.72861627,0.80825283 0 0 1 -0.83707,-0.791018 c -0.0431,-0.687094 -0.0319,-1.378311 -0.0429,-2.067793 -0.003,-0.164901 -3.8e-4,-0.329942 -3.8e-4,-0.510485 l -0.50017,-0.06314 1.25564,-1.22938 0.0784,0.0644 v 0.870261 c 0.22976,0 0.45597,-0.01328 0.67973,0.0076 0.0736,0.0069 0.14058,0.102754 0.21047,0.157927 -0.0675,0.05569 -0.13212,0.152865 -0.20359,0.159237 -0.22506,0.02094 -0.45259,0.0078 -0.6923,0.0078 z"
         id="path381"
         style="stroke-width:0.444664" />
      <path
         d="m 91.19476,37.901185 -0.505699,-0.0562 1.255849,-1.235562 0.0781,0.06013 v 0.876209 c 0.24533,0 0.4644,-0.01398 0.68074,0.0078 0.0713,0.0071 0.1351,0.106453 0.20214,0.163591 -0.0688,0.05372 -0.13455,0.146864 -0.20687,0.15375 -0.21671,0.0206 -0.43608,0.0074 -0.67162,0.0074 0,0.843519 -0.0145,1.653551 0.007,2.462367 0.008,0.313503 0.1991,0.452973 0.47851,0.403376 a 2.8298581,3.1391569 0 0 0 0.3866,-0.165751 0.57472786,0.63754467 0 0 1 0.18449,0.0034 c -0.002,0.07002 0.0178,0.154546 -0.0104,0.207661 a 1.3772275,1.5277561 0 0 1 -1.24938,0.478778 0.85282471,0.94603704 0 0 1 -0.61615,-0.959618 c -0.0198,-0.678617 -0.0105,-1.358173 -0.0134,-2.037539 -5.9e-4,-0.119746 -1.7e-4,-0.239507 -1.7e-4,-0.369845 z"
         id="path383"
         style="stroke-width:0.444664" />
      <path
         d="m 94.32825,37.898937 -0.40433,-0.04038 -0.0481,-0.0807 c 0.40657,-0.386422 0.79482,-0.796498 1.21253,-1.168495 l 0.0735,0.07279 v 0.863329 c 0.20916,0 0.41607,-0.0034 0.62286,9.36e-4 0.22647,0.0046 0.22642,0.0074 0.22136,0.319453 h -0.82116 c -0.028,0.05586 -0.0541,0.08392 -0.0542,0.111975 -9.7e-4,0.733882 -0.0191,1.468701 0.008,2.201176 0.0211,0.554837 0.34277,0.723017 0.79038,0.46885 a 1.028667,1.1410986 0 0 1 0.28405,-0.06018 c -0.0404,0.108046 -0.0537,0.26906 -0.12603,0.314442 a 2.2449555,2.4903254 0 0 1 -0.75327,0.368392 0.82010495,0.90974106 0 0 1 -1.00325,-0.997555 c -0.0115,-0.67843 -0.003,-1.357328 -0.003,-2.036039 z"
         id="path385"
         style="stroke-width:0.444664" />
      <path
         d="m 120.41817,41.192691 h -1.78971 l -0.0377,-0.06753 c 0.0621,-0.05335 0.11904,-0.141536 0.18703,-0.153714 a 0.35687759,0.39588372 0 0 0 0.33324,-0.4607 c -0.003,-0.678805 0.008,-1.357656 0.0112,-2.036508 0.001,-0.244518 -0.0836,-0.402112 -0.33125,-0.41607 -0.0598,-0.0034 -0.11616,-0.08252 -0.17415,-0.126773 0.0567,-0.04838 0.10691,-0.120136 0.1709,-0.141058 0.2881,-0.09433 0.58338,-0.162707 0.86971,-0.263111 0.2225,-0.07811 0.28519,0.0014 0.28312,0.244612 -0.008,0.879392 0.005,1.759066 -0.006,2.638365 -0.003,0.30442 0.0402,0.529221 0.36395,0.563548 0.0568,0.006 0.10739,0.08295 0.16082,0.127057 z"
         id="path387"
         style="stroke-width:0.444664" />
      <path
         d="m 107.29247,22.282208 a 0.88056262,0.97680665 0 0 1 -0.90813,0.978024 0.90053222,0.9989589 0 1 1 0.0268,-1.99759 0.90458525,1.0034549 0 0 1 0.88137,1.019566 z"
         id="path389"
         style="stroke-width:0.444664" />
      <path
         d="m 119.49539,35.876572 a 0.52499382,0.58237478 0 0 1 0.51127,0.580221 0.4865745,0.53975628 0 0 1 -0.49287,0.551745 0.49818473,0.5526355 0 0 1 -0.52859,-0.549497 0.51904094,0.57577126 0 0 1 0.51019,-0.582469 z"
         id="path391"
         style="stroke-width:0.444664" />
      <path
         d="m 167.6153,31.627041 c -0.12302,0.2884 -0.23153,0.582187 -0.37533,0.852978 a 0.29017149,0.32188675 0 0 1 -0.27658,0.07399 0.27991227,0.31050622 0 0 1 -0.10213,-0.286574 5.6914228,6.3134859 0 0 1 0.41933,-0.791487 0.23060042,0.25580466 0 0 1 0.20265,-0.07962 c 0.0496,0.01451 0.0756,0.12518 0.13213,0.230702 z"
         id="path393"
         style="stroke-width:0.444664" />
    </g>
  </g>
</svg>
