<?xml version="1.0" encoding="UTF-8"?>
<svg width="292px" height="152px" viewBox="0 0 292 152" version="1.1" xmlns="http://www.w3.org/2000/svg" xmlns:xlink="http://www.w3.org/1999/xlink">
    <!-- Generator: Sketch 63.1 (92452) - https://sketch.com -->
    <title>Group 97</title>
    <desc>Created with Sketch.</desc>
    <defs>
        <polygon id="path-1" points="0.0156044815 0.214945404 61.8434945 0.214945404 61.8434945 97.5164065 0.0156044815 97.5164065"></polygon>
        <polygon id="path-3" points="0.0558499345 0.214945404 62.2929924 0.214945404 62.2929924 97.5154834 0.0558499345 97.5154834"></polygon>
    </defs>
    <g id="Page1" stroke="none" stroke-width="1" fill="none" fill-rule="evenodd">
        <g id="Home-v2.2-SCAN-KC" transform="translate(-214.000000, -158.000000)">
            <g id="New-Lockup-Logo" transform="translate(152.991917, 158.000000)">
                <g id="Group-97" transform="translate(61.000000, 0.184175)">
                    <g id="Group-3" transform="translate(0.391340, 0.000000)">
                        <mask id="mask-2" fill="white">
                            <use xlink:href="#path-1"></use>
                        </mask>
                        <g id="Clip-2"></g>
                        <path d="M14.8256196,94.1869994 C10.1146009,91.9653433 6.46825393,88.8421009 3.88657873,84.8080411 C1.30490354,80.7801355 0.0156044815,76.1337355 0.0156044815,70.8811497 L0.0156044815,67.3455778 C0.0156044815,66.8932461 0.169458784,66.5116875 0.489475733,66.1916705 C0.80333851,65.8747307 1.18797427,65.7147222 1.643383,65.7147222 L17.271903,65.7147222 C17.7242347,65.7147222 18.1088705,65.8747307 18.4288874,66.1916705 C18.7427502,66.5116875 18.9027587,66.8932461 18.9027587,67.3455778 L18.9027587,69.927253 C18.9027587,73.0997287 20.0782055,75.7521769 22.4383305,77.8784433 C24.7892243,80.010864 27.9617,81.0693816 31.9465264,81.0693816 C35.4820983,81.0693816 38.1776257,80.1677954 40.0331086,78.3523146 C41.8916685,76.542988 42.8209485,74.2320964 42.8209485,71.4257939 C42.8209485,69.3395295 42.230148,67.5517426 41.051624,66.0532016 C39.8761772,64.5608149 38.223782,63.1576637 36.0944384,61.8437479 C33.9650949,60.5298322 30.678767,58.7389681 26.2416089,56.4742328 C20.8043978,53.7571658 16.3672397,51.2216469 12.9239805,48.864599 C9.48072117,46.5106281 6.53902691,43.4766213 4.08966641,39.7625784 C1.643383,36.0454585 0.42177984,31.559067 0.42177984,26.3064811 C0.42177984,21.0508182 1.6649226,16.4536516 4.1573623,12.5119044 C6.649802,8.57323424 10.1576801,5.53615031 14.6902279,3.40680676 C19.2196985,1.2805403 24.3830489,0.212791444 30.1833561,0.212791444 C36.2513698,0.212791444 41.6424246,1.3697758 46.3534433,3.68066742 C51.061385,5.99155904 54.7323486,9.23173066 57.3601801,13.3950281 C59.9880116,17.5644797 61.3019273,22.3647339 61.3019273,27.801945 L61.3019273,30.5190119 C61.3019273,30.9744207 61.1449959,31.3559794 60.824979,31.6759963 C60.5080391,31.9929362 60.1234034,32.1498676 59.6710717,32.1498676 L44.0425517,32.1498676 C43.59022,32.1498676 43.2055843,31.9929362 42.8886444,31.6759963 C42.5717045,31.3559794 42.4116961,30.9744207 42.4116961,30.5190119 L42.4116961,28.0727285 C42.4116961,24.8110173 41.2793284,22.0939503 39.0145931,19.9184505 C36.7498577,17.7429507 33.6696946,16.6567393 29.7741037,16.6567393 C26.5123925,16.6567393 23.9522569,17.4967838 22.0936969,19.1707186 C20.238214,20.8477305 19.3120111,23.1801617 19.3120111,26.1710894 C19.3120111,28.2542766 19.8566553,30.0666803 20.9397896,31.6052233 C22.0290781,33.1468434 23.7030129,34.6207676 25.9708253,36.0239189 C28.2324836,37.4270701 31.6788199,39.2610134 36.2975261,41.5288258 L39.1499849,43.1566044 C44.4025707,46.0582965 48.5043265,48.5722758 51.4490978,50.6985423 C54.3907921,52.8309629 56.8616922,55.5234132 58.858721,58.7851244 C60.8465186,62.0468356 61.8434945,65.9855058 61.8434945,70.607289 C61.8434945,78.8538796 59.0618087,85.4019187 53.4861288,90.2452522 C47.916603,95.0916627 40.5100569,97.5164065 31.2695675,97.5164065 C25.0200057,97.5164065 19.5366384,96.4086555 14.8256196,94.1869994" id="Fill-1" fill-opacity="0.25" fill="#343434" mask="url(#mask-2)"></path>
                    </g>
                    <g id="Group-6" transform="translate(73.026021, 0.000000)">
                        <mask id="mask-4" fill="white">
                            <use xlink:href="#path-3"></use>
                        </mask>
                        <g id="Clip-5"></g>
                        <path d="M14.8658651,93.8445197 C10.1548463,91.3982363 6.50849938,87.9118978 3.92682418,83.3824272 C1.3420719,78.8529565 0.0558499345,73.5972935 0.0558499345,67.6185153 L0.0558499345,29.8380528 C0.0558499345,23.9515872 1.3420719,18.7666972 3.92682418,14.2803057 C6.50849938,9.79699136 10.1548463,6.32911538 14.8658651,3.88283198 C19.5768838,1.43654857 25.0110178,0.211868318 31.1744212,0.211868318 C37.3347474,0.211868318 42.7688814,1.41500896 47.4829772,3.81513608 C52.1909189,6.2152632 55.8372658,9.5908266 58.418941,13.9387492 C61.0036933,18.2866718 62.2929924,23.3638638 62.2929924,29.1610939 L62.2929924,29.8380528 C62.2929924,30.2934615 62.1329839,30.6996369 61.8191211,31.0627331 C61.4991042,31.4258292 61.1144684,31.6043002 60.6652139,31.6043002 L44.7628331,32.2843362 C43.6766218,32.2843362 43.1350546,31.7889254 43.1350546,30.7919495 L43.1350546,29.0257021 C43.1350546,25.3116592 42.0457662,22.3207316 39.8702663,20.0559963 C37.6978436,17.7912609 34.7992285,16.6558162 31.1744212,16.6558162 C27.5496138,16.6558162 24.6509987,17.7912609 22.478576,20.0559963 C20.3030761,22.3207316 19.2137877,25.3116592 19.2137877,29.0257021 L19.2137877,68.8401185 C19.2137877,72.5572384 20.3030761,75.5235494 22.478576,77.7421284 C24.6509987,79.9607075 27.5496138,81.0715355 31.1744212,81.0715355 C34.7992285,81.0715355 37.6978436,79.9607075 39.8702663,77.7421284 C42.0457662,75.5235494 43.1350546,72.5572384 43.1350546,68.8401185 L43.1350546,67.0769482 C43.1350546,66.0799723 43.6766218,65.5784073 44.7628331,65.5784073 L60.6652139,66.2584433 C61.1144684,66.2584433 61.4991042,66.4184518 61.8191211,66.7323145 C62.1329839,67.0523315 62.2929924,67.4369672 62.2929924,67.8892989 L62.2929924,68.2954743 C62.2929924,74.0957815 61.0036933,79.2160526 58.418941,83.6532107 C55.8372658,88.0934459 52.1909189,91.5151656 47.4829772,93.9122156 C42.7688814,96.3154198 37.3347474,97.5154834 31.1744212,97.5154834 C25.0110178,97.5154834 19.5768838,96.2908031 14.8658651,93.8445197" id="Fill-4" fill-opacity="0.55" fill="#343434" mask="url(#mask-4)"></path>
                    </g>
                    <path d="M169.05003,66.1925936 C169.231578,66.3279854 169.410049,66.3926042 169.591598,66.3926042 L187.531009,66.3926042 C187.70948,66.3926042 187.891028,66.3279854 188.075653,66.1925936 C188.254124,66.0541248 188.300281,65.8510371 188.211045,65.5802535 L178.835164,26.1689354 C178.739774,25.8089163 178.604383,25.6242912 178.425912,25.6242912 C178.241286,25.6242912 178.105895,25.8089163 178.016659,26.1689354 L168.911561,65.5802535 C168.822326,65.8510371 168.865405,66.0541248 169.05003,66.1925936 M195.140643,95.0710462 L192.014324,81.7534178 C191.925088,81.3872446 191.694307,81.2087736 191.334288,81.2087736 L165.923711,81.2087736 C165.560615,81.2087736 165.33291,81.3872446 165.243675,81.7534178 L162.117355,95.0710462 C161.846572,95.9757095 161.255771,96.4280412 160.351108,96.4280412 L143.90716,96.4280412 C142.728636,96.4280412 142.279382,95.8403177 142.550165,94.6617938 L167.009922,2.66307507 C167.283783,1.75533468 167.914586,1.29992595 168.911561,1.29992595 L188.617221,1.29992595 C189.614196,1.29992595 190.248076,1.75533468 190.521937,2.66307507 L214.981694,94.6617938 L215.117086,95.206438 C215.117086,96.0187887 214.618598,96.4280412 213.621622,96.4280412 L197.045359,96.4280412 C196.045306,96.4280412 195.411427,95.9757095 195.140643,95.0710462" id="Fill-7" fill-opacity="0.85" fill="#343434"></path>
                    <path d="M273.253395,1.77810512 C273.570335,1.45808817 273.954971,1.30115678 274.407303,1.30115678 L290.171215,1.30115678 C290.626623,1.30115678 291.008182,1.45808817 291.325122,1.77810512 C291.645139,2.09812207 291.80207,2.47968074 291.80207,2.93201239 L291.80207,94.7953393 C291.80207,95.250748 291.645139,95.6353838 291.325122,95.9523237 C291.008182,96.2723406 290.626623,96.429272 290.171215,96.429272 L273.591875,96.429272 C272.684135,96.429272 272.050255,96.0200196 271.690236,95.2045918 L245.735015,39.8970471 C245.55039,39.6231864 245.368842,39.4877947 245.190371,39.4877947 C245.005746,39.4877947 244.919587,39.6693427 244.919587,40.0324389 L245.054979,94.7953393 C245.054979,95.250748 244.89497,95.6353838 244.581108,95.9523237 C244.261091,96.2723406 243.876455,96.429272 243.424123,96.429272 L227.660211,96.429272 C227.204803,96.429272 226.820167,96.2723406 226.506304,95.9523237 C226.186287,95.6353838 226.029356,95.250748 226.029356,94.7953393 L226.029356,2.93201239 C226.029356,2.47968074 226.186287,2.09812207 226.506304,1.77810512 C226.820167,1.45808817 227.204803,1.30115678 227.660211,1.30115678 L244.101082,1.30115678 C245.005746,1.30115678 245.642702,1.71040922 246.005799,2.52275994 L271.961019,57.8333817 C272.142567,58.1072423 272.321038,58.2426341 272.505664,58.2426341 C272.684135,58.2426341 272.779524,58.061086 272.779524,57.6979899 L272.779524,2.93201239 C272.779524,2.47968074 272.933379,2.09812207 273.253395,1.77810512" id="Fill-9" fill="#343434"></path>
                    <path d="M2.61998491,127.070279 C1.9153322,126.707183 1.37068797,126.187156 0.98297513,125.516351 C0.598339374,124.845546 0.404482953,124.070121 0.404482953,123.186997 L0.404482953,117.475925 C0.404482953,116.595879 0.598339374,115.82353 0.98297513,115.158879 C1.37068797,114.494229 1.9153322,113.980355 2.61998491,113.614182 C3.32463761,113.251086 4.13698833,113.066461 5.05703706,113.066461 C5.96785453,113.066461 6.77712816,113.244932 7.48793504,113.604951 C8.19874192,113.961893 8.74646323,114.463458 9.13417608,115.106569 C9.51881183,115.752757 9.71574534,116.482026 9.71574534,117.294377 L9.71574534,117.740555 C9.71574534,117.80825 9.69112865,117.866715 9.64189527,117.912871 C9.59573898,117.962105 9.53727435,117.986721 9.47265554,117.986721 L7.09099094,117.986721 C7.02329505,117.986721 6.96483041,117.962105 6.91559703,117.912871 C6.87251783,117.866715 6.84790114,117.80825 6.84790114,117.740555 L6.84790114,117.31284 C6.84790114,116.798966 6.68481558,116.371251 6.35864446,116.032772 C6.03247334,115.697369 5.60168129,115.525053 5.05703706,115.525053 C4.51546992,115.525053 4.08160078,115.703524 3.7461984,116.054311 C3.4169502,116.405099 3.25078755,116.869739 3.25078755,117.435923 L3.25078755,123.251616 C3.25078755,123.8178 3.42310437,124.279362 3.76773801,124.633227 C4.11237164,124.984015 4.56470329,125.159409 5.11857878,125.159409 C5.64783758,125.159409 6.07247546,125.005555 6.39249241,124.694769 C6.70943227,124.380906 6.86944074,123.953191 6.86944074,123.414701 L6.86944074,122.150019 C6.86944074,122.0854 6.83251571,122.048475 6.7678969,122.048475 L5.1801205,122.048475 C5.11550169,122.048475 5.05395997,122.026935 5.00780368,121.980779 C4.96164739,121.931546 4.9370307,121.876158 4.9370307,121.805385 L4.9370307,119.956057 C4.9370307,119.888361 4.96164739,119.829896 5.00780368,119.78374 C5.05395997,119.737583 5.11550169,119.712967 5.1801205,119.712967 L9.47265554,119.712967 C9.53727435,119.712967 9.59573898,119.737583 9.64189527,119.78374 C9.69112865,119.829896 9.71574534,119.888361 9.71574534,119.956057 L9.71574534,123.186997 C9.71574534,124.543992 9.29110746,125.620972 8.4449088,126.421014 C7.59563305,127.221057 6.46634247,127.621078 5.05703706,127.621078 C4.13698833,127.621078 3.32463761,127.436453 2.61998491,127.070279" id="Fill-11" fill-opacity="0.55" fill="#343434"></path>
                    <path d="M15.2080362,115.789682 L15.2080362,119.266789 C15.2080362,119.331408 15.2418842,119.368333 15.3095801,119.368333 L17.0758275,119.368333 C17.5804696,119.368333 17.9835678,119.199093 18.2974306,118.869845 C18.6082163,118.53752 18.7651477,118.094419 18.7651477,117.537467 C18.7651477,116.968206 18.6082163,116.518951 18.2974306,116.186626 C17.9835678,115.854301 17.5804696,115.688138 17.0758275,115.688138 L15.3095801,115.688138 C15.2418842,115.688138 15.2080362,115.725063 15.2080362,115.789682 M18.7436081,127.254905 L16.6911917,121.6423 C16.666575,121.589989 16.62965,121.562295 16.5896479,121.562295 L15.3095801,121.562295 C15.2418842,121.562295 15.2080362,121.59922 15.2080362,121.663839 L15.2080362,127.214903 C15.2080362,127.279521 15.1834195,127.337986 15.1372632,127.387219 C15.0880299,127.433376 15.0295652,127.457992 14.9649464,127.457992 L12.5832818,127.457992 C12.518663,127.457992 12.4601984,127.433376 12.4140421,127.387219 C12.3648087,127.337986 12.340192,127.279521 12.340192,127.214903 L12.340192,113.472636 C12.340192,113.40494 12.3648087,113.346476 12.4140421,113.297242 C12.4601984,113.254163 12.518663,113.229546 12.5832818,113.229546 L17.5466216,113.229546 C18.346664,113.229546 19.0574709,113.411094 19.6790423,113.768036 C20.3006136,114.128056 20.7837162,114.629621 21.1252727,115.281963 C21.4606751,115.931228 21.6329919,116.675883 21.6329919,117.519004 C21.6329919,118.386743 21.4391355,119.137552 21.0606539,119.774508 C20.6821723,120.411465 20.1467593,120.885337 19.4574921,121.196122 C19.3867191,121.223816 19.3682566,121.269972 19.3928733,121.340745 L21.7129961,127.171823 C21.7253045,127.199517 21.7314587,127.233365 21.7314587,127.273367 C21.7314587,127.396451 21.6576086,127.457992 21.5099085,127.457992 L19.0297771,127.457992 C18.8789999,127.457992 18.7866873,127.390296 18.7436081,127.254905" id="Fill-13" fill-opacity="0.55" fill="#343434"></path>
                    <path d="M32.7538886,115.618288 C32.7077323,115.664445 32.6523448,115.685984 32.5815718,115.685984 L27.1351295,115.685984 C27.0674336,115.685984 27.0335856,115.722909 27.0335856,115.790605 L27.0335856,118.960004 C27.0335856,119.0277 27.0674336,119.061548 27.1351295,119.061548 L30.5291554,119.061548 C30.5968513,119.061548 30.6522388,119.086164 30.7014722,119.135398 C30.7507056,119.181554 30.7722452,119.240019 30.7722452,119.304637 L30.7722452,121.27705 C30.7722452,121.344745 30.7507056,121.40321 30.7014722,121.452443 C30.6522388,121.4986 30.5968513,121.523216 30.5291554,121.523216 L27.1351295,121.523216 C27.0674336,121.523216 27.0335856,121.557064 27.0335856,121.621683 L27.0335856,124.895703 C27.0335856,124.963399 27.0674336,124.997247 27.1351295,124.997247 L32.5815718,124.997247 C32.6523448,124.997247 32.7077323,125.021863 32.7538886,125.06802 C32.803122,125.117253 32.8246616,125.17264 32.8246616,125.240336 L32.8246616,127.215826 C32.8246616,127.280444 32.803122,127.338909 32.7538886,127.385065 C32.7077323,127.434299 32.6523448,127.458915 32.5815718,127.458915 L24.4119083,127.458915 C24.3442124,127.458915 24.2857478,127.434299 24.2365144,127.385065 C24.1903581,127.338909 24.1688185,127.280444 24.1688185,127.215826 L24.1688185,113.473559 C24.1688185,113.402786 24.1903581,113.347399 24.2365144,113.298165 C24.2857478,113.252009 24.3442124,113.23047 24.4119083,113.23047 L32.5815718,113.23047 C32.6523448,113.23047 32.7077323,113.252009 32.7538886,113.298165 C32.803122,113.347399 32.8246616,113.402786 32.8246616,113.473559 L32.8246616,115.442894 C32.8246616,115.513667 32.803122,115.569055 32.7538886,115.618288" id="Fill-15" fill-opacity="0.55" fill="#343434"></path>
                    <path d="M38.9622174,122.935599 C38.9899112,122.954061 39.017605,122.96637 39.0422216,122.96637 L41.7254407,122.96637 C41.7531345,122.96637 41.7808282,122.954061 41.808522,122.935599 C41.8362158,122.914059 41.8423699,122.883288 41.8300616,122.843286 L40.4269104,116.950667 C40.414602,116.895279 40.3930624,116.867585 40.3653686,116.867585 C40.3376749,116.867585 40.3161353,116.895279 40.306904,116.950667 L38.9437549,122.843286 C38.9283695,122.883288 38.9345236,122.914059 38.9622174,122.935599 M42.8670396,127.252751 L42.3962454,125.261876 C42.3839371,125.206488 42.3531662,125.178795 42.2977787,125.178795 L38.4975774,125.178795 C38.4421899,125.178795 38.4052648,125.206488 38.3929565,125.261876 L37.9252394,127.252751 C37.8852373,127.388142 37.7960018,127.458915 37.66061,127.458915 L35.2020183,127.458915 C35.0266243,127.458915 34.9589285,127.366603 34.9989306,127.194286 L38.6575859,113.43048 C38.697588,113.295088 38.7929777,113.23047 38.9437549,113.23047 L41.8885262,113.23047 C42.0393035,113.23047 42.1346931,113.295088 42.1746952,113.43048 L45.8333506,127.194286 L45.8518131,127.27429 C45.8518131,127.397374 45.7810401,127.458915 45.6302629,127.458915 L43.1501315,127.458915 C42.9993543,127.458915 42.9070417,127.388142 42.8670396,127.252751" id="Fill-17" fill-opacity="0.55" fill="#343434"></path>
                    <path d="M55.9732722,113.298473 C56.0225056,113.347707 56.0440452,113.403094 56.0440452,113.473867 L56.0440452,115.464742 C56.0440452,115.532438 56.0225056,115.587825 55.9732722,115.637059 C55.9240388,115.683215 55.8686513,115.707832 55.8009554,115.707832 L52.711561,115.707832 C52.6438651,115.707832 52.6100172,115.741679 52.6100172,115.809375 L52.6100172,127.213056 C52.6100172,127.280752 52.5854005,127.33614 52.5392442,127.385373 C52.4900108,127.434606 52.4346233,127.459223 52.3669274,127.459223 L49.9883398,127.459223 C49.920644,127.459223 49.8652564,127.434606 49.816023,127.385373 C49.7667897,127.33614 49.74525,127.280752 49.74525,127.213056 L49.74525,115.809375 C49.74525,115.741679 49.7114021,115.707832 49.6406291,115.707832 L46.6558557,115.707832 C46.5850827,115.707832 46.5296951,115.683215 46.4804618,115.637059 C46.4343055,115.587825 46.4127659,115.532438 46.4127659,115.464742 L46.4127659,113.473867 C46.4127659,113.403094 46.4343055,113.347707 46.4804618,113.298473 C46.5296951,113.252317 46.5850827,113.230777 46.6558557,113.230777 L55.8009554,113.230777 C55.8686513,113.230777 55.9240388,113.252317 55.9732722,113.298473" id="Fill-19" fill-opacity="0.55" fill="#343434"></path>
                    <path d="M67.0375505,115.618288 C66.9883171,115.664445 66.9329296,115.685984 66.8652337,115.685984 L61.4187914,115.685984 C61.3480184,115.685984 61.3172476,115.722909 61.3172476,115.790605 L61.3172476,118.960004 C61.3172476,119.0277 61.3480184,119.061548 61.4187914,119.061548 L64.8097402,119.061548 C64.8805132,119.061548 64.9359007,119.086164 64.9851341,119.135398 C65.0343675,119.181554 65.0559071,119.240019 65.0559071,119.304637 L65.0559071,121.27705 C65.0559071,121.344745 65.0343675,121.40321 64.9851341,121.452443 C64.9359007,121.4986 64.8805132,121.523216 64.8097402,121.523216 L61.4187914,121.523216 C61.3480184,121.523216 61.3172476,121.557064 61.3172476,121.621683 L61.3172476,124.895703 C61.3172476,124.963399 61.3480184,124.997247 61.4187914,124.997247 L66.8652337,124.997247 C66.9329296,124.997247 66.9883171,125.021863 67.0375505,125.06802 C67.0867839,125.117253 67.1083235,125.17264 67.1083235,125.240336 L67.1083235,127.215826 C67.1083235,127.280444 67.0867839,127.338909 67.0375505,127.385065 C66.9883171,127.434299 66.9329296,127.458915 66.8652337,127.458915 L58.6924932,127.458915 C58.6278743,127.458915 58.5694097,127.434299 58.5201763,127.385065 C58.47402,127.338909 58.4494034,127.280444 58.4494034,127.215826 L58.4494034,113.473559 C58.4494034,113.402786 58.47402,113.347399 58.5201763,113.298165 C58.5694097,113.252009 58.6278743,113.23047 58.6924932,113.23047 L66.8652337,113.23047 C66.9329296,113.23047 66.9883171,113.252009 67.0375505,113.298165 C67.0867839,113.347399 67.1083235,113.402786 67.1083235,113.473559 L67.1083235,115.442894 C67.1083235,115.513667 67.0867839,115.569055 67.0375505,115.618288" id="Fill-21" fill-opacity="0.55" fill="#343434"></path>
                    <path d="M72.4495295,115.789682 L72.4495295,119.266789 C72.4495295,119.331408 72.4833774,119.368333 72.5510733,119.368333 L74.3203978,119.368333 C74.8219628,119.368333 75.2281382,119.199093 75.5420009,118.869845 C75.8497096,118.53752 76.0066409,118.094419 76.0066409,117.537467 C76.0066409,116.968206 75.8497096,116.518951 75.5420009,116.186626 C75.2281382,115.854301 74.8219628,115.688138 74.3203978,115.688138 L72.5510733,115.688138 C72.4833774,115.688138 72.4495295,115.725063 72.4495295,115.789682 M75.9851013,127.254905 L73.9326849,121.6423 C73.9080683,121.589989 73.8742203,121.562295 73.8311411,121.562295 L72.5510733,121.562295 C72.4833774,121.562295 72.4495295,121.59922 72.4495295,121.663839 L72.4495295,127.214903 C72.4495295,127.279521 72.4249128,127.337986 72.3818336,127.387219 C72.3326002,127.433376 72.2741356,127.457992 72.2064397,127.457992 L69.8278522,127.457992 C69.7601563,127.457992 69.7016916,127.433376 69.6555353,127.387219 C69.606302,127.337986 69.5847624,127.279521 69.5847624,127.214903 L69.5847624,113.472636 C69.5847624,113.40494 69.606302,113.346476 69.6555353,113.297242 C69.7016916,113.254163 69.7601563,113.229546 69.8278522,113.229546 L74.7881149,113.229546 C75.5881572,113.229546 76.2989641,113.411094 76.9205355,113.768036 C77.545184,114.128056 78.0252094,114.629621 78.3667659,115.281963 C78.7021683,115.931228 78.8744851,116.675883 78.8744851,117.519004 C78.8744851,118.386743 78.6837058,119.137552 78.3021471,119.774508 C77.9236655,120.411465 77.3882526,120.885337 76.6989853,121.196122 C76.6282123,121.223816 76.6128269,121.269972 76.6374436,121.340745 L78.9544894,127.171823 C78.9667977,127.199517 78.976029,127.233365 78.976029,127.273367 C78.976029,127.396451 78.9021789,127.457992 78.7514017,127.457992 L76.2712703,127.457992 C76.1204931,127.457992 76.0281805,127.390296 75.9851013,127.254905" id="Fill-23" fill-opacity="0.55" fill="#343434"></path>
                    <path d="M87.6337183,127.121359 C86.9290656,126.792111 86.3844213,126.321317 85.9997856,125.718208 C85.6120728,125.118176 85.4182163,124.422755 85.4182163,123.635021 L85.4182163,123.105762 C85.4182163,123.041143 85.442833,122.982678 85.4920664,122.936522 C85.5351456,122.887289 85.5966873,122.862672 85.6613061,122.862672 L87.9998915,122.862672 C88.0706645,122.862672 88.1260521,122.887289 88.1752854,122.936522 C88.2183646,122.982678 88.2429813,123.041143 88.2429813,123.105762 L88.2429813,123.493475 C88.2429813,123.970423 88.4214523,124.36429 88.7722401,124.684307 C89.1230279,125.001247 89.5999763,125.158178 90.196931,125.158178 C90.7231127,125.158178 91.126211,125.022786 91.4062258,124.752003 C91.6800864,124.484296 91.8216324,124.136586 91.8216324,123.718102 C91.8216324,123.404239 91.7323969,123.136533 91.557003,122.914982 C91.3816091,122.693432 91.1354422,122.481113 90.8154253,122.28418 C90.4984854,122.087246 90.0061516,121.81954 89.341501,121.48106 C88.5291503,121.074885 87.8644997,120.696403 87.3506264,120.342539 C86.8336759,119.991751 86.3967297,119.536342 86.0305565,118.979389 C85.6613061,118.425514 85.4797581,117.754709 85.4797581,116.966975 C85.4797581,116.182318 85.6643832,115.496128 86.0367106,114.905327 C86.4121151,114.317604 86.9352198,113.862195 87.6152558,113.545255 C88.2922147,113.225238 89.0645633,113.068307 89.9323016,113.068307 C90.8400419,113.068307 91.6462385,113.237547 92.3508912,113.585258 C93.0555439,113.929891 93.6032652,114.412994 93.9971322,115.037642 C94.3879222,115.659214 94.5879328,116.379252 94.5879328,117.191602 L94.5879328,117.597778 C94.5879328,117.668551 94.5633161,117.723938 94.5140827,117.773172 C94.4679264,117.819328 94.4094618,117.840868 94.344843,117.840868 L92.0062576,117.840868 C91.9354846,117.840868 91.880097,117.819328 91.8308637,117.773172 C91.7847074,117.723938 91.7600907,117.668551 91.7600907,117.597778 L91.7600907,117.231605 C91.7600907,116.745425 91.5908509,116.33925 91.2523715,116.016156 C90.913892,115.686907 90.4523291,115.523822 89.8707598,115.523822 C89.3815032,115.523822 88.9968674,115.649982 88.7230067,115.902303 C88.446069,116.154624 88.3076001,116.502335 88.3076001,116.948513 C88.3076001,117.259298 88.3845273,117.533159 88.5506899,117.760863 C88.7137755,117.991645 88.9630195,118.210118 89.3014989,118.422437 C89.6399784,118.631679 90.1538518,118.905539 90.8461961,119.244019 L91.2739111,119.490186 C92.058568,119.924055 92.6739852,120.299459 93.1109315,120.619476 C93.5540318,120.936416 93.9232822,121.339514 94.2217595,121.825694 C94.5171598,122.314951 94.667937,122.905751 94.667937,123.595018 C94.667937,124.82893 94.2494533,125.807443 93.4186401,126.533636 C92.5816727,127.256751 91.4769988,127.619847 90.0953871,127.619847 C89.159953,127.619847 88.338371,127.453684 87.6337183,127.121359" id="Fill-25" fill-opacity="0.55" fill="#343434"></path>
                    <path d="M105.729446,115.618288 C105.68329,115.664445 105.624825,115.685984 105.557129,115.685984 L100.110687,115.685984 C100.042991,115.685984 100.009143,115.722909 100.009143,115.790605 L100.009143,118.960004 C100.009143,119.0277 100.042991,119.061548 100.110687,119.061548 L103.504713,119.061548 C103.572409,119.061548 103.627796,119.086164 103.67703,119.135398 C103.726263,119.181554 103.747803,119.240019 103.747803,119.304637 L103.747803,121.27705 C103.747803,121.344745 103.726263,121.40321 103.67703,121.452443 C103.627796,121.4986 103.572409,121.523216 103.504713,121.523216 L100.110687,121.523216 C100.042991,121.523216 100.009143,121.557064 100.009143,121.621683 L100.009143,124.895703 C100.009143,124.963399 100.042991,124.997247 100.110687,124.997247 L105.557129,124.997247 C105.624825,124.997247 105.68329,125.021863 105.729446,125.06802 C105.778679,125.117253 105.800219,125.17264 105.800219,125.240336 L105.800219,127.215826 C105.800219,127.280444 105.778679,127.338909 105.729446,127.385065 C105.68329,127.434299 105.624825,127.458915 105.557129,127.458915 L97.3874656,127.458915 C97.3197698,127.458915 97.2613051,127.434299 97.2120717,127.385065 C97.1659154,127.338909 97.1412988,127.280444 97.1412988,127.215826 L97.1412988,113.473559 C97.1412988,113.402786 97.1659154,113.347399 97.2120717,113.298165 C97.2613051,113.252009 97.3197698,113.23047 97.3874656,113.23047 L105.557129,113.23047 C105.624825,113.23047 105.68329,113.252009 105.729446,113.298165 C105.778679,113.347399 105.800219,113.402786 105.800219,113.473559 L105.800219,115.442894 C105.800219,115.513667 105.778679,115.569055 105.729446,115.618288" id="Fill-27" fill-opacity="0.55" fill="#343434"></path>
                    <path d="M111.937775,122.935599 C111.965469,122.954061 111.993162,122.96637 112.017779,122.96637 L114.700998,122.96637 C114.728692,122.96637 114.756386,122.954061 114.784079,122.935599 C114.811773,122.914059 114.817927,122.883288 114.805619,122.843286 L113.402468,116.950667 C113.390159,116.895279 113.36862,116.867585 113.340926,116.867585 C113.313232,116.867585 113.291693,116.895279 113.282461,116.950667 L111.916235,122.843286 C111.903927,122.883288 111.910081,122.914059 111.937775,122.935599 M115.842597,127.252751 L115.371803,125.261876 C115.359494,125.206488 115.328724,125.178795 115.273336,125.178795 L111.473135,125.178795 C111.417747,125.178795 111.380822,125.206488 111.368514,125.261876 L110.900797,127.252751 C110.860795,127.388142 110.771559,127.458915 110.636167,127.458915 L108.177576,127.458915 C108.002182,127.458915 107.934486,127.366603 107.974488,127.194286 L111.633143,113.43048 C111.673145,113.295088 111.768535,113.23047 111.916235,113.23047 L114.864084,113.23047 C115.014861,113.23047 115.107173,113.295088 115.150253,113.43048 L118.808908,127.194286 L118.82737,127.27429 C118.82737,127.397374 118.756597,127.458915 118.60582,127.458915 L116.125689,127.458915 C115.974912,127.458915 115.882599,127.388142 115.842597,127.252751" id="Fill-29" fill-opacity="0.55" fill="#343434"></path>
                    <path d="M128.94883,113.298473 C128.998063,113.347707 129.019603,113.403094 129.019603,113.473867 L129.019603,115.464742 C129.019603,115.532438 128.998063,115.587825 128.94883,115.637059 C128.899596,115.683215 128.844209,115.707832 128.776513,115.707832 L125.687118,115.707832 C125.619422,115.707832 125.585574,115.741679 125.585574,115.809375 L125.585574,127.213056 C125.585574,127.280752 125.560958,127.33614 125.514802,127.385373 C125.465568,127.434606 125.410181,127.459223 125.339408,127.459223 L122.963897,127.459223 C122.893124,127.459223 122.837737,127.434606 122.79158,127.385373 C122.742347,127.33614 122.720807,127.280752 122.720807,127.213056 L122.720807,115.809375 C122.720807,115.741679 122.686959,115.707832 122.616186,115.707832 L119.631413,115.707832 C119.56064,115.707832 119.505252,115.683215 119.456019,115.637059 C119.409863,115.587825 119.388323,115.532438 119.388323,115.464742 L119.388323,113.473867 C119.388323,113.403094 119.409863,113.347707 119.456019,113.298473 C119.505252,113.252317 119.56064,113.230777 119.631413,113.230777 L128.776513,113.230777 C128.844209,113.230777 128.899596,113.252317 128.94883,113.298473" id="Fill-31" fill-opacity="0.55" fill="#343434"></path>
                    <path d="M140.716222,113.298473 C140.765455,113.347707 140.786995,113.403094 140.786995,113.473867 L140.786995,115.464742 C140.786995,115.532438 140.765455,115.587825 140.716222,115.637059 C140.666989,115.683215 140.611601,115.707832 140.540828,115.707832 L137.451434,115.707832 C137.386815,115.707832 137.34989,115.741679 137.34989,115.809375 L137.34989,127.213056 C137.34989,127.280752 137.32835,127.33614 137.282194,127.385373 C137.232961,127.434606 137.177573,127.459223 137.1068,127.459223 L134.73129,127.459223 C134.660517,127.459223 134.605129,127.434606 134.558973,127.385373 C134.509739,127.33614 134.4882,127.280752 134.4882,127.213056 L134.4882,115.809375 C134.4882,115.741679 134.454352,115.707832 134.383579,115.707832 L131.398805,115.707832 C131.328032,115.707832 131.272645,115.683215 131.223412,115.637059 C131.174178,115.587825 131.152639,115.532438 131.152639,115.464742 L131.152639,113.473867 C131.152639,113.403094 131.174178,113.347707 131.223412,113.298473 C131.272645,113.252317 131.328032,113.230777 131.398805,113.230777 L140.540828,113.230777 C140.611601,113.230777 140.666989,113.252317 140.716222,113.298473" id="Fill-33" fill-opacity="0.55" fill="#343434"></path>
                    <path d="M143.261588,127.385681 C143.215431,127.336447 143.193892,127.28106 143.193892,127.213364 L143.193892,113.474175 C143.193892,113.403402 143.215431,113.348014 143.261588,113.298781 C143.310821,113.252625 143.366209,113.228008 143.436982,113.228008 L145.812492,113.228008 C145.883265,113.228008 145.938652,113.252625 145.987886,113.298781 C146.034042,113.348014 146.058659,113.403402 146.058659,113.474175 L146.058659,124.893241 C146.058659,124.964014 146.092507,124.997862 146.157126,124.997862 L151.606645,124.997862 C151.674341,124.997862 151.732805,125.019402 151.782039,125.068635 C151.828195,125.117868 151.849735,125.173256 151.849735,125.240952 L151.849735,127.213364 C151.849735,127.28106 151.828195,127.336447 151.782039,127.385681 C151.732805,127.434914 151.674341,127.456454 151.606645,127.456454 L143.436982,127.456454 C143.366209,127.456454 143.310821,127.434914 143.261588,127.385681" id="Fill-35" fill-opacity="0.55" fill="#343434"></path>
                    <path d="M162.793699,115.618288 C162.747543,115.664445 162.689078,115.685984 162.621382,115.685984 L157.17494,115.685984 C157.104167,115.685984 157.073396,115.722909 157.073396,115.790605 L157.073396,118.960004 C157.073396,119.0277 157.104167,119.061548 157.17494,119.061548 L160.565889,119.061548 C160.636662,119.061548 160.692049,119.086164 160.741283,119.135398 C160.790516,119.181554 160.812056,119.240019 160.812056,119.304637 L160.812056,121.27705 C160.812056,121.344745 160.790516,121.40321 160.741283,121.452443 C160.692049,121.4986 160.636662,121.523216 160.565889,121.523216 L157.17494,121.523216 C157.104167,121.523216 157.073396,121.557064 157.073396,121.621683 L157.073396,124.895703 C157.073396,124.963399 157.104167,124.997247 157.17494,124.997247 L162.621382,124.997247 C162.689078,124.997247 162.747543,125.021863 162.793699,125.06802 C162.842932,125.117253 162.864472,125.17264 162.864472,125.240336 L162.864472,127.215826 C162.864472,127.280444 162.842932,127.338909 162.793699,127.385065 C162.747543,127.434299 162.689078,127.458915 162.621382,127.458915 L154.448642,127.458915 C154.384023,127.458915 154.325558,127.434299 154.276325,127.385065 C154.230169,127.338909 154.205552,127.280444 154.205552,127.215826 L154.205552,113.473559 C154.205552,113.402786 154.230169,113.347399 154.276325,113.298165 C154.325558,113.252009 154.384023,113.23047 154.448642,113.23047 L162.621382,113.23047 C162.689078,113.23047 162.747543,113.252009 162.793699,113.298165 C162.842932,113.347399 162.864472,113.402786 162.864472,113.473559 L162.864472,115.442894 C162.864472,115.513667 162.842932,115.569055 162.793699,115.618288" id="Fill-37" fill-opacity="0.55" fill="#343434"></path>
                    <path d="M171.769559,127.070279 C171.064906,126.707183 170.520262,126.184079 170.132549,125.504043 C169.747913,124.827084 169.55098,124.042427 169.55098,123.150072 L169.55098,117.497465 C169.55098,116.617418 169.747913,115.841992 170.132549,115.171188 C170.520262,114.500383 171.064906,113.980355 171.769559,113.614182 C172.474212,113.251086 173.286562,113.066461 174.206611,113.066461 C175.129737,113.066461 175.939011,113.244932 176.64674,113.604951 C177.348316,113.961893 177.896037,114.466535 178.28375,115.118877 C178.668386,115.768142 178.862242,116.528183 178.862242,117.392844 L178.862242,117.497465 C178.862242,117.565161 178.837626,117.626702 178.791469,117.679013 C178.745313,117.7344 178.686848,117.762094 178.619153,117.762094 L176.240565,117.863638 C176.077479,117.863638 175.997475,117.786711 175.997475,117.642088 L175.997475,117.377458 C175.997475,116.820506 175.831313,116.371251 175.508219,116.032772 C175.182047,115.697369 174.751255,115.525053 174.206611,115.525053 C173.665044,115.525053 173.234252,115.697369 172.908081,116.032772 C172.58191,116.371251 172.418824,116.820506 172.418824,117.377458 L172.418824,123.33162 C172.418824,123.888572 172.58191,124.328596 172.908081,124.663998 C173.234252,124.993246 173.665044,125.159409 174.206611,125.159409 C174.751255,125.159409 175.182047,124.993246 175.508219,124.663998 C175.831313,124.328596 175.997475,123.888572 175.997475,123.33162 L175.997475,123.066991 C175.997475,122.916213 176.077479,122.842363 176.240565,122.842363 L178.619153,122.943907 C178.686848,122.943907 178.745313,122.968524 178.791469,123.017757 C178.837626,123.063913 178.862242,123.122378 178.862242,123.186997 L178.862242,123.251616 C178.862242,124.116277 178.668386,124.882471 178.28375,125.547122 C177.896037,126.211772 177.348316,126.722569 176.64674,127.082588 C175.939011,127.43953 175.129737,127.621078 174.206611,127.621078 C173.286562,127.621078 172.474212,127.436453 171.769559,127.070279" id="Fill-39" fill="#343434"></path>
                    <path d="M187.338384,124.621227 C187.676863,124.248899 187.846103,123.765797 187.846103,123.168842 L187.846103,117.559314 C187.846103,116.950051 187.676863,116.457717 187.338384,116.08539 C186.999904,115.709985 186.544495,115.52536 185.978312,115.52536 C185.421359,115.52536 184.972104,115.709985 184.633625,116.08539 C184.298223,116.457717 184.125906,116.950051 184.125906,117.559314 L184.125906,123.168842 C184.125906,123.765797 184.298223,124.248899 184.633625,124.621227 C184.972104,124.993554 185.421359,125.181256 185.978312,125.181256 C186.544495,125.181256 186.999904,124.993554 187.338384,124.621227 M183.507411,127.070587 C182.793527,126.692106 182.245806,126.156693 181.851939,125.464348 C181.458072,124.775081 181.261139,123.968884 181.261139,123.045759 L181.261139,117.639318 C181.261139,116.734655 181.458072,115.931536 181.851939,115.242268 C182.245806,114.549924 182.793527,114.014511 183.507411,113.636029 C184.218218,113.257548 185.042877,113.066769 185.978312,113.066769 C186.910669,113.066769 187.738405,113.257548 188.455366,113.636029 C189.175404,114.014511 189.729279,114.549924 190.123146,115.242268 C190.517013,115.931536 190.713947,116.734655 190.713947,117.639318 L190.713947,123.045759 C190.713947,123.968884 190.517013,124.775081 190.123146,125.464348 C189.729279,126.156693 189.175404,126.692106 188.455366,127.070587 C187.738405,127.452146 186.910669,127.639848 185.978312,127.639848 C185.042877,127.639848 184.218218,127.452146 183.507411,127.070587" id="Fill-41" fill="#343434"></path>
                    <path d="M196.217931,115.789682 L196.217931,119.266789 C196.217931,119.331408 196.251779,119.368333 196.316398,119.368333 L198.085722,119.368333 C198.590364,119.368333 198.993462,119.199093 199.307325,118.869845 C199.618111,118.53752 199.771965,118.094419 199.771965,117.537467 C199.771965,116.968206 199.618111,116.518951 199.307325,116.186626 C198.993462,115.854301 198.590364,115.688138 198.085722,115.688138 L196.316398,115.688138 C196.251779,115.688138 196.217931,115.725063 196.217931,115.789682 M199.753503,127.254905 L197.701086,121.6423 C197.673393,121.589989 197.639545,121.562295 197.599542,121.562295 L196.316398,121.562295 C196.251779,121.562295 196.217931,121.59922 196.217931,121.663839 L196.217931,127.214903 C196.217931,127.279521 196.193314,127.337986 196.147158,127.387219 C196.097924,127.433376 196.03946,127.457992 195.971764,127.457992 L193.593176,127.457992 C193.525481,127.457992 193.467016,127.433376 193.423937,127.387219 C193.374703,127.337986 193.350087,127.279521 193.350087,127.214903 L193.350087,113.472636 C193.350087,113.40494 193.374703,113.346476 193.423937,113.297242 C193.467016,113.254163 193.525481,113.229546 193.593176,113.229546 L198.556516,113.229546 C199.356559,113.229546 200.064288,113.411094 200.688937,113.768036 C201.310508,114.128056 201.793611,114.629621 202.13209,115.281963 C202.47057,115.931228 202.639809,116.675883 202.639809,117.519004 C202.639809,118.386743 202.44903,119.137552 202.070548,119.774508 C201.692067,120.411465 201.153577,120.885337 200.467387,121.196122 C200.396614,121.223816 200.378151,121.269972 200.402768,121.340745 L202.719814,127.171823 C202.735199,127.199517 202.741353,127.233365 202.741353,127.273367 C202.741353,127.396451 202.667503,127.457992 202.519803,127.457992 L200.036595,127.457992 C199.888894,127.457992 199.793505,127.390296 199.753503,127.254905" id="Fill-43" fill="#343434"></path>
                    <path d="M211.083641,124.621227 C211.422121,124.248899 211.59136,123.765797 211.59136,123.168842 L211.59136,117.559314 C211.59136,116.950051 211.422121,116.457717 211.083641,116.08539 C210.745162,115.709985 210.289753,115.52536 209.723569,115.52536 C209.166617,115.52536 208.717362,115.709985 208.378883,116.08539 C208.04348,116.457717 207.871163,116.950051 207.871163,117.559314 L207.871163,123.168842 C207.871163,123.765797 208.04348,124.248899 208.378883,124.621227 C208.717362,124.993554 209.166617,125.181256 209.723569,125.181256 C210.289753,125.181256 210.745162,124.993554 211.083641,124.621227 M207.252669,127.070587 C206.538785,126.692106 205.991064,126.156693 205.597197,125.464348 C205.20333,124.775081 205.006396,123.968884 205.006396,123.045759 L205.006396,117.639318 C205.006396,116.734655 205.20333,115.931536 205.597197,115.242268 C205.991064,114.549924 206.538785,114.014511 207.252669,113.636029 C207.963476,113.257548 208.788135,113.066769 209.723569,113.066769 C210.655926,113.066769 211.483662,113.257548 212.200623,113.636029 C212.920662,114.014511 213.474537,114.549924 213.868404,115.242268 C214.262271,115.931536 214.459205,116.734655 214.459205,117.639318 L214.459205,123.045759 C214.459205,123.968884 214.262271,124.775081 213.868404,125.464348 C213.474537,126.156693 212.920662,126.692106 212.200623,127.070587 C211.483662,127.452146 210.655926,127.639848 209.723569,127.639848 C208.788135,127.639848 207.963476,127.452146 207.252669,127.070587" id="Fill-45" fill="#343434"></path>
                    <path d="M224.161257,113.298473 C224.207413,113.252317 224.265878,113.230777 224.333574,113.230777 L226.690622,113.230777 C226.758318,113.230777 226.813705,113.252317 226.862938,113.298473 C226.912172,113.347707 226.933711,113.403094 226.933711,113.473867 L226.933711,127.213056 C226.933711,127.280752 226.912172,127.33614 226.862938,127.385373 C226.813705,127.434606 226.758318,127.459223 226.690622,127.459223 L224.213567,127.459223 C224.075099,127.459223 223.979709,127.397681 223.927398,127.274598 L220.044116,119.003391 C220.016422,118.960311 219.991805,118.941849 219.964112,118.941849 C219.936418,118.941849 219.921032,118.969543 219.921032,119.021853 L219.942572,127.213056 C219.942572,127.280752 219.917955,127.33614 219.868722,127.385373 C219.825643,127.434606 219.764101,127.459223 219.699482,127.459223 L217.339357,127.459223 C217.271661,127.459223 217.213197,127.434606 217.170117,127.385373 C217.120884,127.33614 217.096267,127.280752 217.096267,127.213056 L217.096267,113.473867 C217.096267,113.403094 217.120884,113.347707 217.170117,113.298473 C217.213197,113.252317 217.271661,113.230777 217.339357,113.230777 L219.801026,113.230777 C219.936418,113.230777 220.02873,113.289242 220.084118,113.412325 L223.967401,121.68661 C223.995094,121.723535 224.019711,121.745074 224.047405,121.745074 C224.075099,121.745074 224.090484,121.717381 224.090484,121.66507 L224.090484,113.473867 C224.090484,113.403094 224.112024,113.347707 224.161257,113.298473" id="Fill-47" fill="#343434"></path>
                    <path d="M233.275278,122.935599 C233.302972,122.954061 233.330666,122.96637 233.355282,122.96637 L236.038501,122.96637 C236.066195,122.96637 236.093889,122.954061 236.121583,122.935599 C236.149276,122.914059 236.155431,122.883288 236.140045,122.843286 L234.739971,116.950667 C234.724586,116.895279 234.706123,116.867585 234.678429,116.867585 C234.647658,116.867585 234.629196,116.895279 234.616888,116.950667 L233.253738,122.843286 C233.238353,122.883288 233.247584,122.914059 233.275278,122.935599 M237.1801,127.252751 L236.709306,125.261876 C236.693921,125.206488 236.66315,125.178795 236.607762,125.178795 L232.807561,125.178795 C232.752173,125.178795 232.718326,125.206488 232.70294,125.261876 L232.2383,127.252751 C232.195221,127.388142 232.109062,127.458915 231.973671,127.458915 L229.512002,127.458915 C229.339685,127.458915 229.268912,127.366603 229.311991,127.194286 L232.967569,113.43048 C233.010649,113.295088 233.102961,113.23047 233.253738,113.23047 L236.201587,113.23047 C236.349287,113.23047 236.444677,113.295088 236.487756,113.43048 L240.143334,127.194286 L240.164874,127.27429 C240.164874,127.397374 240.091024,127.458915 239.940246,127.458915 L237.460115,127.458915 C237.312415,127.458915 237.217025,127.388142 237.1801,127.252751" id="Fill-49" fill="#343434"></path>
                    <path d="M244.23432,127.253674 L240.698748,113.492945 L240.698748,113.412941 C240.698748,113.289857 240.772598,113.228316 240.923375,113.228316 L243.501974,113.228316 C243.652751,113.228316 243.738909,113.305243 243.766603,113.452943 L245.822096,122.905751 C245.834405,122.958062 245.852867,122.985755 245.880561,122.985755 C245.908255,122.985755 245.929794,122.958062 245.942103,122.905751 L247.976057,113.452943 C248.00375,113.305243 248.089909,113.228316 248.240686,113.228316 L250.73928,113.228316 C250.930059,113.228316 251.003909,113.317551 250.963907,113.492945 L247.382179,127.253674 C247.345254,127.389066 247.246787,127.456761 247.102164,127.456761 L244.520489,127.456761 C244.369712,127.456761 244.277399,127.389066 244.23432,127.253674" id="Fill-51" fill="#343434"></path>
                    <path d="M253.4385,127.385681 C253.389266,127.336447 253.367727,127.28106 253.367727,127.213364 L253.367727,113.474175 C253.367727,113.403402 253.389266,113.348014 253.4385,113.298781 C253.487733,113.252625 253.543121,113.228008 253.610817,113.228008 L255.989404,113.228008 C256.0571,113.228008 256.112488,113.252625 256.161721,113.298781 C256.207877,113.348014 256.232494,113.403402 256.232494,113.474175 L256.232494,127.213364 C256.232494,127.28106 256.207877,127.336447 256.161721,127.385681 C256.112488,127.434914 256.0571,127.456454 255.989404,127.456454 L253.610817,127.456454 C253.543121,127.456454 253.487733,127.434914 253.4385,127.385681" id="Fill-53" fill="#343434"></path>
                    <path d="M261.939565,115.789682 L261.939565,119.266789 C261.939565,119.331408 261.973413,119.368333 262.038032,119.368333 L263.807357,119.368333 C264.311999,119.368333 264.715097,119.199093 265.02896,118.869845 C265.339746,118.53752 265.4936,118.094419 265.4936,117.537467 C265.4936,116.968206 265.339746,116.518951 265.02896,116.186626 C264.715097,115.854301 264.311999,115.688138 263.807357,115.688138 L262.038032,115.688138 C261.973413,115.688138 261.939565,115.725063 261.939565,115.789682 M265.475137,127.254905 L263.422721,121.6423 C263.395027,121.589989 263.361179,121.562295 263.321177,121.562295 L262.038032,121.562295 C261.973413,121.562295 261.939565,121.59922 261.939565,121.663839 L261.939565,127.214903 C261.939565,127.279521 261.914949,127.337986 261.868793,127.387219 C261.819559,127.433376 261.761094,127.457992 261.693399,127.457992 L259.314811,127.457992 C259.247115,127.457992 259.188651,127.433376 259.142494,127.387219 C259.096338,127.337986 259.071721,127.279521 259.071721,127.214903 L259.071721,113.472636 C259.071721,113.40494 259.096338,113.346476 259.142494,113.297242 C259.188651,113.254163 259.247115,113.229546 259.314811,113.229546 L264.278151,113.229546 C265.078193,113.229546 265.785923,113.411094 266.410572,113.768036 C267.032143,114.128056 267.515245,114.629621 267.853725,115.281963 C268.192204,115.931228 268.361444,116.675883 268.361444,117.519004 C268.361444,118.386743 268.170665,119.137552 267.792183,119.774508 C267.410624,120.411465 266.875212,120.885337 266.185944,121.196122 C266.118248,121.223816 266.099786,121.269972 266.124403,121.340745 L268.441448,127.171823 C268.456834,127.199517 268.462988,127.233365 268.462988,127.273367 C268.462988,127.396451 268.389138,127.457992 268.241438,127.457992 L265.758229,127.457992 C265.610529,127.457992 265.515139,127.390296 265.475137,127.254905" id="Fill-55" fill="#343434"></path>
                    <path d="M273.013075,127.052125 C272.308422,126.670566 271.763778,126.13823 271.376065,125.455117 C270.99143,124.772004 270.794496,123.981193 270.794496,123.088838 L270.794496,113.472944 C270.794496,113.402171 270.819113,113.346783 270.868346,113.29755 C270.914502,113.254471 270.972967,113.229854 271.040663,113.229854 L273.41925,113.229854 C273.486946,113.229854 273.545411,113.254471 273.591567,113.29755 C273.637724,113.346783 273.66234,113.402171 273.66234,113.472944 L273.66234,123.230384 C273.66234,123.811953 273.825426,124.27967 274.151597,124.633535 C274.477768,124.984323 274.90856,125.159717 275.453204,125.159717 C275.994771,125.159717 276.425563,124.984323 276.754812,124.633535 C277.077906,124.27967 277.240991,123.811953 277.240991,123.230384 L277.240991,113.472944 C277.240991,113.402171 277.265608,113.346783 277.308687,113.29755 C277.357921,113.254471 277.416385,113.229854 277.484081,113.229854 L279.862669,113.229854 C279.930364,113.229854 279.988829,113.254471 280.034985,113.29755 C280.084219,113.346783 280.108835,113.402171 280.108835,113.472944 L280.108835,123.088838 C280.108835,123.981193 279.911902,124.772004 279.527266,125.455117 C279.139553,126.13823 278.594909,126.670566 277.890256,127.052125 C277.185604,127.430606 276.373253,127.621386 275.453204,127.621386 C274.530078,127.621386 273.717728,127.430606 273.013075,127.052125" id="Fill-57" fill="#343434"></path>
                    <path d="M284.756466,127.121359 C284.051814,126.792111 283.507169,126.321317 283.122534,125.718208 C282.734821,125.118176 282.540964,124.422755 282.540964,123.635021 L282.540964,123.105762 C282.540964,123.041143 282.565581,122.982678 282.614814,122.936522 C282.657894,122.887289 282.716358,122.862672 282.784054,122.862672 L285.122639,122.862672 C285.190335,122.862672 285.2488,122.887289 285.294956,122.936522 C285.341113,122.982678 285.365729,123.041143 285.365729,123.105762 L285.365729,123.493475 C285.365729,123.970423 285.5442,124.36429 285.894988,124.684307 C286.245776,125.001247 286.722724,125.158178 287.316602,125.158178 C287.845861,125.158178 288.248959,125.022786 288.528974,124.752003 C288.802834,124.484296 288.94438,124.136586 288.94438,123.718102 C288.94438,123.404239 288.855145,123.136533 288.679751,122.914982 C288.504357,122.693432 288.25819,122.481113 287.938173,122.28418 C287.621233,122.087246 287.1289,121.81954 286.464249,121.48106 C285.651898,121.074885 284.987248,120.696403 284.470297,120.342539 C283.956424,119.991751 283.519478,119.536342 283.153304,118.979389 C282.784054,118.425514 282.602506,117.754709 282.602506,116.966975 C282.602506,116.182318 282.787131,115.496128 283.159459,114.905327 C283.534863,114.317604 284.057968,113.862195 284.734927,113.545255 C285.414963,113.225238 286.187311,113.068307 287.05505,113.068307 C287.96279,113.068307 288.768986,113.237547 289.473639,113.585258 C290.178292,113.929891 290.726013,114.412994 291.11988,115.037642 C291.51067,115.659214 291.710681,116.379252 291.710681,117.191602 L291.710681,117.597778 C291.710681,117.668551 291.686064,117.723938 291.636831,117.773172 C291.590674,117.819328 291.53221,117.840868 291.464514,117.840868 L289.129006,117.840868 C289.058233,117.840868 289.002845,117.819328 288.953612,117.773172 C288.907455,117.723938 288.882839,117.668551 288.882839,117.597778 L288.882839,117.231605 C288.882839,116.745425 288.713599,116.33925 288.375119,116.016156 C288.033563,115.686907 287.575077,115.523822 286.993508,115.523822 C286.504251,115.523822 286.119615,115.649982 285.845755,115.902303 C285.568817,116.154624 285.427271,116.502335 285.427271,116.948513 C285.427271,117.259298 285.507275,117.533159 285.670361,117.760863 C285.836523,117.991645 286.085767,118.210118 286.424247,118.422437 C286.759649,118.631679 287.2766,118.905539 287.968944,119.244019 L288.396659,119.490186 C289.181316,119.924055 289.796733,120.299459 290.233679,120.619476 C290.67678,120.936416 291.04603,121.339514 291.344507,121.825694 C291.639908,122.314951 291.790685,122.905751 291.790685,123.595018 C291.790685,124.82893 291.372201,125.807443 290.541388,126.533636 C289.704421,127.256751 288.599747,127.619847 287.218135,127.619847 C286.282701,127.619847 285.461119,127.453684 284.756466,127.121359" id="Fill-59" fill="#343434"></path>
                    <path d="M4.34499935,146.848865 C4.37269312,146.867328 4.4003869,146.879636 4.42500359,146.879636 L7.10822262,146.879636 C7.1359164,146.879636 7.16361017,146.867328 7.19130394,146.848865 C7.21899772,146.827326 7.22515189,146.796555 7.21284355,146.756553 L5.80969231,140.863933 C5.79430688,140.808546 5.77584436,140.780852 5.74815059,140.780852 C5.71737973,140.780852 5.69891721,140.808546 5.68660887,140.863933 L4.32345975,146.756553 C4.3111514,146.796555 4.31730557,146.827326 4.34499935,146.848865 M8.24982154,151.166017 L7.77902738,149.175143 C7.76671904,149.119755 7.73287109,149.092061 7.67748354,149.092061 L3.87728227,149.092061 C3.82189472,149.092061 3.78804677,149.119755 3.77266134,149.175143 L3.30802135,151.166017 C3.26494214,151.301409 3.17878374,151.372182 3.04339195,151.372182 L0.58172311,151.372182 C0.409406291,151.372182 0.338633312,151.279869 0.381712516,151.107553 L4.03729074,137.343747 C4.08036995,137.208355 4.17268253,137.143736 4.32345975,137.143736 L7.27130818,137.143736 C7.4220854,137.143736 7.51439798,137.208355 7.55747718,137.343747 L11.2130554,151.107553 L11.234595,151.187557 C11.234595,151.31064 11.1607449,151.372182 11.0099677,151.372182 L8.52983638,151.372182 C8.38213625,151.372182 8.28674658,151.301409 8.24982154,151.166017" id="Fill-61" fill="#343434"></path>
                    <path d="M15.2560388,151.034933 C14.5513861,150.705685 14.0067418,150.234891 13.619029,149.631782 C13.2343932,149.03175 13.0405368,148.336329 13.0405368,147.548595 L13.0405368,147.019336 C13.0405368,146.954717 13.0620764,146.896253 13.1113098,146.850096 C13.1574661,146.800863 13.2159307,146.776246 13.2836266,146.776246 L15.622212,146.776246 C15.6899079,146.776246 15.7452955,146.800863 15.7945288,146.850096 C15.8406851,146.896253 15.8653018,146.954717 15.8653018,147.019336 L15.8653018,147.407049 C15.8653018,147.883997 16.0406957,148.277864 16.3945606,148.597881 C16.7453484,148.914821 17.2222968,149.07483 17.8161744,149.07483 C18.3454332,149.07483 18.7485314,148.936361 19.0285463,148.665577 C19.3024069,148.397871 19.4408758,148.05016 19.4408758,147.631676 C19.4408758,147.317813 19.3547174,147.050107 19.1793235,146.828557 C19.0039296,146.607007 18.7546856,146.394688 18.4346687,146.197754 C18.1208059,146.000821 17.6284721,145.733114 16.9638215,145.394635 C16.1514708,144.988459 15.4837431,144.609978 14.9698698,144.256113 C14.4559964,143.905325 14.0159731,143.449916 13.6528769,142.892964 C13.2836266,142.339088 13.1020785,141.668283 13.1020785,140.880549 C13.1020785,140.095892 13.2867037,139.409702 13.6590311,138.818902 C14.0344356,138.231178 14.5575402,137.77577 15.2344992,137.45883 C15.9145352,137.138813 16.6868838,136.981881 17.551545,136.981881 C18.4592853,136.981881 19.268559,137.151121 19.9701346,137.498832 C20.6778644,137.843465 21.2225086,138.326568 21.6163756,138.951216 C22.0102426,139.572788 22.2071762,140.292826 22.2071762,141.105177 L22.2071762,141.511352 C22.2071762,141.582125 22.1825595,141.637513 22.1364032,141.686746 C22.0902469,141.735979 22.0317823,141.754442 21.9640864,141.754442 L19.625501,141.754442 C19.5578051,141.754442 19.4993404,141.735979 19.4531841,141.686746 C19.4070279,141.637513 19.3824112,141.582125 19.3824112,141.511352 L19.3824112,141.145179 C19.3824112,140.658999 19.2131714,140.252824 18.874692,139.92973 C18.5331354,139.600482 18.0746496,139.437396 17.4930803,139.437396 C17.0038236,139.437396 16.6191879,139.563557 16.3453272,139.815878 C16.0653124,140.068199 15.9268435,140.415909 15.9268435,140.862087 C15.9268435,141.172873 16.0068478,141.446733 16.1699333,141.674438 C16.3330189,141.905219 16.5853399,142.123692 16.9238194,142.336011 C17.2592218,142.545253 17.7761722,142.819114 18.4685166,143.157593 L18.8962316,143.40376 C19.6778114,143.837629 20.2932286,144.213034 20.7332519,144.533051 C21.1732752,144.84999 21.5425256,145.253089 21.8410029,145.739268 C22.1394803,146.228525 22.2871804,146.819325 22.2871804,147.508593 C22.2871804,148.742504 21.8717738,149.721018 21.0378835,150.44721 C20.2039931,151.170325 19.0962422,151.533421 17.7146305,151.533421 C16.7791964,151.533421 15.9606915,151.367259 15.2560388,151.034933" id="Fill-63" fill="#343434"></path>
                    <path d="M26.7800337,151.034933 C26.075381,150.705685 25.5307368,150.234891 25.143024,149.631782 C24.7553111,149.03175 24.5614547,148.336329 24.5614547,147.548595 L24.5614547,147.019336 C24.5614547,146.954717 24.5860714,146.896253 24.6353048,146.850096 C24.681461,146.800863 24.7399257,146.776246 24.8045445,146.776246 L27.1431299,146.776246 C27.2139029,146.776246 27.2692904,146.800863 27.3185238,146.850096 C27.361603,146.896253 27.3892968,146.954717 27.3892968,147.019336 L27.3892968,147.407049 C27.3892968,147.883997 27.5646907,148.277864 27.9154785,148.597881 C28.2693434,148.914821 28.7432146,149.07483 29.3401693,149.07483 C29.8694281,149.07483 30.2725264,148.936361 30.5494641,148.665577 C30.8264019,148.397871 30.9648708,148.05016 30.9648708,147.631676 C30.9648708,147.317813 30.8787124,147.050107 30.7002414,146.828557 C30.5248475,146.607007 30.2786806,146.394688 29.9586636,146.197754 C29.6417238,146.000821 29.1524671,145.733114 28.4878165,145.394635 C27.6723887,144.988459 27.0077381,144.609978 26.4938647,144.256113 C25.9769143,143.905325 25.5399681,143.449916 25.1737948,142.892964 C24.8045445,142.339088 24.6229964,141.668283 24.6229964,140.880549 C24.6229964,140.095892 24.8076216,139.409702 25.1830261,138.818902 C25.5584306,138.231178 26.0784581,137.77577 26.7584941,137.45883 C27.4354531,137.138813 28.2078017,136.981881 29.0755399,136.981881 C29.9832803,136.981881 30.7894769,137.151121 31.4941296,137.498832 C32.1987823,137.843465 32.7465036,138.326568 33.1403706,138.951216 C33.5342376,139.572788 33.7311711,140.292826 33.7311711,141.105177 L33.7311711,141.511352 C33.7311711,141.582125 33.7065544,141.637513 33.6573211,141.686746 C33.6111648,141.735979 33.5527001,141.754442 33.4880813,141.754442 L31.1494959,141.754442 C31.0787229,141.754442 31.0233354,141.735979 30.974102,141.686746 C30.9310228,141.637513 30.9064061,141.582125 30.9064061,141.511352 L30.9064061,141.145179 C30.9064061,140.658999 30.7340893,140.252824 30.3986869,139.92973 C30.0571304,139.600482 29.5955675,139.437396 29.0170753,139.437396 C28.5247415,139.437396 28.1431829,139.563557 27.8693222,139.815878 C27.5893074,140.068199 27.4508385,140.415909 27.4508385,140.862087 C27.4508385,141.172873 27.5308427,141.446733 27.6939283,141.674438 C27.8570139,141.905219 28.1093349,142.123692 28.4447373,142.336011 C28.7832168,142.545253 29.2970901,142.819114 29.9894345,143.157593 L30.4171494,143.40376 C31.2018064,143.837629 31.8172236,144.213034 32.2572469,144.533051 C32.6972702,144.84999 33.0665205,145.253089 33.3649979,145.739268 C33.6603981,146.228525 33.8111754,146.819325 33.8111754,147.508593 C33.8111754,148.742504 33.3926917,149.721018 32.5618784,150.44721 C31.7279881,151.170325 30.6202371,151.533421 29.2386255,151.533421 C28.3031913,151.533421 27.4846864,151.367259 26.7800337,151.034933" id="Fill-65" fill="#343434"></path>
                    <path d="M44.8760691,139.531863 C44.8268357,139.578019 44.7714482,139.599558 44.7006752,139.599558 L39.2542329,139.599558 C39.186537,139.599558 39.1557661,139.636483 39.1557661,139.704179 L39.1557661,142.873578 C39.1557661,142.941274 39.186537,142.975122 39.2542329,142.975122 L42.6482588,142.975122 C42.7159547,142.975122 42.7744193,142.999739 42.8205756,143.048972 C42.869809,143.095128 42.8913486,143.153593 42.8913486,143.218212 L42.8913486,145.190624 C42.8913486,145.25832 42.869809,145.316784 42.8205756,145.366018 C42.7744193,145.412174 42.7159547,145.436791 42.6482588,145.436791 L39.2542329,145.436791 C39.186537,145.436791 39.1557661,145.470639 39.1557661,145.538335 L39.1557661,148.809277 C39.1557661,148.876973 39.186537,148.910821 39.2542329,148.910821 L44.7006752,148.910821 C44.7714482,148.910821 44.8268357,148.935438 44.8760691,148.981594 C44.9222254,149.030827 44.943765,149.086215 44.943765,149.156988 L44.943765,151.1294 C44.943765,151.194019 44.9222254,151.252483 44.8760691,151.29864 C44.8268357,151.347873 44.7714482,151.37249 44.7006752,151.37249 L36.5310117,151.37249 C36.4633158,151.37249 36.4048512,151.347873 36.3556178,151.29864 C36.3125386,151.252483 36.2879219,151.194019 36.2879219,151.1294 L36.2879219,137.387134 C36.2879219,137.319438 36.3125386,137.260973 36.3556178,137.214817 C36.4048512,137.165583 36.4633158,137.144044 36.5310117,137.144044 L44.7006752,137.144044 C44.7714482,137.144044 44.8268357,137.165583 44.8760691,137.214817 C44.9222254,137.260973 44.943765,137.319438 44.943765,137.387134 L44.943765,139.356469 C44.943765,139.427242 44.9222254,139.482629 44.8760691,139.531863" id="Fill-67" fill="#343434"></path>
                    <path d="M49.3443057,151.034933 C48.639653,150.705685 48.0950088,150.234891 47.710373,149.631782 C47.3226602,149.03175 47.1288038,148.336329 47.1288038,147.548595 L47.1288038,147.019336 C47.1288038,146.954717 47.1534205,146.896253 47.2026538,146.850096 C47.2457331,146.800863 47.3072748,146.776246 47.3718936,146.776246 L49.710479,146.776246 C49.781252,146.776246 49.8366395,146.800863 49.8858729,146.850096 C49.9289521,146.896253 49.9535688,146.954717 49.9535688,147.019336 L49.9535688,147.407049 C49.9535688,147.883997 50.1320398,148.277864 50.4828276,148.597881 C50.8336154,148.914821 51.3105637,149.07483 51.9075184,149.07483 C52.4337001,149.07483 52.8367984,148.936361 53.1168132,148.665577 C53.3906739,148.397871 53.5322199,148.05016 53.5322199,147.631676 C53.5322199,147.317813 53.4429844,147.050107 53.2675904,146.828557 C53.0921965,146.607007 52.8460297,146.394688 52.5260127,146.197754 C52.2090728,146.000821 51.7167391,145.733114 51.0551656,145.394635 C50.2397378,144.988459 49.5750872,144.609978 49.0612138,144.256113 C48.5442634,143.905325 48.1073171,143.449916 47.7411439,142.892964 C47.3718936,142.339088 47.1903455,141.668283 47.1903455,140.880549 C47.1903455,140.095892 47.3749707,139.409702 47.7472981,138.818902 C48.1227026,138.231178 48.6458072,137.77577 49.3227661,137.45883 C50.0028022,137.138813 50.7751507,136.981881 51.642889,136.981881 C52.5506294,136.981881 53.3568259,137.151121 54.0584016,137.498832 C54.7661314,137.843465 55.3138527,138.326568 55.7046426,138.951216 C56.0985096,139.572788 56.2985202,140.292826 56.2985202,141.105177 L56.2985202,141.511352 C56.2985202,141.582125 56.2739035,141.637513 56.2246701,141.686746 C56.1785139,141.735979 56.1200492,141.754442 56.0523533,141.754442 L53.7137679,141.754442 C53.646072,141.754442 53.5906845,141.735979 53.5414511,141.686746 C53.4952948,141.637513 53.4706781,141.582125 53.4706781,141.511352 L53.4706781,141.145179 C53.4706781,140.658999 53.3014384,140.252824 52.9629589,139.92973 C52.6244795,139.600482 52.1629166,139.437396 51.5813473,139.437396 C51.0920906,139.437396 50.7074549,139.563557 50.4335942,139.815878 C50.1566565,140.068199 50.0151105,140.415909 50.0151105,140.862087 C50.0151105,141.172873 50.0951147,141.446733 50.2612774,141.674438 C50.4243629,141.905219 50.6736069,142.123692 51.0120864,142.336011 C51.3505658,142.545253 51.8644392,142.819114 52.5567836,143.157593 L52.9844985,143.40376 C53.7691555,143.837629 54.3845727,144.213034 54.8215189,144.533051 C55.2646193,144.84999 55.6338696,145.253089 55.932347,145.739268 C56.2277472,146.228525 56.3785244,146.819325 56.3785244,147.508593 C56.3785244,148.742504 55.9600407,149.721018 55.1292275,150.44721 C54.2922601,151.170325 53.1875862,151.533421 51.8059746,151.533421 C50.8705404,151.533421 50.0489584,151.367259 49.3443057,151.034933" id="Fill-69" fill="#343434"></path>
                    <path d="M60.8683007,151.034933 C60.163648,150.705685 59.6190038,150.234891 59.2312909,149.631782 C58.8466552,149.03175 58.6527987,148.336329 58.6527987,147.548595 L58.6527987,147.019336 C58.6527987,146.954717 58.6743383,146.896253 58.7235717,146.850096 C58.769728,146.800863 58.8281926,146.776246 58.8958885,146.776246 L61.2344739,146.776246 C61.3021698,146.776246 61.3575574,146.800863 61.4067908,146.850096 C61.4529471,146.896253 61.4775637,146.954717 61.4775637,147.019336 L61.4775637,147.407049 C61.4775637,147.883997 61.6529576,148.277864 62.0068225,148.597881 C62.3576103,148.914821 62.8345587,149.07483 63.4284363,149.07483 C63.9576951,149.07483 64.3607934,148.936361 64.6408082,148.665577 C64.9146689,148.397871 65.0531377,148.05016 65.0531377,147.631676 C65.0531377,147.317813 64.9669793,147.050107 64.7885083,146.828557 C64.6161915,146.607007 64.3669475,146.394688 64.0469306,146.197754 C63.7299907,146.000821 63.240734,145.733114 62.5760835,145.394635 C61.7637327,144.988459 61.0960051,144.609978 60.5821317,144.256113 C60.0682583,143.905325 59.628235,143.449916 59.2651389,142.892964 C58.8958885,142.339088 58.7143405,141.668283 58.7143405,140.880549 C58.7143405,140.095892 58.8989656,139.409702 59.271293,138.818902 C59.6466975,138.231178 60.1698022,137.77577 60.8467611,137.45883 C61.5267971,137.138813 62.2960686,136.981881 63.1638069,136.981881 C64.0715473,136.981881 64.8808209,137.151121 65.5823965,137.498832 C66.2901263,137.843465 66.8347706,138.326568 67.2286376,138.951216 C67.6225046,139.572788 67.8194381,140.292826 67.8194381,141.105177 L67.8194381,141.511352 C67.8194381,141.582125 67.7948214,141.637513 67.7486651,141.686746 C67.7025088,141.735979 67.6440442,141.754442 67.5763483,141.754442 L65.2377629,141.754442 C65.170067,141.754442 65.1116024,141.735979 65.0654461,141.686746 C65.0192898,141.637513 64.9946731,141.582125 64.9946731,141.511352 L64.9946731,141.145179 C64.9946731,140.658999 64.8254334,140.252824 64.4869539,139.92973 C64.1453973,139.600482 63.6869115,139.437396 63.1053423,139.437396 C62.6160856,139.437396 62.2314498,139.563557 61.9575892,139.815878 C61.6775743,140.068199 61.5391055,140.415909 61.5391055,140.862087 C61.5391055,141.172873 61.6191097,141.446733 61.7821953,141.674438 C61.9452808,141.905219 62.1976019,142.123692 62.5360813,142.336011 C62.8714837,142.545253 63.3884342,142.819114 64.0807785,143.157593 L64.5084935,143.40376 C65.2900734,143.837629 65.9054906,144.213034 66.3455139,144.533051 C66.7855372,144.84999 67.1547875,145.253089 67.4532648,145.739268 C67.7517422,146.228525 67.8994423,146.819325 67.8994423,147.508593 C67.8994423,148.742504 67.4840357,149.721018 66.6501454,150.44721 C65.8162551,151.170325 64.7085041,151.533421 63.3268925,151.533421 C62.3914583,151.533421 61.5729534,151.367259 60.8683007,151.034933" id="Fill-71" fill="#343434"></path>
                    <path d="M78.5073888,137.142813 L80.8675138,137.142813 C80.9321326,137.142813 80.9905972,137.16743 81.0367535,137.213586 C81.0859869,137.259742 81.1106036,137.321284 81.1106036,137.385903 L81.1106036,151.128169 C81.1106036,151.192788 81.0859869,151.251252 81.0367535,151.300486 C80.9905972,151.346642 80.9321326,151.371259 80.8675138,151.371259 L78.4858492,151.371259 C78.4212304,151.371259 78.3596886,151.346642 78.3166094,151.300486 C78.2673761,151.251252 78.2427594,151.192788 78.2427594,151.128169 L78.2427594,142.099999 C78.2427594,142.047688 78.2273739,142.016917 78.1996802,142.010763 C78.1750635,142.004609 78.1473697,142.019994 78.1196759,142.063074 L76.2518847,145.152468 C76.1964971,145.260166 76.1011075,145.312476 75.9657157,145.312476 L75.4979986,145.312476 C75.3656839,145.312476 75.2672172,145.260166 75.2149067,145.152468 L73.3440384,142.063074 C73.3163446,142.019994 73.2917279,142.004609 73.2640341,142.010763 C73.2363404,142.016917 73.2209549,142.047688 73.2209549,142.099999 L73.2209549,151.128169 C73.2209549,151.192788 73.1963382,151.251252 73.153259,151.300486 C73.1040257,151.346642 73.0486381,151.371259 72.9778651,151.371259 L70.6023547,151.371259 C70.5315817,151.371259 70.4761942,151.346642 70.4269608,151.300486 C70.3777274,151.251252 70.3561878,151.192788 70.3561878,151.128169 L70.3561878,137.385903 C70.3561878,137.321284 70.3777274,137.259742 70.4269608,137.213586 C70.4761942,137.16743 70.5315817,137.142813 70.6023547,137.142813 L72.9563255,137.142813 C73.0917173,137.142813 73.187107,137.1982 73.2424945,137.305899 L75.6826238,141.309187 C75.7226259,141.389192 75.762628,141.389192 75.8026301,141.309187 L78.2212198,137.305899 C78.2766073,137.1982 78.371997,137.142813 78.5073888,137.142813" id="Fill-73" fill="#343434"></path>
                    <path d="M92.5376703,139.531863 C92.4884369,139.578019 92.4330494,139.599558 92.3622764,139.599558 L86.9158341,139.599558 C86.8481382,139.599558 86.8142903,139.636483 86.8142903,139.704179 L86.8142903,142.873578 C86.8142903,142.941274 86.8481382,142.975122 86.9158341,142.975122 L90.30986,142.975122 C90.3775559,142.975122 90.4360206,142.999739 90.4821768,143.048972 C90.5314102,143.095128 90.5529498,143.153593 90.5529498,143.218212 L90.5529498,145.190624 C90.5529498,145.25832 90.5314102,145.316784 90.4821768,145.366018 C90.4360206,145.412174 90.3775559,145.436791 90.30986,145.436791 L86.9158341,145.436791 C86.8481382,145.436791 86.8142903,145.470639 86.8142903,145.538335 L86.8142903,148.809277 C86.8142903,148.876973 86.8481382,148.910821 86.9158341,148.910821 L92.3622764,148.910821 C92.4330494,148.910821 92.4884369,148.935438 92.5376703,148.981594 C92.5838266,149.030827 92.6053662,149.086215 92.6053662,149.156988 L92.6053662,151.1294 C92.6053662,151.194019 92.5838266,151.252483 92.5376703,151.29864 C92.4884369,151.347873 92.4330494,151.37249 92.3622764,151.37249 L84.192613,151.37249 C84.1249171,151.37249 84.0664524,151.347873 84.0172191,151.29864 C83.9741398,151.252483 83.9495232,151.194019 83.9495232,151.1294 L83.9495232,137.387134 C83.9495232,137.319438 83.9741398,137.260973 84.0172191,137.214817 C84.0664524,137.165583 84.1249171,137.144044 84.192613,137.144044 L92.3622764,137.144044 C92.4330494,137.144044 92.4884369,137.165583 92.5376703,137.214817 C92.5838266,137.260973 92.6053662,137.319438 92.6053662,137.387134 L92.6053662,139.356469 C92.6053662,139.427242 92.5838266,139.482629 92.5376703,139.531863" id="Fill-75" fill="#343434"></path>
                    <path d="M102.147718,137.215124 C102.193874,137.165891 102.252339,137.144351 102.320035,137.144351 L104.677082,137.144351 C104.744778,137.144351 104.800166,137.165891 104.849399,137.215124 C104.898633,137.261281 104.920172,137.319745 104.920172,137.387441 L104.920172,151.12663 C104.920172,151.194326 104.898633,151.252791 104.849399,151.298947 C104.800166,151.348181 104.744778,151.372797 104.677082,151.372797 L102.200028,151.372797 C102.061559,151.372797 101.96617,151.311256 101.913859,151.188172 L98.0305766,142.916965 C98.0028829,142.873886 97.9782662,142.855423 97.9505724,142.855423 C97.9228786,142.855423 97.9074932,142.883117 97.9074932,142.935427 L97.9290328,151.12663 C97.9290328,151.194326 97.9044161,151.252791 97.8551827,151.298947 C97.8121035,151.348181 97.7505618,151.372797 97.685943,151.372797 L95.325818,151.372797 C95.2611992,151.372797 95.2027346,151.348181 95.1565783,151.298947 C95.1073449,151.252791 95.0827282,151.194326 95.0827282,151.12663 L95.0827282,137.387441 C95.0827282,137.319745 95.1073449,137.261281 95.1565783,137.215124 C95.2027346,137.165891 95.2611992,137.144351 95.325818,137.144351 L97.7874868,137.144351 C97.9228786,137.144351 98.0151912,137.202816 98.0705787,137.3259 L101.953861,145.600184 C101.978478,145.637109 102.006172,145.658649 102.036943,145.658649 C102.061559,145.658649 102.076945,145.630955 102.076945,145.578644 L102.076945,137.387441 C102.076945,137.319745 102.098484,137.261281 102.147718,137.215124" id="Fill-77" fill="#343434"></path>
                    <path d="M116.890037,137.215124 C116.93927,137.261281 116.96081,137.319745 116.96081,137.387441 L116.96081,139.378316 C116.96081,139.446012 116.93927,139.504476 116.890037,139.550633 C116.840804,139.596789 116.785416,139.621406 116.714643,139.621406 L113.625249,139.621406 C113.56063,139.621406 113.526782,139.655254 113.526782,139.72295 L113.526782,151.12663 C113.526782,151.194326 113.502165,151.252791 113.456009,151.298947 C113.406776,151.348181 113.351388,151.372797 113.280615,151.372797 L110.905105,151.372797 C110.834332,151.372797 110.778944,151.348181 110.729711,151.298947 C110.683554,151.252791 110.662015,151.194326 110.662015,151.12663 L110.662015,139.72295 C110.662015,139.655254 110.62509,139.621406 110.557394,139.621406 L107.569543,139.621406 C107.501847,139.621406 107.44646,139.596789 107.397227,139.550633 C107.347993,139.504476 107.326454,139.446012 107.326454,139.378316 L107.326454,137.387441 C107.326454,137.319745 107.347993,137.261281 107.397227,137.215124 C107.44646,137.165891 107.501847,137.144351 107.569543,137.144351 L116.714643,137.144351 C116.785416,137.144351 116.840804,137.165891 116.890037,137.215124" id="Fill-79" fill="#343434"></path>
                    <path d="M130.832929,137.215124 C130.882163,137.165891 130.93755,137.144351 131.005246,137.144351 L133.362294,137.144351 C133.433067,137.144351 133.488455,137.165891 133.537688,137.215124 C133.583844,137.261281 133.605384,137.319745 133.605384,137.387441 L133.605384,151.12663 C133.605384,151.194326 133.583844,151.252791 133.537688,151.298947 C133.488455,151.348181 133.433067,151.372797 133.362294,151.372797 L130.88524,151.372797 C130.749848,151.372797 130.651381,151.311256 130.599071,151.188172 L126.715788,142.916965 C126.688094,142.873886 126.663478,142.855423 126.635784,142.855423 C126.60809,142.855423 126.595782,142.883117 126.595782,142.935427 L126.614244,151.12663 C126.614244,151.194326 126.589628,151.252791 126.543471,151.298947 C126.497315,151.348181 126.43885,151.372797 126.371155,151.372797 L124.014107,151.372797 C123.946411,151.372797 123.887946,151.348181 123.84179,151.298947 C123.792556,151.252791 123.76794,151.194326 123.76794,151.12663 L123.76794,137.387441 C123.76794,137.319745 123.792556,137.261281 123.84179,137.215124 C123.887946,137.165891 123.946411,137.144351 124.014107,137.144351 L126.472698,137.144351 C126.60809,137.144351 126.70348,137.202816 126.758867,137.3259 L130.64215,145.600184 C130.666767,145.637109 130.69446,145.658649 130.722154,145.658649 C130.749848,145.658649 130.762156,145.630955 130.762156,145.578644 L130.762156,137.387441 C130.762156,137.319745 130.783696,137.261281 130.832929,137.215124" id="Fill-81" fill-opacity="0.55" fill="#343434"></path>
                    <path d="M145.046605,139.531863 C144.997372,139.578019 144.941984,139.599558 144.871211,139.599558 L139.424769,139.599558 C139.357073,139.599558 139.326302,139.636483 139.326302,139.704179 L139.326302,142.873578 C139.326302,142.941274 139.357073,142.975122 139.424769,142.975122 L142.818795,142.975122 C142.886491,142.975122 142.944955,142.999739 142.991112,143.048972 C143.040345,143.095128 143.061885,143.153593 143.061885,143.218212 L143.061885,145.190624 C143.061885,145.25832 143.040345,145.316784 142.991112,145.366018 C142.944955,145.412174 142.886491,145.436791 142.818795,145.436791 L139.424769,145.436791 C139.357073,145.436791 139.326302,145.470639 139.326302,145.538335 L139.326302,148.809277 C139.326302,148.876973 139.357073,148.910821 139.424769,148.910821 L144.871211,148.910821 C144.941984,148.910821 144.997372,148.935438 145.046605,148.981594 C145.092762,149.030827 145.114301,149.086215 145.114301,149.156988 L145.114301,151.1294 C145.114301,151.194019 145.092762,151.252483 145.046605,151.29864 C144.997372,151.347873 144.941984,151.37249 144.871211,151.37249 L136.701548,151.37249 C136.633852,151.37249 136.575387,151.347873 136.526154,151.29864 C136.483075,151.252483 136.458458,151.194019 136.458458,151.1294 L136.458458,137.387134 C136.458458,137.319438 136.483075,137.260973 136.526154,137.214817 C136.575387,137.165583 136.633852,137.144044 136.701548,137.144044 L144.871211,137.144044 C144.941984,137.144044 144.997372,137.165583 145.046605,137.214817 C145.092762,137.260973 145.114301,137.319438 145.114301,137.387134 L145.114301,139.356469 C145.114301,139.427242 145.092762,139.482629 145.046605,139.531863" id="Fill-83" fill-opacity="0.55" fill="#343434"></path>
                    <path d="M156.882924,137.215124 C156.932158,137.261281 156.953697,137.319745 156.953697,137.387441 L156.953697,139.378316 C156.953697,139.446012 156.932158,139.504476 156.882924,139.550633 C156.833691,139.596789 156.778303,139.621406 156.710608,139.621406 L153.618136,139.621406 C153.553517,139.621406 153.519669,139.655254 153.519669,139.72295 L153.519669,151.12663 C153.519669,151.194326 153.495053,151.252791 153.448896,151.298947 C153.399663,151.348181 153.344275,151.372797 153.273502,151.372797 L150.897992,151.372797 C150.827219,151.372797 150.771832,151.348181 150.725675,151.298947 C150.676442,151.252791 150.654902,151.194326 150.654902,151.12663 L150.654902,139.72295 C150.654902,139.655254 150.621054,139.621406 150.550281,139.621406 L147.565508,139.621406 C147.494735,139.621406 147.439347,139.596789 147.390114,139.550633 C147.340881,139.504476 147.319341,139.446012 147.319341,139.378316 L147.319341,137.387441 C147.319341,137.319745 147.340881,137.261281 147.390114,137.215124 C147.439347,137.165891 147.494735,137.144351 147.565508,137.144351 L156.710608,137.144351 C156.778303,137.144351 156.833691,137.165891 156.882924,137.215124" id="Fill-85" fill-opacity="0.55" fill="#343434"></path>
                    <path d="M162.241054,151.167248 L159.050116,137.406519 L159.050116,137.326515 C159.050116,137.203432 159.120889,137.14189 159.271666,137.14189 L161.773337,137.14189 C161.933346,137.14189 162.022581,137.218817 162.037967,137.366517 L163.582664,145.173084 C163.591895,145.210009 163.613435,145.231549 163.641129,145.231549 C163.668822,145.231549 163.690362,145.210009 163.70267,145.173084 L165.185826,137.366517 C165.201211,137.218817 165.28737,137.14189 165.450455,137.14189 L167.705959,137.14189 C167.856736,137.14189 167.945972,137.218817 167.970589,137.366517 L169.598367,145.173084 C169.613753,145.210009 169.629138,145.231549 169.659909,145.231549 C169.684526,145.231549 169.706065,145.210009 169.721451,145.173084 L171.183066,137.366517 C171.195375,137.218817 171.281533,137.14189 171.447696,137.14189 L173.844746,137.14189 C174.02014,137.14189 174.090913,137.231125 174.050911,137.406519 L171.081523,151.145708 C171.053829,151.296486 170.96767,151.370336 170.816893,151.370336 L168.521387,151.370336 C168.37061,151.370336 168.284451,151.296486 168.256758,151.145708 L166.610517,142.976045 C166.595131,142.936043 166.573592,142.914503 166.545898,142.914503 C166.521281,142.914503 166.502819,142.936043 166.487433,142.976045 L165.001201,151.145708 C164.991969,151.296486 164.899657,151.370336 164.739648,151.370336 L162.502607,151.370336 C162.367215,151.370336 162.281056,151.30264 162.241054,151.167248" id="Fill-87" fill-opacity="0.55" fill="#343434"></path>
                    <path d="M182.052565,148.534801 C182.391045,148.162474 182.560284,147.679371 182.560284,147.082416 L182.560284,141.472888 C182.560284,140.863625 182.391045,140.371292 182.052565,139.998964 C181.714086,139.62356 181.258677,139.438935 180.692493,139.438935 C180.135541,139.438935 179.686286,139.62356 179.350884,139.998964 C179.012404,140.371292 178.840087,140.863625 178.840087,141.472888 L178.840087,147.082416 C178.840087,147.679371 179.012404,148.162474 179.350884,148.534801 C179.686286,148.907128 180.135541,149.094831 180.692493,149.094831 C181.258677,149.094831 181.714086,148.907128 182.052565,148.534801 M178.221593,150.984161 C177.507709,150.60568 176.959988,150.070267 176.566121,149.377922 C176.172254,148.688655 175.97532,147.882459 175.97532,146.959333 L175.97532,141.552893 C175.97532,140.648229 176.172254,139.84511 176.566121,139.155843 C176.959988,138.466575 177.507709,137.928085 178.221593,137.549604 C178.9324,137.171122 179.757059,136.980343 180.692493,136.980343 C181.62485,136.980343 182.452586,137.171122 183.169547,137.549604 C183.889586,137.928085 184.443461,138.466575 184.837328,139.155843 C185.231195,139.84511 185.428129,140.648229 185.428129,141.552893 L185.428129,146.959333 C185.428129,147.882459 185.231195,148.688655 184.837328,149.377922 C184.443461,150.070267 183.889586,150.60568 183.169547,150.984161 C182.452586,151.36572 181.62485,151.553422 180.692493,151.553422 C179.757059,151.553422 178.9324,151.36572 178.221593,150.984161" id="Fill-89" fill-opacity="0.55" fill="#343434"></path>
                    <path d="M190.93242,139.703256 L190.93242,143.180363 C190.93242,143.248059 190.966268,143.281907 191.033964,143.281907 L192.800211,143.281907 C193.304853,143.281907 193.707952,143.112668 194.021814,142.783419 C194.3326,142.451094 194.489532,142.007994 194.489532,141.451041 C194.489532,140.88178 194.3326,140.432526 194.021814,140.1002 C193.707952,139.767875 193.304853,139.601712 192.800211,139.601712 L191.033964,139.601712 C190.966268,139.601712 190.93242,139.638637 190.93242,139.703256 M194.467992,151.168479 L192.415576,145.555874 C192.390959,145.503563 192.354034,145.47587 192.314032,145.47587 L191.033964,145.47587 C190.966268,145.47587 190.93242,145.512795 190.93242,145.577414 L190.93242,151.128477 C190.93242,151.193096 190.907803,151.25156 190.861647,151.300794 C190.812414,151.34695 190.753949,151.371567 190.68933,151.371567 L188.307666,151.371567 C188.243047,151.371567 188.181505,151.34695 188.138426,151.300794 C188.089193,151.25156 188.064576,151.193096 188.064576,151.128477 L188.064576,137.38621 C188.064576,137.321592 188.089193,137.26005 188.138426,137.213894 C188.181505,137.167737 188.243047,137.143121 188.307666,137.143121 L193.271005,137.143121 C194.071048,137.143121 194.781855,137.324669 195.403426,137.681611 C196.024998,138.04163 196.5081,138.546272 196.846579,139.195537 C197.185059,139.844802 197.354299,140.589457 197.354299,141.432579 C197.354299,142.300317 197.163519,143.051126 196.785038,143.688083 C196.406556,144.325039 195.871143,144.798911 195.181876,145.109696 C195.111103,145.13739 195.09264,145.183546 195.117257,145.254319 L197.434303,151.085398 C197.449688,151.113091 197.455843,151.146939 197.455843,151.186941 C197.455843,151.310025 197.381992,151.371567 197.234292,151.371567 L194.751084,151.371567 C194.603384,151.371567 194.507994,151.303871 194.467992,151.168479" id="Fill-91" fill-opacity="0.55" fill="#343434"></path>
                    <path d="M199.962129,151.299255 C199.912896,151.250022 199.894433,151.194634 199.894433,151.126938 L199.894433,137.387749 C199.894433,137.320053 199.912896,137.261588 199.962129,137.215432 C200.011362,137.166199 200.06675,137.141582 200.137523,137.141582 L202.513033,137.141582 C202.583806,137.141582 202.639194,137.166199 202.688427,137.215432 C202.731507,137.261588 202.756123,137.320053 202.756123,137.387749 L202.756123,142.791112 C202.756123,142.834191 202.774586,142.861885 202.808434,142.874193 C202.842282,142.889579 202.863821,142.874193 202.879207,142.834191 L206.519399,137.304668 C206.584018,137.19697 206.682485,137.141582 206.805568,137.141582 L209.424169,137.141582 C209.519558,137.141582 209.584177,137.169276 209.618025,137.224663 C209.651873,137.276974 209.642642,137.34467 209.587254,137.424674 L205.827055,143.261906 C205.81167,143.298831 205.81167,143.348065 205.827055,143.403452 L209.808804,151.086936 C209.836498,151.139247 209.851884,151.182326 209.851884,151.21002 C209.851884,151.317718 209.774957,151.370028 209.630333,151.370028 L207.027119,151.370028 C206.904035,151.370028 206.811723,151.311563 206.74095,151.18848 L203.85772,145.618954 C203.842335,145.578952 203.820795,145.557412 203.793101,145.557412 C203.765407,145.557412 203.740791,145.578952 203.713097,145.618954 L202.799202,146.939024 C202.771509,146.994412 202.756123,147.034414 202.756123,147.062108 L202.756123,151.126938 C202.756123,151.194634 202.731507,151.250022 202.688427,151.299255 C202.639194,151.348488 202.583806,151.370028 202.513033,151.370028 L200.137523,151.370028 C200.06675,151.370028 200.011362,151.348488 199.962129,151.299255" id="Fill-93" fill-opacity="0.55" fill="#343434"></path>
                </g>
            </g>
        </g>
    </g>
</svg>